<svg width="469" height="200" viewBox="0 0 469 200" fill="none" xmlns="http://www.w3.org/2000/svg">
<path d="M0.0019721 13.5154C0.0822701 10.6633 122.031 -42.1625 152.807 82.6004C154.425 62.948 162.658 44.4249 176.175 30.3699C191.325 14.6167 211.875 5.76739 233.301 5.7674C254.727 5.76742 275.276 14.6167 290.427 30.3699C302.14 42.5493 309.884 58.0844 312.795 74.8016C330.081 -23.3635 468.498 6.87764 468.64 9.60529C468.774 12.4351 471.378 210.439 240.685 196.126L240.69 197.131C1.21492 220.891 -0.0796798 16.4397 0.0019721 13.5154ZM240.071 90.2684L268.264 89.7684H240.068L240.071 90.2684Z" fill="url(#paint0_linear_2280_130385)"/>
<defs>
<linearGradient id="paint0_linear_2280_130385" x1="229.922" y1="173.383" x2="233.501" y2="6.0826" gradientUnits="userSpaceOnUse">
<stop stop-color="#73BCAF"/>
<stop offset="1" stop-color="#A7E9DE"/>
</linearGradient>
</defs>
</svg>
