<svg width="417" height="426" viewBox="0 0 417 426" fill="none" xmlns="http://www.w3.org/2000/svg">
<path fill-rule="evenodd" clip-rule="evenodd" d="M40.3158 283.496C21.0113 277.138 15.1861 273.324 18.2731 265.652C21.4079 262.856 24.8621 262.551 32.6184 263.203C28.695 245.107 27.3047 234.902 25.9706 216.668C9.82054 206.232 9.38163 201.061 13.3747 192.177C17.7145 187.85 20.6816 187.972 27.0202 193.926C27.5891 178.934 28.7009 170.134 34.7177 152.29C25.004 131.15 22.6553 122.674 31.5687 121.85C37.3169 120.681 39.6947 122.876 43.1149 130.247L69.0063 91.06C60.5978 72.7304 61.7089 67.7522 72.1553 66.5681C75.301 67.0249 76.6758 70.484 78.8031 79.1639L106.094 55.7217C105.812 45.7663 108.921 41.2735 121.839 35.7783C125.03 35.1747 125.4 37.6572 125.338 43.4757L156.127 30.8799C160.485 17.0045 166.317 13.6411 183.768 16.8845C188.097 20.2556 186.444 22.3142 183.768 25.9815C197.63 22.9668 205.195 23.6835 218.757 24.2321C237.694 11.2874 241.386 13.4489 246.747 18.9838C248.294 22.5592 246.204 24.1887 239.4 26.6813L261.443 32.2794C281.686 26.5158 286.53 26.6892 288.034 30.8799C289.517 36.165 287.636 37.4312 284.185 39.627L310.076 52.9226C330.026 45.5115 333.101 47.619 335.28 53.9723C337.251 58.6201 335.51 61.0731 327.221 65.1686C335.409 71.3293 339.747 74.8835 344.715 82.3129C370.639 79.3 374.612 80.989 375.155 86.1616C373.577 94.7547 368.247 96.2332 357.661 98.0577C370.532 115.831 374.193 124.643 379.703 140.044C398.867 143.305 401.923 146.803 402.796 154.039C403.243 160.262 398.831 160.44 387.401 158.238L387.758 159.615C392.246 176.924 394.871 187.045 396.148 205.472C409.161 216.733 414.609 222.797 407.344 231.364C403.32 234.571 400.536 234.631 394.399 230.664L394.372 230.958C392.954 246.541 392.152 255.366 387.051 270.551C398.453 290.783 396.613 294.176 391.949 298.891C387.289 301.487 384.683 300.651 380.053 291.544C371.4 309.246 365.54 318.103 353.112 331.78C359.661 349.8 356.61 352.969 348.214 355.572C344.008 356.296 343.368 352.616 342.966 344.376C332.408 354.845 326.403 360.246 315.325 367.468L264.253 391.61C265.418 401.717 261.601 405.569 241.499 407.005C236.003 406.368 235.395 404.093 239.05 397.209C215.719 400.518 202.627 402.259 178.17 395.459L156.827 389.511C143.845 396.722 139.21 396.93 133.735 393.01C131.379 389.033 130.846 386.779 137.234 382.513L112.392 370.268C92.5962 373.913 85.0382 373.825 84.0513 366.069C82.5892 360.567 86.2997 359 94.198 356.622L76.3539 339.128C58.1225 343.306 48.0396 345.549 46.9636 337.029C44.4268 330.347 49.6371 327.823 63.0583 324.083C52.4448 309.019 47.8048 299.959 40.3158 283.496ZM45.226 223.666C51.4926 228.396 52.7345 238.268 38.2283 256.905C43.31 275.451 49.1153 284.881 59.5712 301.69C61.9899 292.606 63.5644 288.77 67.6186 289.094C72.9732 290.598 74.5731 294.732 69.7179 320.584L86.5123 341.227C85.6223 327.348 86.7715 322.757 93.8599 324.083C98.9543 325.387 99.5166 332.079 97.7086 351.374C108.698 361.684 115.658 365.342 128.149 371.667C126.649 359.328 127.338 354.891 132.347 352.773C138.61 350.502 141.216 356.313 144.243 379.365L167.685 386.712C165.077 376.314 161.131 368.55 170.484 367.468C177.301 366.73 179.657 372.143 181.681 389.511C195.766 392.984 203.688 394.039 218.069 393.71C212.951 381.532 211.04 375.578 218.069 374.466C230.237 376.165 233.182 380.555 232.064 393.71C254.51 393.184 264.226 389.015 280.698 380.414C265.262 375.817 258.56 373.153 264.253 367.468C274.812 359.741 280.863 356.419 295.043 374.466L322.684 354.873C311.163 353.519 308.135 351.912 309.388 347.175C311.026 339.406 316.807 339.103 334.93 345.076L358.022 315.686C345.368 320.832 341.702 320.615 340.178 315.686C339.749 307.052 341.282 302.361 370.968 296.442C381.698 271.332 383.698 263.276 386.363 250.257C371.807 261.191 369.218 260.231 366.42 256.205C360.114 247.661 361.976 242.722 389.512 233.113C390.33 214.43 389.794 203.819 388.462 184.829C384.172 198.725 381.501 202.459 376.216 199.174C370.928 197.049 369.614 182.283 383.564 166.285C378.671 149.165 374.909 139.558 362.571 122.55C362.579 130.691 361.249 133.687 355.223 134.796C348.039 130.28 345.091 126.298 352.774 102.256C346.624 93.1281 342.871 88.4792 335.28 81.2632C335.238 93.773 333.805 97.4797 328.982 98.0577C324.795 99.4216 323.148 96.3183 324.084 70.0669C310.877 59.1059 304.293 55.9483 292.594 50.4734C294.716 61.6293 295.71 67.8401 289.445 70.0669C283.059 72.2927 280.332 66.283 276.849 43.8256C267.558 39.936 262.332 38.2866 253.057 36.1282C257.815 45.542 259.953 50.6311 251.308 55.3718C244.614 54.4849 241.436 49.5902 240.811 32.9792C224.241 29.3999 215.489 29.0487 199.875 28.4307C210.043 38.8643 212.822 43.514 205.823 46.9746C192.427 51.1485 190.248 45.0398 189.378 29.4804C168.162 31.4529 157.065 33.8727 139.683 42.0762C154.916 44.6313 164.232 47.2 155.439 57.821C147.061 64.0182 140.17 60.0314 126.749 49.0739L97.3587 67.6177C108.465 68.9147 114.313 69.7889 112.404 76.015C108.778 82.6302 102.907 83.0123 87.2121 79.1639C77.1876 89.3349 71.9823 95.5297 63.42 107.505C74.3606 103.938 79.3391 102.838 81.6139 106.105C84.0165 112.493 73.8076 123.894 52.5735 125.349C47.8943 132.409 45.6069 136.448 45.226 144.592C38.2459 154.971 37.3979 162.662 33.6798 175.032C45.3114 164.984 51.6977 159.736 56.4223 167.335C58.8319 178.435 55.7208 183.959 31.2306 190.777C30.5416 213.96 31.1533 223.438 33.6798 235.562C38.5862 224.212 41.1768 221.783 45.226 223.666Z" fill="url(#paint0_linear_1643_556)"/>
<path d="M183.828 422.785C183.837 422.355 185.251 392.099 211.652 396.219L211.651 396.221C238.114 394.004 236.738 424.058 236.707 424.501C236.678 424.907 221.206 429.236 219.531 414.952C219.032 417.358 218.059 419.557 216.707 421.267C214.867 423.594 212.479 424.825 210.07 424.688C207.662 424.552 205.428 423.06 203.862 420.54C202.804 418.837 202.11 416.757 201.83 414.53C198.758 428.488 183.827 423.194 183.828 422.785ZM303.267 371.434C323.488 354.211 339.882 379.457 340.106 379.822C340.313 380.177 330.261 392.701 320.58 382.064C321.577 384.312 322.068 386.668 321.965 388.847C321.825 391.81 320.602 394.201 318.565 395.494C316.528 396.787 313.844 396.875 311.103 395.739C309.251 394.972 307.477 393.688 305.953 392.043C311.58 405.172 296.364 409.566 296.128 409.233C295.885 408.879 279.406 383.464 303.265 371.431L303.267 371.434ZM69.9424 372.948C70.1609 372.578 86.2162 346.893 107.214 363.419L107.212 363.421C131.368 374.451 115.449 399.975 115.202 400.35C114.978 400.689 99.3713 396.885 104.905 383.614C103.292 385.466 101.366 386.905 99.3506 387.733C96.606 388.861 93.9217 388.765 91.8887 387.466C89.8555 386.167 88.6404 383.771 88.5098 380.807C88.4215 378.801 88.8356 376.647 89.6846 374.566C80.1669 385.238 69.7409 373.303 69.9424 372.948ZM373.899 298.264C383.238 273.396 409.816 287.532 410.189 287.743C410.543 287.948 407.824 303.771 394.208 299.171C396.165 300.652 397.732 302.473 398.696 304.426C400.01 307.086 400.1 309.77 398.944 311.888C397.789 314.006 395.483 315.384 392.535 315.719C390.538 315.946 388.357 315.68 386.221 314.975C397.537 323.734 386.344 334.965 385.977 334.787C385.592 334.595 358.86 320.351 373.896 298.262L373.899 298.264ZM9.99121 282.678C10.3587 282.435 36.047 266.406 47.666 290.464L47.6611 290.466C64.5368 310.981 39.0119 326.939 38.6426 327.157C38.2834 327.356 25.9421 317.097 36.7275 307.603C34.4666 308.557 32.1068 309.007 29.9336 308.867C26.9728 308.676 24.6031 307.412 23.3457 305.354C22.0883 303.294 22.0456 300.608 23.2285 297.887C24.0292 296.045 25.3479 294.29 27.0244 292.792C13.786 298.211 9.65236 282.902 9.99121 282.678ZM7.60059 149.785C8.03227 149.839 37.9787 154.352 31.1709 180.189L31.1641 180.188C30.6556 206.745 0.895105 202.288 0.462891 202.212C0.0618629 202.141 -2.65727 186.302 11.7305 186.106C9.38649 185.363 7.29676 184.168 5.7334 182.646C3.60708 180.577 2.62692 178.075 3.00977 175.693C3.39273 173.311 5.10688 171.243 7.77441 169.944C9.57838 169.066 11.7188 168.588 13.9639 168.539C0.391209 164.049 7.19764 149.735 7.60059 149.785ZM411.52 143.955C411.926 143.939 417.937 158.836 403.928 162.079C406.372 162.31 408.663 163.035 410.511 164.189C413.027 165.762 414.514 167.998 414.645 170.407C414.775 172.816 413.538 175.201 411.206 177.036C409.628 178.277 407.636 179.196 405.451 179.72C419.673 181.228 416.054 196.663 415.649 196.702C415.221 196.741 384.993 198.676 386.173 171.981L386.18 171.98C381.053 145.921 411.083 143.972 411.52 143.955ZM76.3018 46.7812C76.6206 47.0701 98.5354 67.9789 78.1113 85.209L78.1064 85.2041C62.4225 106.644 40.628 85.8799 40.3252 85.5762C40.0389 85.2858 46.9143 70.7732 58.793 78.8691C57.3055 76.9152 56.2849 74.7387 55.8809 72.5977C55.3306 69.6819 55.9669 67.0729 57.6494 65.3438C59.332 63.6146 61.9228 62.9066 64.8525 63.377C66.8358 63.6954 68.8635 64.5375 70.7305 65.79C62.1988 54.3123 76.0006 46.5087 76.3018 46.7812ZM335.378 37.5889C335.68 37.3159 349.843 44.8956 341.171 56.3652C343.195 54.9755 345.419 54.0633 347.577 53.7646C350.516 53.358 353.092 54.1207 354.736 55.8857C356.381 57.651 356.961 60.2746 356.348 63.1777C355.934 65.1367 354.997 67.1134 353.661 68.9121C365.53 60.976 372.642 75.1178 372.361 75.417C372.057 75.7213 350.099 96.5861 333.891 75.3428L333.894 75.3389C313.257 58.6242 335.059 37.8769 335.378 37.5889ZM246.702 0.796875C246.835 0.41201 262.892 0.206725 260.846 14.4316C261.947 12.2394 263.452 10.3683 265.195 9.06543C267.572 7.28942 270.197 6.71371 272.489 7.46484C274.782 8.21602 276.556 10.2324 277.421 13.0703C278.005 14.9859 278.141 17.17 277.84 19.3906C284.4 6.70336 297.464 15.6588 297.356 16.0518C297.237 16.4651 288.09 45.3409 263.636 34.5703V34.5664C237.498 29.8994 246.561 1.20813 246.702 0.796875ZM158.72 13.8701C156.979 -0.317629 172.829 -0.282166 172.956 0.103516C173.091 0.512189 181.812 29.5193 155.542 34.4072L155.54 34.4023C131.317 45.282 122.631 16.4673 122.518 16.0537C122.412 15.6597 135.553 6.44532 141.882 19.3379C141.557 16.9095 141.746 14.5186 142.451 12.4619C143.414 9.65504 145.256 7.70026 147.573 7.02832C149.89 6.3564 152.493 7.02231 154.808 8.87891C156.372 10.1335 157.716 11.8633 158.72 13.8701Z" fill="url(#paint1_linear_1643_556)"/>
<defs>
<linearGradient id="paint0_linear_1643_556" x1="379.184" y1="110.188" x2="200.167" y2="428.77" gradientUnits="userSpaceOnUse">
<stop offset="0.0913462" stop-color="#445C19"/>
<stop offset="0.653846" stop-color="#72A85A"/>
</linearGradient>
<linearGradient id="paint1_linear_1643_556" x1="-1.34962e-06" y1="157.443" x2="417.469" y2="263.604" gradientUnits="userSpaceOnUse">
<stop stop-color="#62AC9F"/>
<stop offset="0.451923" stop-color="#84CEC1"/>
</linearGradient>
</defs>
</svg>
