<svg width="600" height="613" viewBox="0 0 600 613" fill="none" xmlns="http://www.w3.org/2000/svg">
<path d="M70.6102 312.185L263.919 223.437L263.92 420.958L70.6102 516.827L70.6102 312.185Z" fill="#AFACB4"/>
<path d="M263.797 227.971L451.557 320.254L451.557 521.012L263.797 429.699L263.797 227.971Z" fill="#D2CFCB"/>
<path d="M233.022 176.314L438.897 281.754L410.288 334.173L209.906 224.809L233.022 176.314Z" fill="#D9D9D9"/>
<path d="M271.648 448.371C271.366 450.843 273.125 453.015 275.577 453.22C278.03 453.426 280.247 451.588 280.53 449.116L276.089 448.743L271.648 448.371ZM150.772 179.682L148.212 183.444C237.509 243.285 282.541 353.079 271.648 448.371L276.089 448.743L280.53 449.116C291.791 350.593 245.37 237.597 153.333 175.919L150.772 179.682Z" fill="url(#paint0_linear_1612_227)"/>
<path d="M256.851 482.927C256.618 485.404 254.437 487.285 251.979 487.129C249.521 486.974 247.718 484.84 247.951 482.364L252.401 482.645L256.851 482.927ZM291.654 190.414L295.475 192.624C269.076 237.111 261.29 288.196 259.224 339.099C258.192 364.543 258.591 389.775 258.757 414.072C258.922 438.299 258.856 461.617 256.851 482.927L252.401 482.645L247.951 482.364C249.908 461.564 249.982 438.669 249.817 414.419C249.651 390.24 249.248 364.733 250.291 339.017C252.378 287.6 260.256 234.679 287.834 188.204L291.654 190.414Z" fill="url(#paint1_linear_1612_227)"/>
<g filter="url(#filter0_f_1612_227)">
<path d="M271.962 394.524C397.597 294.333 438.282 202.452 438.282 202.452C438.282 202.452 310.593 275.991 272.42 353.891L271.962 394.524Z" fill="url(#paint2_linear_1612_227)"/>
</g>
<g filter="url(#filter1_f_1612_227)">
<path d="M257.891 399.917C166.671 322.818 138.811 256.635 138.811 256.635C138.811 256.635 228.167 312.276 256.494 369.137L257.891 399.917Z" fill="url(#paint3_linear_1612_227)"/>
</g>
<path d="M71.3701 316.695L259.13 408.979L259.13 609.736L71.3701 518.424L71.3701 316.695Z" fill="#F9F2E9"/>
<path d="M258.295 408.357L451.604 319.609L451.605 517.13L258.295 612.999L258.295 408.357Z" fill="#BFBCC5"/>
<path d="M410.394 329.931L437.917 281.36L591.992 379.718L567.549 427.59L410.394 329.931Z" fill="#BDBAC3"/>
<path d="M129.797 143.362C137.675 144.937 156.051 166.339 160.67 181.088C165.288 195.837 162.139 209.803 153.636 212.281C145.132 214.759 134.494 204.811 129.875 190.061C125.256 175.312 124.293 150.146 129.797 143.362Z" fill="url(#paint4_linear_1612_227)"/>
<path d="M122.919 144.736C129.049 149.709 134.545 176.95 131.274 192.065C128.003 207.181 118.305 218.072 109.614 216.392C100.923 214.712 96.5288 201.096 99.7999 185.981C103.071 170.865 114.722 148.221 122.919 144.736Z" fill="url(#paint5_linear_1612_227)"/>
<path d="M125.356 144.964C127.062 152.491 114.16 177.432 101.994 187.605C89.8282 197.778 75.2475 200.85 69.4273 194.466C63.607 188.083 68.751 174.661 80.9168 164.488C93.0826 154.315 116.655 142.991 125.356 144.964Z" fill="url(#paint6_linear_1612_227)"/>
<path d="M119.954 141.357C117.543 148.727 93.4769 164.368 77.6781 167.481C61.8793 170.595 47.6565 166.375 45.9104 158.055C44.1644 149.736 55.5565 140.468 71.3553 137.355C87.1541 134.241 113.433 135.521 119.954 141.357Z" fill="url(#paint7_linear_1612_227)"/>
<path d="M119.9 136.598C113.991 141.87 85.0495 144.059 69.7607 139.266C54.472 134.473 44.3507 124.043 47.1542 115.97C49.9578 107.896 64.6245 105.237 79.9132 110.03C95.202 114.823 117.283 128.418 119.9 136.598Z" fill="url(#paint8_linear_1612_227)"/>
<path d="M123.303 125.882C115.854 128.86 87.987 121.251 75.4351 111.645C62.8833 102.039 57.2201 88.8656 62.7861 82.2208C68.3521 75.5761 83.0396 77.9765 95.5914 87.5822C108.143 97.188 123.838 117.328 123.303 125.882Z" fill="url(#paint9_linear_1612_227)"/>
<path d="M127.337 129.872C119.329 129.058 98.8007 109.533 92.6621 95.3071C86.5235 81.0811 88.2001 66.8917 96.4069 63.6142C104.614 60.3366 116.243 69.2122 122.382 83.4382C128.52 97.6642 132.107 122.598 127.337 129.872Z" fill="url(#paint10_linear_1612_227)"/>
<path d="M136.108 128.885C129.254 124.866 119.492 98.7627 120.327 83.3593C121.162 67.9558 129.025 55.7893 137.889 56.1846C146.754 56.5799 153.262 69.3874 152.427 84.7908C151.592 100.194 143.663 124.252 136.108 128.885Z" fill="url(#paint11_linear_1612_227)"/>
<path d="M134.063 136.142C130.302 129.342 135.737 102.035 144.613 89.1201C153.489 76.2053 166.69 69.4982 174.098 74.1394C181.506 78.7805 180.316 93.0125 171.441 105.927C162.565 118.842 143.01 135.8 134.063 136.142Z" fill="url(#paint12_linear_1612_227)"/>
<path d="M133.26 143.683C132.829 135.985 149.701 113.305 163.392 105.104C177.084 96.9042 191.977 96.0881 196.657 103.282C201.338 110.475 194.033 122.954 180.341 131.154C166.65 139.355 141.515 146.956 133.26 143.683Z" fill="url(#paint13_linear_1612_227)"/>
<path d="M127.108 140.636C131.938 134.402 160.005 127.214 175.942 129.294C191.878 131.374 203.783 139.921 202.531 148.383C201.279 156.845 187.344 162.019 171.408 159.939C155.471 157.859 131.209 148.262 127.108 140.636Z" fill="url(#paint14_linear_1612_227)"/>
<path d="M126.29 138.204C133.826 135.354 161.524 143.492 173.835 153.353C186.145 163.213 191.464 176.526 185.715 183.087C179.966 189.648 165.325 186.973 153.014 177.113C140.703 167.252 125.527 146.772 126.29 138.204Z" fill="url(#paint15_linear_1612_227)"/>
<ellipse cx="21.0886" cy="21.6029" rx="21.0886" ry="21.6029" transform="matrix(0.334812 -0.942285 0.952175 0.305552 93.2002 152.307)" fill="#D9D9D9"/>
<path d="M312.889 151.738C320.4 158.467 326.41 194.285 321.839 213.926C317.267 233.567 304.79 247.447 293.971 244.929C283.152 242.411 278.087 224.447 282.659 204.806C287.231 185.165 302.524 155.991 312.889 151.738Z" fill="url(#paint16_linear_1612_227)"/>
<path d="M304.562 148.989C307.974 158.478 296.243 192.851 282.887 207.96C269.532 223.07 251.958 229.355 243.635 221.998C235.312 214.642 239.391 196.429 252.747 181.319C266.102 166.209 293.421 147.806 304.562 148.989Z" fill="url(#paint17_linear_1612_227)"/>
<path d="M307.047 150.772C304.008 160.387 273.843 180.614 254.062 184.536C234.281 188.458 216.494 182.804 214.333 171.907C212.173 161.011 226.458 148.998 246.239 145.077C266.02 141.155 298.903 143.078 307.047 150.772Z" fill="url(#paint18_linear_1612_227)"/>
<path d="M303.534 143.29C296.138 150.145 259.918 152.813 240.784 146.443C221.651 140.072 208.985 126.363 212.494 115.824C216.004 105.284 234.359 101.905 253.493 108.275C272.626 114.646 300.259 132.575 303.534 143.29Z" fill="url(#paint19_linear_1612_227)"/>
<path d="M306.564 137.856C296.741 140.137 263.972 124.477 250.524 109.45C237.075 94.4229 232.883 76.2357 241.161 68.8276C249.438 61.4195 267.051 67.5958 280.499 82.6227C293.948 97.6497 309.039 126.929 306.564 137.856Z" fill="url(#paint20_linear_1612_227)"/>
<path d="M317.199 127.823C307.198 126.533 281.953 100.422 274.593 81.6473C267.233 62.8722 269.651 44.3654 279.993 40.3113C290.336 36.2572 304.686 48.191 312.046 66.9661C319.406 85.7413 323.331 118.446 317.199 127.823Z" fill="url(#paint21_linear_1612_227)"/>
<path d="M318.987 134.884C310.841 128.939 301.281 93.9015 303.867 73.9018C306.453 53.9022 317.48 38.844 328.497 40.2685C339.514 41.6929 346.348 59.0606 343.762 79.0602C341.176 99.0598 328.875 129.617 318.987 134.884Z" fill="url(#paint22_linear_1612_227)"/>
<path d="M329.131 139.264C324.317 130.403 330.688 94.6476 341.592 77.6836C352.496 60.7196 368.91 51.8368 378.255 57.8432C387.6 63.8496 386.335 82.4708 375.431 99.4347C364.527 116.399 340.323 138.74 329.131 139.264Z" fill="url(#paint23_linear_1612_227)"/>
<path d="M322.201 146.221C322.542 136.143 346.155 108.549 364.153 99.4517C382.151 90.3544 400.803 91.0163 405.814 100.93C410.825 110.844 400.298 126.256 382.3 135.353C364.303 144.45 332.114 151.442 322.201 146.221Z" fill="url(#paint24_linear_1612_227)"/>
<path d="M316.435 154.279C320.965 145.269 353.963 130.098 374.116 129.372C394.269 128.647 410.93 137.058 411.33 148.159C411.73 159.26 395.716 168.848 375.563 169.573C355.41 170.299 323.251 163.17 316.435 154.279Z" fill="url(#paint25_linear_1612_227)"/>
<path d="M311.751 146.963C321.029 142.913 356.096 152.35 372.007 164.703C387.919 177.057 395.265 194.223 388.416 203.045C381.566 211.868 363.115 209.005 347.203 196.652C331.292 184.298 311.243 158.191 311.751 146.963Z" fill="url(#paint26_linear_1612_227)"/>
<path d="M312.442 143.687C322.456 145.177 347.173 171.781 354.106 190.695C361.04 209.608 358.159 228.057 347.672 231.901C337.186 235.745 323.064 223.529 316.131 204.616C309.198 185.703 306.054 152.936 312.442 143.687Z" fill="url(#paint27_linear_1612_227)"/>
<ellipse cx="305.988" cy="141.21" rx="27.4047" ry="27.1955" transform="rotate(-41.4288 305.988 141.21)" fill="#D9D9D9"/>
<defs>
<filter id="filter0_f_1612_227" x="271.273" y="201.764" width="167.698" height="193.449" filterUnits="userSpaceOnUse" color-interpolation-filters="sRGB">
<feFlood flood-opacity="0" result="BackgroundImageFix"/>
<feBlend mode="normal" in="SourceGraphic" in2="BackgroundImageFix" result="shape"/>
<feGaussianBlur stdDeviation="0.344723" result="effect1_foregroundBlur_1612_227"/>
</filter>
<filter id="filter1_f_1612_227" x="138.121" y="255.945" width="120.459" height="144.66" filterUnits="userSpaceOnUse" color-interpolation-filters="sRGB">
<feFlood flood-opacity="0" result="BackgroundImageFix"/>
<feBlend mode="normal" in="SourceGraphic" in2="BackgroundImageFix" result="shape"/>
<feGaussianBlur stdDeviation="0.344723" result="effect1_foregroundBlur_1612_227"/>
</filter>
<linearGradient id="paint0_linear_1612_227" x1="208.314" y1="241.008" x2="228.16" y2="449.448" gradientUnits="userSpaceOnUse">
<stop stop-color="#445C19"/>
<stop offset="0.701923" stop-color="#72A85A"/>
</linearGradient>
<linearGradient id="paint1_linear_1612_227" x1="304.566" y1="263.49" x2="324.412" y2="471.931" gradientUnits="userSpaceOnUse">
<stop stop-color="#445C19"/>
<stop offset="0.701923" stop-color="#72A85A"/>
</linearGradient>
<linearGradient id="paint2_linear_1612_227" x1="384.255" y1="238.806" x2="417.412" y2="291.382" gradientUnits="userSpaceOnUse">
<stop offset="0.0913462" stop-color="#445C19"/>
<stop offset="0.653846" stop-color="#72A85A"/>
</linearGradient>
<linearGradient id="paint3_linear_1612_227" x1="177.951" y1="285.047" x2="154.11" y2="319.834" gradientUnits="userSpaceOnUse">
<stop offset="0.0913462" stop-color="#445C19"/>
<stop offset="0.653846" stop-color="#72A85A"/>
</linearGradient>
<linearGradient id="paint4_linear_1612_227" x1="127.353" y1="182.007" x2="157.956" y2="172.423" gradientUnits="userSpaceOnUse">
<stop offset="0.0480769" stop-color="#CC597E"/>
<stop offset="0.793269" stop-color="#DF6DB7"/>
</linearGradient>
<linearGradient id="paint5_linear_1612_227" x1="101.586" y1="177.726" x2="132.91" y2="184.505" gradientUnits="userSpaceOnUse">
<stop offset="0.0480769" stop-color="#CC597E"/>
<stop offset="0.793269" stop-color="#DF6DB7"/>
</linearGradient>
<linearGradient id="paint6_linear_1612_227" x1="87.5606" y1="158.933" x2="107.61" y2="182.909" gradientUnits="userSpaceOnUse">
<stop offset="0.0480769" stop-color="#CC597E"/>
<stop offset="0.793269" stop-color="#DF6DB7"/>
</linearGradient>
<linearGradient id="paint7_linear_1612_227" x1="79.9831" y1="135.655" x2="85.9344" y2="165.854" gradientUnits="userSpaceOnUse">
<stop offset="0.0480769" stop-color="#CC597E"/>
<stop offset="0.793269" stop-color="#DF6DB7"/>
</linearGradient>
<linearGradient id="paint8_linear_1612_227" x1="88.2625" y1="112.647" x2="79.0089" y2="142.165" gradientUnits="userSpaceOnUse">
<stop offset="0.0480769" stop-color="#CC597E"/>
<stop offset="0.793269" stop-color="#DF6DB7"/>
</linearGradient>
<linearGradient id="paint9_linear_1612_227" x1="102.446" y1="92.828" x2="83.388" y2="117.731" gradientUnits="userSpaceOnUse">
<stop offset="0.0480769" stop-color="#CC597E"/>
<stop offset="0.793269" stop-color="#DF6DB7"/>
</linearGradient>
<linearGradient id="paint10_linear_1612_227" x1="125.734" y1="91.2071" x2="96.3619" y2="103.881" gradientUnits="userSpaceOnUse">
<stop offset="0.0480769" stop-color="#CC597E"/>
<stop offset="0.793269" stop-color="#DF6DB7"/>
</linearGradient>
<linearGradient id="paint11_linear_1612_227" x1="151.971" y1="93.2027" x2="119.888" y2="91.463" gradientUnits="userSpaceOnUse">
<stop offset="0.0480769" stop-color="#CC597E"/>
<stop offset="0.793269" stop-color="#DF6DB7"/>
</linearGradient>
<linearGradient id="paint12_linear_1612_227" x1="166.593" y1="112.98" x2="140.527" y2="95.0656" gradientUnits="userSpaceOnUse">
<stop offset="0.0480769" stop-color="#CC597E"/>
<stop offset="0.793269" stop-color="#DF6DB7"/>
</linearGradient>
<linearGradient id="paint13_linear_1612_227" x1="172.864" y1="135.633" x2="156.907" y2="108.989" gradientUnits="userSpaceOnUse">
<stop offset="0.0480769" stop-color="#CC597E"/>
<stop offset="0.793269" stop-color="#DF6DB7"/>
</linearGradient>
<linearGradient id="paint14_linear_1612_227" x1="162.704" y1="158.803" x2="166.713" y2="128.09" gradientUnits="userSpaceOnUse">
<stop offset="0.0480769" stop-color="#CC597E"/>
<stop offset="0.793269" stop-color="#DF6DB7"/>
</linearGradient>
<linearGradient id="paint15_linear_1612_227" x1="146.291" y1="171.728" x2="166.021" y2="147.095" gradientUnits="userSpaceOnUse">
<stop offset="0.0480769" stop-color="#CC597E"/>
<stop offset="0.793269" stop-color="#DF6DB7"/>
</linearGradient>
<linearGradient id="paint16_linear_1612_227" x1="285.156" y1="194.08" x2="324.335" y2="203.2" gradientUnits="userSpaceOnUse">
<stop offset="0.0480769" stop-color="#CC597E"/>
<stop offset="0.793269" stop-color="#DF6DB7"/>
</linearGradient>
<linearGradient id="paint17_linear_1612_227" x1="260.04" y1="173.068" x2="290.181" y2="199.709" gradientUnits="userSpaceOnUse">
<stop offset="0.0480769" stop-color="#CC597E"/>
<stop offset="0.793269" stop-color="#DF6DB7"/>
</linearGradient>
<linearGradient id="paint18_linear_1612_227" x1="257.041" y1="142.935" x2="264.864" y2="182.394" gradientUnits="userSpaceOnUse">
<stop offset="0.0480769" stop-color="#CC597E"/>
<stop offset="0.793269" stop-color="#DF6DB7"/>
</linearGradient>
<linearGradient id="paint19_linear_1612_227" x1="263.941" y1="111.755" x2="251.233" y2="149.922" gradientUnits="userSpaceOnUse">
<stop offset="0.0480769" stop-color="#CC597E"/>
<stop offset="0.793269" stop-color="#DF6DB7"/>
</linearGradient>
<linearGradient id="paint20_linear_1612_227" x1="287.844" y1="90.829" x2="257.868" y2="117.656" gradientUnits="userSpaceOnUse">
<stop offset="0.0480769" stop-color="#CC597E"/>
<stop offset="0.793269" stop-color="#DF6DB7"/>
</linearGradient>
<linearGradient id="paint21_linear_1612_227" x1="316.065" y1="77.2193" x2="278.612" y2="91.9005" gradientUnits="userSpaceOnUse">
<stop offset="0.0480769" stop-color="#CC597E"/>
<stop offset="0.793269" stop-color="#DF6DB7"/>
</linearGradient>
<linearGradient id="paint22_linear_1612_227" x1="342.35" y1="89.9821" x2="302.455" y2="84.8237" gradientUnits="userSpaceOnUse">
<stop offset="0.0480769" stop-color="#CC597E"/>
<stop offset="0.793269" stop-color="#DF6DB7"/>
</linearGradient>
<linearGradient id="paint23_linear_1612_227" x1="369.477" y1="108.699" x2="335.637" y2="86.9477" gradientUnits="userSpaceOnUse">
<stop offset="0.0480769" stop-color="#CC597E"/>
<stop offset="0.793269" stop-color="#DF6DB7"/>
</linearGradient>
<linearGradient id="paint24_linear_1612_227" x1="372.472" y1="140.321" x2="354.324" y2="104.42" gradientUnits="userSpaceOnUse">
<stop offset="0.0480769" stop-color="#CC597E"/>
<stop offset="0.793269" stop-color="#DF6DB7"/>
</linearGradient>
<linearGradient id="paint25_linear_1612_227" x1="364.558" y1="169.97" x2="363.11" y2="129.769" gradientUnits="userSpaceOnUse">
<stop offset="0.0480769" stop-color="#CC597E"/>
<stop offset="0.793269" stop-color="#DF6DB7"/>
</linearGradient>
<linearGradient id="paint26_linear_1612_227" x1="338.514" y1="189.906" x2="363.318" y2="157.957" gradientUnits="userSpaceOnUse">
<stop offset="0.0480769" stop-color="#CC597E"/>
<stop offset="0.793269" stop-color="#DF6DB7"/>
</linearGradient>
<linearGradient id="paint27_linear_1612_227" x1="312.345" y1="194.287" x2="350.32" y2="180.366" gradientUnits="userSpaceOnUse">
<stop offset="0.0480769" stop-color="#CC597E"/>
<stop offset="0.793269" stop-color="#DF6DB7"/>
</linearGradient>
</defs>
</svg>
