<svg width="531" height="491" viewBox="0 0 531 491" fill="none" xmlns="http://www.w3.org/2000/svg">
<path d="M269.95 408.374C455.578 408.374 500.585 214.345 500.585 214.345C500.585 214.345 329.097 148.853 269.95 298.208L269.95 408.374Z" fill="url(#paint0_linear_1360_41155)"/>
<path d="M272.618 408.665C79.0455 419.908 28.0283 230.81 28.0283 230.81C28.0283 230.81 205.476 155.673 270.299 299.75L272.618 408.665Z" fill="url(#paint1_linear_1360_41155)"/>
<path d="M354.488 99.5516C354.488 75.0131 345.233 51.4797 328.761 34.1284C312.288 16.7772 289.946 7.0293 266.65 7.0293C243.354 7.0293 221.012 16.7771 204.54 34.1284C188.067 51.4797 178.813 75.0131 178.813 99.5516L266.65 99.5516H354.488Z" fill="url(#paint2_linear_1360_41155)"/>
<path d="M269.371 205.352V490.336" stroke="#517B3F" stroke-width="3"/>
<path d="M349.822 95.4228C356.38 -31.188 521.948 5.01178 522.096 8.14383C522.244 11.2759 525.132 231.915 267.391 212.815L265.819 96.9203L349.822 95.4228Z" fill="url(#paint3_linear_1360_41155)"/>
<path d="M183.779 98.3648C173.806 -27.7507 9.56112 14.2665 9.4978 17.3974C9.43448 20.5282 12.5286 240.814 269.219 212.58L267.649 96.8697L183.779 98.3648Z" fill="url(#paint4_linear_1360_41155)"/>
<defs>
<linearGradient id="paint0_linear_1360_41155" x1="421.149" y1="193.161" x2="347.327" y2="399.55" gradientUnits="userSpaceOnUse">
<stop offset="0.0913462" stop-color="#445C19"/>
<stop offset="0.653846" stop-color="#72A85A"/>
</linearGradient>
<linearGradient id="paint1_linear_1360_41155" x1="110.417" y1="205.055" x2="190.468" y2="405.138" gradientUnits="userSpaceOnUse">
<stop offset="0.0913462" stop-color="#445C19"/>
<stop offset="0.653846" stop-color="#72A85A"/>
</linearGradient>
<linearGradient id="paint2_linear_1360_41155" x1="266.65" y1="7.0293" x2="266.65" y2="192.074" gradientUnits="userSpaceOnUse">
<stop offset="0.100962" stop-color="#DF6DB7"/>
<stop offset="1" stop-color="#B85172"/>
</linearGradient>
<linearGradient id="paint3_linear_1360_41155" x1="393.278" y1="2.29531" x2="397.021" y2="212.283" gradientUnits="userSpaceOnUse">
<stop offset="0.100962" stop-color="#DF6DB7"/>
<stop offset="1" stop-color="#B85172"/>
</linearGradient>
<linearGradient id="paint4_linear_1360_41155" x1="137.891" y1="6.97645" x2="141.628" y2="216.632" gradientUnits="userSpaceOnUse">
<stop offset="0.100962" stop-color="#DF6DB7"/>
<stop offset="1" stop-color="#B85172"/>
</linearGradient>
</defs>
</svg>
