<svg width="271" height="362" viewBox="0 0 271 362" fill="none" xmlns="http://www.w3.org/2000/svg">
<path d="M135.401 304.923C231.947 304.923 255.356 170.654 255.356 170.654C255.356 170.654 166.164 125.333 135.401 228.687L135.401 304.923Z" fill="url(#paint0_linear_2193_130343)"/>
<path d="M136.789 305.124C36.111 312.905 9.57676 182.047 9.57676 182.047C9.57676 182.047 101.868 130.053 135.583 229.754L136.789 305.124Z" fill="url(#paint1_linear_2193_130343)"/>
<path d="M135.104 164.432V361.642" stroke="#517B3F" stroke-width="3"/>
<path d="M116.073 91.618C118.224 91.6262 120.291 90.7258 121.818 89.1149C123.345 87.5041 124.208 85.3147 124.217 83.0285C124.226 80.7422 123.38 78.5464 121.865 76.924C120.35 75.3017 118.29 74.3856 116.139 74.3775L116.106 82.9978L116.073 91.618Z" fill="url(#paint2_linear_2193_130343)"/>
<path d="M116.649 91.811C127.656 94.1389 124.642 109.061 124.363 109.075C124.083 109.089 104.403 109.308 106.212 83.5268L116.55 83.4059L116.649 91.811Z" fill="url(#paint3_linear_2193_130343)"/>
<path d="M116.507 74.9383C127.798 74.0636 124.255 57.2533 123.975 57.2433C123.695 57.2333 103.991 57.2992 106.181 83.5285L116.531 83.4996L116.507 74.9383Z" fill="url(#paint4_linear_2193_130343)"/>
<path d="M143.845 102.219C143.853 100.077 142.949 98.0197 141.331 96.4992C139.713 94.9787 137.514 94.1196 135.217 94.1109C132.921 94.1022 130.715 94.9446 129.086 96.4529C127.456 97.9611 126.536 100.012 126.528 102.153L135.186 102.186L143.845 102.219Z" fill="url(#paint5_linear_2193_130343)"/>
<path d="M144.042 101.646C146.38 90.6872 161.368 93.6876 161.382 93.9657C161.396 94.2439 161.617 113.837 135.721 112.036L135.6 101.744L144.042 101.646Z" fill="url(#paint6_linear_2193_130343)"/>
<path d="M127.088 101.78C126.209 90.5385 109.324 94.0659 109.314 94.3445C109.304 94.6232 109.37 114.24 135.716 112.06L135.687 101.756L127.088 101.78Z" fill="url(#paint7_linear_2193_130343)"/>
<path d="M156.001 74.9132C153.85 74.9051 151.783 75.8055 150.256 77.4163C148.729 79.0272 147.866 81.2165 147.857 83.5028C147.848 85.789 148.695 87.9848 150.21 89.6072C151.724 91.2296 153.784 92.1456 155.935 92.1538L155.968 83.5335L156.001 74.9132Z" fill="url(#paint8_linear_2193_130343)"/>
<path d="M155.429 74.7163C144.422 72.3884 147.436 57.4666 147.715 57.4527C147.995 57.4388 167.675 57.2192 165.866 83.0005L155.529 83.1215L155.429 74.7163Z" fill="url(#paint9_linear_2193_130343)"/>
<path d="M155.566 91.591C144.274 92.4657 147.817 109.276 148.097 109.286C148.377 109.296 168.081 109.23 165.892 83.0007L155.542 83.0297L155.566 91.591Z" fill="url(#paint10_linear_2193_130343)"/>
<path d="M126.022 64.8847C126.014 67.0264 126.919 69.0838 128.537 70.6043C130.155 72.1248 132.354 72.9839 134.65 72.9926C136.946 73.0013 139.152 72.1589 140.782 70.6506C142.411 69.1424 143.331 67.0919 143.339 64.9503L134.681 64.9175L126.022 64.8847Z" fill="url(#paint11_linear_2193_130343)"/>
<path d="M125.814 65.4617C123.476 76.4202 108.488 73.4199 108.474 73.1417C108.46 72.8635 108.24 53.2701 134.135 55.0712L134.257 65.363L125.814 65.4617Z" fill="url(#paint12_linear_2193_130343)"/>
<path d="M142.771 65.3215C143.65 76.5631 160.535 73.0357 160.545 72.757C160.555 72.4783 160.489 52.8613 134.143 55.0413L134.172 65.3455L142.771 65.3215Z" fill="url(#paint13_linear_2193_130343)"/>
<path d="M76.1536 64.6313C69.7759 64.5789 63.643 66.5026 59.1042 69.9793C54.5654 73.456 51.9924 78.2008 51.9512 83.17C51.91 88.1391 54.404 92.9256 58.8846 96.4764C63.3652 100.027 69.4653 102.051 75.843 102.104L75.9983 83.3675L76.1536 64.6313Z" fill="url(#paint14_linear_2193_130343)"/>
<path d="M75.1166 64.5637C41.97 62.8767 51.7465 27.238 52.567 27.2127C53.3875 27.1874 111.176 27.0393 105.713 82.5984L75.3586 82.6882L75.1166 64.5637Z" fill="url(#paint15_linear_2193_130343)"/>
<path d="M74.6375 99.9635C40.8993 101.665 51.3752 137.968 52.2114 137.995C53.0475 138.021 111.913 138.201 105.541 81.6105L74.6207 81.5033L74.6375 99.9635Z" fill="url(#paint16_linear_2193_130343)"/>
<path d="M195.161 103.396C201.539 103.396 207.656 101.422 212.166 97.9078C216.675 94.3939 219.209 89.6281 219.209 84.6588C219.209 79.6894 216.675 74.9236 212.166 71.4098C207.656 67.8959 201.539 65.9219 195.161 65.9219L195.161 84.6588L195.161 103.396Z" fill="url(#paint17_linear_2193_130343)"/>
<path d="M196.195 103.451C229.355 104.865 219.874 140.583 219.054 140.615C218.233 140.647 160.448 141.27 165.45 85.668L195.803 85.3288L196.195 103.451Z" fill="url(#paint18_linear_2193_130343)"/>
<path d="M196.386 68.0502C230.109 66.072 219.333 29.8554 218.497 29.8361C217.66 29.8168 158.796 30.1197 165.636 86.6564L196.556 86.5096L196.386 68.0502Z" fill="url(#paint19_linear_2193_130343)"/>
<path d="M155.216 26.0488C155.269 19.6993 153.336 13.5936 149.844 9.07484C146.352 4.55608 141.586 1.99443 136.595 1.95343C131.604 1.91242 126.796 4.39543 123.229 8.8562C119.663 13.317 117.63 19.3901 117.577 25.7396L136.396 25.8942L155.216 26.0488Z" fill="url(#paint20_linear_2193_130343)"/>
<path d="M155.284 25.0185C156.978 -7.98146 192.775 1.75174 192.801 2.56864C192.826 3.38553 192.975 60.9187 137.169 55.4798L137.079 25.2595L155.284 25.0185Z" fill="url(#paint21_linear_2193_130343)"/>
<path d="M119.717 24.5394C118.023 -9.04981 81.5533 1.37626 81.5267 2.2087C81.5 3.04115 81.2938 61.6459 138.139 55.3079L138.259 24.5245L119.717 24.5394Z" fill="url(#paint22_linear_2193_130343)"/>
<path d="M115.604 140.576C115.552 146.926 117.484 153.031 120.976 157.55C124.468 162.069 129.234 164.631 134.225 164.672C139.217 164.713 144.024 162.23 147.591 157.769C151.157 153.308 153.191 147.235 153.243 140.885L134.424 140.731L115.604 140.576Z" fill="url(#paint23_linear_2193_130343)"/>
<path d="M115.533 141.601C113.838 174.601 78.0412 164.867 78.0158 164.051C77.9904 163.234 77.8417 105.7 133.647 111.139L133.738 141.36L115.533 141.601Z" fill="url(#paint24_linear_2193_130343)"/>
<path d="M151.086 142.084C152.795 175.673 189.26 165.243 189.286 164.411C189.312 163.578 189.494 104.973 132.651 111.317L132.544 142.1L151.086 142.084Z" fill="url(#paint25_linear_2193_130343)"/>
<defs>
<linearGradient id="paint0_linear_2193_130343" x1="214.041" y1="155.994" x2="151.532" y2="287.341" gradientUnits="userSpaceOnUse">
<stop offset="0.0913462" stop-color="#445C19"/>
<stop offset="0.653846" stop-color="#72A85A"/>
</linearGradient>
<linearGradient id="paint1_linear_2193_130343" x1="52.4277" y1="164.225" x2="119.051" y2="289.382" gradientUnits="userSpaceOnUse">
<stop offset="0.0913462" stop-color="#445C19"/>
<stop offset="0.653846" stop-color="#72A85A"/>
</linearGradient>
<linearGradient id="paint2_linear_2193_130343" x1="124.217" y1="83.0285" x2="107.995" y2="82.9665" gradientUnits="userSpaceOnUse">
<stop offset="0.288462" stop-color="#EADA9D"/>
<stop offset="1" stop-color="#DAC169"/>
</linearGradient>
<linearGradient id="paint3_linear_2193_130343" x1="124.853" y1="96.189" x2="106.205" y2="96.4091" gradientUnits="userSpaceOnUse">
<stop offset="0.288462" stop-color="#EADA9D"/>
<stop offset="1" stop-color="#DAC169"/>
</linearGradient>
<linearGradient id="paint4_linear_2193_130343" x1="124.739" y1="70.3587" x2="105.985" y2="70.4116" gradientUnits="userSpaceOnUse">
<stop offset="0.288462" stop-color="#EADA9D"/>
<stop offset="1" stop-color="#DAC169"/>
</linearGradient>
<linearGradient id="paint5_linear_2193_130343" x1="135.217" y1="94.1109" x2="135.156" y2="110.261" gradientUnits="userSpaceOnUse">
<stop offset="0.288462" stop-color="#EADA9D"/>
<stop offset="1" stop-color="#DAC169"/>
</linearGradient>
<linearGradient id="paint6_linear_2193_130343" x1="148.44" y1="93.4776" x2="148.657" y2="112.043" gradientUnits="userSpaceOnUse">
<stop offset="0.288462" stop-color="#EADA9D"/>
<stop offset="1" stop-color="#DAC169"/>
</linearGradient>
<linearGradient id="paint7_linear_2193_130343" x1="122.488" y1="93.5837" x2="122.54" y2="112.255" gradientUnits="userSpaceOnUse">
<stop offset="0.288462" stop-color="#EADA9D"/>
<stop offset="1" stop-color="#DAC169"/>
</linearGradient>
<linearGradient id="paint8_linear_2193_130343" x1="147.857" y1="83.5028" x2="164.079" y2="83.5647" gradientUnits="userSpaceOnUse">
<stop offset="0.288462" stop-color="#EADA9D"/>
<stop offset="1" stop-color="#DAC169"/>
</linearGradient>
<linearGradient id="paint9_linear_2193_130343" x1="147.225" y1="70.3383" x2="165.873" y2="70.1183" gradientUnits="userSpaceOnUse">
<stop offset="0.288462" stop-color="#EADA9D"/>
<stop offset="1" stop-color="#DAC169"/>
</linearGradient>
<linearGradient id="paint10_linear_2193_130343" x1="147.333" y1="96.1706" x2="166.087" y2="96.1177" gradientUnits="userSpaceOnUse">
<stop offset="0.288462" stop-color="#EADA9D"/>
<stop offset="1" stop-color="#DAC169"/>
</linearGradient>
<linearGradient id="paint11_linear_2193_130343" x1="134.65" y1="72.9926" x2="134.711" y2="56.8424" gradientUnits="userSpaceOnUse">
<stop offset="0.288462" stop-color="#EADA9D"/>
<stop offset="1" stop-color="#DAC169"/>
</linearGradient>
<linearGradient id="paint12_linear_2193_130343" x1="121.417" y1="73.6298" x2="121.2" y2="55.0645" gradientUnits="userSpaceOnUse">
<stop offset="0.288462" stop-color="#EADA9D"/>
<stop offset="1" stop-color="#DAC169"/>
</linearGradient>
<linearGradient id="paint13_linear_2193_130343" x1="147.371" y1="73.5179" x2="147.319" y2="54.8462" gradientUnits="userSpaceOnUse">
<stop offset="0.288462" stop-color="#EADA9D"/>
<stop offset="1" stop-color="#DAC169"/>
</linearGradient>
<linearGradient id="paint14_linear_2193_130343" x1="51.9512" y1="83.17" x2="100.045" y2="83.5686" gradientUnits="userSpaceOnUse">
<stop offset="0.100962" stop-color="#DF6DB7"/>
<stop offset="1" stop-color="#B85172"/>
</linearGradient>
<linearGradient id="paint15_linear_2193_130343" x1="50.805" y1="54.9889" x2="105.801" y2="54.2546" gradientUnits="userSpaceOnUse">
<stop offset="0.100962" stop-color="#DF6DB7"/>
<stop offset="1" stop-color="#B85172"/>
</linearGradient>
<linearGradient id="paint16_linear_2193_130343" x1="50.0131" y1="109.703" x2="106.041" y2="109.652" gradientUnits="userSpaceOnUse">
<stop offset="0.100962" stop-color="#DF6DB7"/>
<stop offset="1" stop-color="#B85172"/>
</linearGradient>
<linearGradient id="paint17_linear_2193_130343" x1="219.209" y1="84.6588" x2="171.113" y2="84.6588" gradientUnits="userSpaceOnUse">
<stop offset="0.100962" stop-color="#DF6DB7"/>
<stop offset="1" stop-color="#B85172"/>
</linearGradient>
<linearGradient id="paint18_linear_2193_130343" x1="220.585" y1="112.825" x2="165.598" y2="114.015" gradientUnits="userSpaceOnUse">
<stop offset="0.100962" stop-color="#DF6DB7"/>
<stop offset="1" stop-color="#B85172"/>
</linearGradient>
<linearGradient id="paint19_linear_2193_130343" x1="220.929" y1="58.1087" x2="164.904" y2="58.6242" gradientUnits="userSpaceOnUse">
<stop offset="0.100962" stop-color="#DF6DB7"/>
<stop offset="1" stop-color="#B85172"/>
</linearGradient>
<linearGradient id="paint20_linear_2193_130343" x1="136.595" y1="1.95343" x2="136.202" y2="49.835" gradientUnits="userSpaceOnUse">
<stop offset="0.100962" stop-color="#DF6DB7"/>
<stop offset="1" stop-color="#B85172"/>
</linearGradient>
<linearGradient id="paint21_linear_2193_130343" x1="164.901" y1="0.814436" x2="165.626" y2="55.5672" gradientUnits="userSpaceOnUse">
<stop offset="0.100962" stop-color="#DF6DB7"/>
<stop offset="1" stop-color="#B85172"/>
</linearGradient>
<linearGradient id="paint22_linear_2193_130343" x1="109.945" y1="0.022898" x2="109.99" y2="55.8032" gradientUnits="userSpaceOnUse">
<stop offset="0.100962" stop-color="#DF6DB7"/>
<stop offset="1" stop-color="#B85172"/>
</linearGradient>
<linearGradient id="paint23_linear_2193_130343" x1="134.225" y1="164.672" x2="134.619" y2="116.79" gradientUnits="userSpaceOnUse">
<stop offset="0.100962" stop-color="#DF6DB7"/>
<stop offset="1" stop-color="#B85172"/>
</linearGradient>
<linearGradient id="paint24_linear_2193_130343" x1="105.915" y1="165.805" x2="105.191" y2="111.052" gradientUnits="userSpaceOnUse">
<stop offset="0.100962" stop-color="#DF6DB7"/>
<stop offset="1" stop-color="#B85172"/>
</linearGradient>
<linearGradient id="paint25_linear_2193_130343" x1="160.869" y1="166.599" x2="160.818" y2="110.819" gradientUnits="userSpaceOnUse">
<stop offset="0.100962" stop-color="#DF6DB7"/>
<stop offset="1" stop-color="#B85172"/>
</linearGradient>
</defs>
</svg>
