<svg width="306" height="375" viewBox="0 0 306 375" fill="none" xmlns="http://www.w3.org/2000/svg">
<path d="M155.429 317.862C262.309 317.862 288.223 183.593 288.223 183.593C288.223 183.593 189.485 138.272 155.429 241.627L155.429 317.862Z" fill="url(#paint0_linear_2193_130344)"/>
<path d="M156.965 318.063C45.5108 325.844 16.1364 194.987 16.1364 194.987C16.1364 194.987 118.306 142.992 155.63 242.694L156.965 318.063Z" fill="url(#paint1_linear_2193_130344)"/>
<path d="M155.097 177.375V374.586" stroke="#517B3F" stroke-width="3"/>
<path d="M131.839 98.9685C134.139 98.9772 136.348 98.0111 137.981 96.2826C139.613 94.5541 140.536 92.2049 140.545 89.7517C140.554 87.2985 139.65 84.9423 138.03 83.2015C136.411 81.4606 134.209 80.4777 131.91 80.469L131.875 89.7187L131.839 98.9685Z" fill="url(#paint2_linear_2193_130344)"/>
<path d="M132.45 99.1759C144.216 101.674 140.995 117.685 140.696 117.7C140.397 117.715 119.36 117.951 121.294 90.2867L132.344 90.157L132.45 99.1759Z" fill="url(#paint3_linear_2193_130344)"/>
<path d="M132.3 81.0726C144.37 80.134 140.582 62.0963 140.283 62.0855C139.984 62.0748 118.921 62.1455 121.262 90.2902L132.325 90.2591L132.3 81.0726Z" fill="url(#paint4_linear_2193_130344)"/>
<path d="M161.526 110.344C161.535 108.046 160.568 105.839 158.839 104.207C157.109 102.576 154.758 101.654 152.303 101.645C149.849 101.635 147.491 102.539 145.749 104.158C144.007 105.776 143.024 107.976 143.015 110.274L152.271 110.309L161.526 110.344Z" fill="url(#paint5_linear_2193_130344)"/>
<path d="M161.735 109.725C164.235 97.9665 180.257 101.186 180.271 101.484C180.286 101.783 180.522 122.807 152.841 120.874L152.711 109.831L161.735 109.725Z" fill="url(#paint6_linear_2193_130344)"/>
<path d="M143.614 109.872C142.674 97.8091 124.625 101.594 124.615 101.893C124.604 102.192 124.674 123.242 152.837 120.902L152.806 109.846L143.614 109.872Z" fill="url(#paint7_linear_2193_130344)"/>
<path d="M174.524 81.0452C172.224 81.0364 170.015 82.0026 168.383 83.7311C166.75 85.4596 165.828 87.8088 165.818 90.262C165.809 92.7152 166.714 95.0713 168.333 96.8122C169.952 98.553 172.154 99.5359 174.453 99.5447L174.489 90.2949L174.524 81.0452Z" fill="url(#paint8_linear_2193_130344)"/>
<path d="M173.909 80.8339C162.143 78.336 165.365 62.3245 165.663 62.3096C165.962 62.2947 187 62.0591 185.066 89.723L174.015 89.8528L173.909 80.8339Z" fill="url(#paint9_linear_2193_130344)"/>
<path d="M174.053 98.9391C161.983 99.8777 165.77 117.915 166.069 117.926C166.369 117.937 187.431 117.866 185.091 89.7216L174.027 89.7526L174.053 98.9391Z" fill="url(#paint10_linear_2193_130344)"/>
<path d="M142.472 70.2844C142.463 72.5825 143.43 74.7901 145.16 76.4216C146.889 78.0532 149.24 78.975 151.695 78.9844C154.149 78.9937 156.507 78.0897 158.249 76.4714C159.991 74.853 160.974 72.6528 160.983 70.3548L151.728 70.3196L142.472 70.2844Z" fill="url(#paint11_linear_2193_130344)"/>
<path d="M142.259 70.8978C139.759 82.6565 123.738 79.4371 123.723 79.1386C123.708 78.8401 123.472 57.8159 151.154 59.7485L151.283 70.7919L142.259 70.8978Z" fill="url(#paint12_linear_2193_130344)"/>
<path d="M160.375 70.7535C161.314 82.8159 179.363 79.031 179.374 78.732C179.385 78.433 179.314 57.3835 151.151 59.7226L151.182 70.7793L160.375 70.7535Z" fill="url(#paint13_linear_2193_130344)"/>
<path d="M89.1653 70.0109C82.3478 69.9547 75.792 72.0189 70.9402 75.7495C66.0884 79.48 63.3379 84.5713 63.2939 89.9034C63.2499 95.2354 65.9159 100.371 70.7055 104.181C75.495 107.992 82.0158 110.164 88.8333 110.22L88.9993 90.1153L89.1653 70.0109Z" fill="url(#paint14_linear_2193_130344)"/>
<path d="M88.0556 69.9361C52.6233 68.1259 63.0739 29.8848 63.951 29.8577C64.8281 29.8305 126.602 29.6716 120.762 89.2878L88.3142 89.3842L88.0556 69.9361Z" fill="url(#paint15_linear_2193_130344)"/>
<path d="M87.5454 107.925C51.4806 109.75 62.679 148.705 63.5728 148.733C64.4666 148.761 127.391 148.955 120.58 88.2319L87.5274 88.117L87.5454 107.925Z" fill="url(#paint16_linear_2193_130344)"/>
<g filter="url(#filter0_f_2193_130344)">
<path d="M216.381 111.603C223.198 111.603 229.737 109.485 234.558 105.714C239.379 101.944 242.087 96.8299 242.087 91.4977C242.087 86.1655 239.379 81.0517 234.558 77.2812C229.737 73.5108 223.198 71.3926 216.381 71.3926L216.381 91.4977L216.381 111.603Z" fill="url(#paint17_linear_2193_130344)"/>
<path d="M217.49 111.665C252.936 113.183 242.802 151.509 241.925 151.543C241.048 151.578 179.278 152.246 184.625 92.5836L217.071 92.2196L217.49 111.665Z" fill="url(#paint18_linear_2193_130344)"/>
<path d="M217.692 73.6815C253.74 71.5588 242.22 32.6976 241.326 32.6769C240.432 32.6562 177.509 32.9812 184.821 93.6464L217.873 93.4888L217.692 73.6815Z" fill="url(#paint19_linear_2193_130344)"/>
<path d="M173.681 28.6126C173.737 21.7994 171.671 15.2479 167.938 10.3991C164.205 5.55039 159.111 2.80168 153.775 2.75768C148.44 2.71369 143.301 5.37801 139.488 10.1645C135.676 14.951 133.502 21.4677 133.446 28.2808L153.563 28.4467L173.681 28.6126Z" fill="url(#paint20_linear_2193_130344)"/>
<path d="M173.757 27.5012C175.568 -7.90853 213.834 2.53542 213.861 3.41196C213.888 4.28851 214.047 66.0229 154.393 60.1868L154.297 27.7597L173.757 27.5012Z" fill="url(#paint21_linear_2193_130344)"/>
<path d="M135.736 26.9895C133.924 -9.05245 94.9401 2.13496 94.9116 3.02819C94.8831 3.92142 94.6626 66.8057 155.427 60.0048L155.556 26.9735L135.736 26.9895Z" fill="url(#paint22_linear_2193_130344)"/>
<path d="M131.337 151.499C131.281 158.312 133.346 164.863 137.079 169.712C140.812 174.561 145.907 177.31 151.242 177.354C156.578 177.398 161.717 174.733 165.529 169.947C169.342 165.16 171.515 158.644 171.571 151.831L151.454 151.665L131.337 151.499Z" fill="url(#paint23_linear_2193_130344)"/>
<path d="M131.26 152.598C129.448 188.008 91.1829 177.564 91.1557 176.688C91.1286 175.811 90.9695 114.077 150.624 119.913L150.72 152.34L131.26 152.598Z" fill="url(#paint24_linear_2193_130344)"/>
<path d="M169.269 153.118C171.095 189.16 210.075 177.968 210.103 177.075C210.131 176.182 210.325 113.298 149.563 120.104L149.448 153.136L169.269 153.118Z" fill="url(#paint25_linear_2193_130344)"/>
</g>
<defs>
<filter id="filter0_f_2193_130344" x="90.4581" y="-0.000919819" width="154.164" height="180.105" filterUnits="userSpaceOnUse" color-interpolation-filters="sRGB">
<feFlood flood-opacity="0" result="BackgroundImageFix"/>
<feBlend mode="normal" in="SourceGraphic" in2="BackgroundImageFix" result="shape"/>
<feGaussianBlur stdDeviation="0.348116" result="effect1_foregroundBlur_2193_130344"/>
</filter>
<linearGradient id="paint0_linear_2193_130344" x1="242.486" y1="168.934" x2="184.035" y2="304.901" gradientUnits="userSpaceOnUse">
<stop offset="0.0913462" stop-color="#445C19"/>
<stop offset="0.653846" stop-color="#72A85A"/>
</linearGradient>
<linearGradient id="paint1_linear_2193_130344" x1="63.574" y1="177.164" x2="126.305" y2="307.622" gradientUnits="userSpaceOnUse">
<stop offset="0.0913462" stop-color="#445C19"/>
<stop offset="0.653846" stop-color="#72A85A"/>
</linearGradient>
<linearGradient id="paint2_linear_2193_130344" x1="140.545" y1="89.7517" x2="123.204" y2="89.6857" gradientUnits="userSpaceOnUse">
<stop offset="0.100962" stop-color="#DF6DB7"/>
<stop offset="1" stop-color="#B85172"/>
</linearGradient>
<linearGradient id="paint3_linear_2193_130344" x1="141.22" y1="103.874" x2="121.286" y2="104.108" gradientUnits="userSpaceOnUse">
<stop offset="0.100962" stop-color="#DF6DB7"/>
<stop offset="1" stop-color="#B85172"/>
</linearGradient>
<linearGradient id="paint4_linear_2193_130344" x1="141.1" y1="76.1586" x2="121.052" y2="76.215" gradientUnits="userSpaceOnUse">
<stop offset="0.100962" stop-color="#DF6DB7"/>
<stop offset="1" stop-color="#B85172"/>
</linearGradient>
<linearGradient id="paint5_linear_2193_130344" x1="152.303" y1="101.645" x2="152.238" y2="118.974" gradientUnits="userSpaceOnUse">
<stop offset="0.100962" stop-color="#DF6DB7"/>
<stop offset="1" stop-color="#B85172"/>
</linearGradient>
<linearGradient id="paint6_linear_2193_130344" x1="166.436" y1="100.961" x2="166.67" y2="120.882" gradientUnits="userSpaceOnUse">
<stop offset="0.100962" stop-color="#DF6DB7"/>
<stop offset="1" stop-color="#B85172"/>
</linearGradient>
<linearGradient id="paint7_linear_2193_130344" x1="138.697" y1="101.077" x2="138.753" y2="121.112" gradientUnits="userSpaceOnUse">
<stop offset="0.100962" stop-color="#DF6DB7"/>
<stop offset="1" stop-color="#B85172"/>
</linearGradient>
<linearGradient id="paint8_linear_2193_130344" x1="165.818" y1="90.262" x2="183.159" y2="90.328" gradientUnits="userSpaceOnUse">
<stop offset="0.100962" stop-color="#DF6DB7"/>
<stop offset="1" stop-color="#B85172"/>
</linearGradient>
<linearGradient id="paint9_linear_2193_130344" x1="165.139" y1="76.1362" x2="185.073" y2="75.9018" gradientUnits="userSpaceOnUse">
<stop offset="0.100962" stop-color="#DF6DB7"/>
<stop offset="1" stop-color="#B85172"/>
</linearGradient>
<linearGradient id="paint10_linear_2193_130344" x1="165.252" y1="103.853" x2="185.3" y2="103.797" gradientUnits="userSpaceOnUse">
<stop offset="0.100962" stop-color="#DF6DB7"/>
<stop offset="1" stop-color="#B85172"/>
</linearGradient>
<linearGradient id="paint11_linear_2193_130344" x1="151.695" y1="78.9844" x2="151.76" y2="61.6548" gradientUnits="userSpaceOnUse">
<stop offset="0.100962" stop-color="#DF6DB7"/>
<stop offset="1" stop-color="#B85172"/>
</linearGradient>
<linearGradient id="paint12_linear_2193_130344" x1="137.558" y1="79.6623" x2="137.324" y2="59.7414" gradientUnits="userSpaceOnUse">
<stop offset="0.100962" stop-color="#DF6DB7"/>
<stop offset="1" stop-color="#B85172"/>
</linearGradient>
<linearGradient id="paint13_linear_2193_130344" x1="165.292" y1="79.5484" x2="165.235" y2="59.5133" gradientUnits="userSpaceOnUse">
<stop offset="0.100962" stop-color="#DF6DB7"/>
<stop offset="1" stop-color="#B85172"/>
</linearGradient>
<linearGradient id="paint14_linear_2193_130344" x1="114.717" y1="88.817" x2="78.1179" y2="66.7768" gradientUnits="userSpaceOnUse">
<stop offset="0.120192" stop-color="#ABD2CB"/>
<stop offset="0.552885" stop-color="#78BEB2"/>
</linearGradient>
<linearGradient id="paint15_linear_2193_130344" x1="120.834" y1="57.249" x2="73.4217" y2="36.287" gradientUnits="userSpaceOnUse">
<stop offset="0.120192" stop-color="#ABD2CB"/>
<stop offset="0.552885" stop-color="#78BEB2"/>
</linearGradient>
<linearGradient id="paint16_linear_2193_130344" x1="121.117" y1="120.864" x2="73.3419" y2="142.662" gradientUnits="userSpaceOnUse">
<stop offset="0.120192" stop-color="#ABD2CB"/>
<stop offset="0.552885" stop-color="#78BEB2"/>
</linearGradient>
<linearGradient id="paint17_linear_2193_130344" x1="190.674" y1="93.0081" x2="227.455" y2="114.746" gradientUnits="userSpaceOnUse">
<stop offset="0.120192" stop-color="#ABD2CB"/>
<stop offset="0.552885" stop-color="#78BEB2"/>
</linearGradient>
<linearGradient id="paint18_linear_2193_130344" x1="184.818" y1="124.622" x2="232.402" y2="145.192" gradientUnits="userSpaceOnUse">
<stop offset="0.120192" stop-color="#ABD2CB"/>
<stop offset="0.552885" stop-color="#78BEB2"/>
</linearGradient>
<linearGradient id="paint19_linear_2193_130344" x1="184.015" y1="61.0197" x2="231.608" y2="38.8284" gradientUnits="userSpaceOnUse">
<stop offset="0.120192" stop-color="#ABD2CB"/>
<stop offset="0.552885" stop-color="#78BEB2"/>
</linearGradient>
<linearGradient id="paint20_linear_2193_130344" x1="154.863" y1="54.1482" x2="176.876" y2="17.5475" gradientUnits="userSpaceOnUse">
<stop offset="0.120192" stop-color="#ABD2CB"/>
<stop offset="0.552885" stop-color="#78BEB2"/>
</linearGradient>
<linearGradient id="paint21_linear_2193_130344" x1="186.452" y1="60.2588" x2="207.383" y2="12.857" gradientUnits="userSpaceOnUse">
<stop offset="0.120192" stop-color="#ABD2CB"/>
<stop offset="0.552885" stop-color="#78BEB2"/>
</linearGradient>
<linearGradient id="paint22_linear_2193_130344" x1="122.774" y1="60.5383" x2="101.019" y2="12.7754" gradientUnits="userSpaceOnUse">
<stop offset="0.120192" stop-color="#ABD2CB"/>
<stop offset="0.552885" stop-color="#78BEB2"/>
</linearGradient>
<linearGradient id="paint23_linear_2193_130344" x1="150.155" y1="125.963" x2="128.142" y2="162.564" gradientUnits="userSpaceOnUse">
<stop offset="0.120192" stop-color="#ABD2CB"/>
<stop offset="0.552885" stop-color="#78BEB2"/>
</linearGradient>
<linearGradient id="paint24_linear_2193_130344" x1="118.564" y1="119.841" x2="97.6337" y2="167.243" gradientUnits="userSpaceOnUse">
<stop offset="0.120192" stop-color="#ABD2CB"/>
<stop offset="0.552885" stop-color="#78BEB2"/>
</linearGradient>
<linearGradient id="paint25_linear_2193_130344" x1="182.216" y1="119.568" x2="203.982" y2="167.333" gradientUnits="userSpaceOnUse">
<stop offset="0.120192" stop-color="#ABD2CB"/>
<stop offset="0.552885" stop-color="#78BEB2"/>
</linearGradient>
</defs>
</svg>
