<svg width="247" height="436" viewBox="0 0 247 436" fill="none" xmlns="http://www.w3.org/2000/svg">
<path d="M246.558 122.773C246.558 209.694 212.065 154 147.424 154C82.784 154 0.000431359 258.306 0.00292974 128.57C0.00292974 82.6983 48.2906 28.769 122.161 31.9891C186.802 31.9891 246.558 76.9014 246.558 122.773Z" fill="#ECB3C6"/>
<path d="M0 139.516H246.235V435.048H0V139.516Z" fill="#ECB3C6"/>
<path d="M121.846 31.907V20.9614C121.846 20.9614 112.89 19.0358 113.212 9.69382C113.533 0.351864 125.683 -3.19004 133.998 10.9815" stroke="black" stroke-width="3"/>
<path d="M87.718 179.145H89.632V191.82H97.2687V179.145H99.1926V191.82H100.667V196.576H98.8703V193.5H87.718V179.145ZM101.8 183.041H106.254C107.53 183.041 108.483 183.279 109.115 183.754C109.753 184.229 110.072 184.919 110.072 185.824C110.072 186.306 109.955 186.713 109.72 187.045C109.486 187.377 109.177 187.67 108.793 187.924C109.346 188.132 109.785 188.432 110.111 188.822C110.436 189.213 110.599 189.717 110.599 190.336C110.599 190.824 110.518 191.264 110.355 191.654C110.192 192.045 109.945 192.377 109.613 192.65C109.281 192.924 108.858 193.135 108.343 193.285C107.836 193.428 107.233 193.5 106.537 193.5H101.8V183.041ZM103.597 192.064H106.332C106.807 192.064 107.201 192.029 107.513 191.957C107.832 191.879 108.086 191.768 108.275 191.625C108.464 191.482 108.597 191.309 108.675 191.107C108.754 190.906 108.793 190.678 108.793 190.424C108.793 190.17 108.754 189.942 108.675 189.74C108.597 189.532 108.464 189.359 108.275 189.223C108.086 189.079 107.832 188.972 107.513 188.9C107.201 188.822 106.807 188.783 106.332 188.783H103.597V192.064ZM103.597 187.465H106.312C106.918 187.465 107.396 187.344 107.748 187.104C108.099 186.863 108.275 186.488 108.275 185.98C108.275 185.694 108.226 185.456 108.129 185.268C108.031 185.072 107.901 184.916 107.738 184.799C107.575 184.682 107.39 184.6 107.181 184.555C106.979 184.503 106.771 184.477 106.556 184.477H103.597V187.465ZM121.264 190.16C121.192 190.616 121.036 191.062 120.795 191.498C120.554 191.934 120.238 192.325 119.848 192.67C119.457 193.015 118.995 193.292 118.461 193.5C117.934 193.715 117.348 193.822 116.703 193.822C116 193.822 115.349 193.708 114.75 193.48C114.158 193.246 113.643 192.898 113.207 192.436C112.777 191.967 112.439 191.381 112.191 190.678C111.944 189.975 111.82 189.148 111.82 188.197C111.82 187.559 111.889 186.983 112.025 186.469C112.169 185.948 112.357 185.486 112.592 185.082C112.833 184.672 113.109 184.32 113.422 184.027C113.734 183.728 114.063 183.484 114.408 183.295C114.76 183.1 115.118 182.956 115.482 182.865C115.847 182.768 116.199 182.719 116.537 182.719C117.253 182.719 117.908 182.826 118.5 183.041C119.092 183.256 119.6 183.585 120.023 184.027C120.453 184.464 120.785 185.014 121.02 185.678C121.26 186.335 121.381 187.11 121.381 188.002V188.9H113.734C113.741 189.408 113.812 189.87 113.949 190.287C114.086 190.697 114.281 191.049 114.535 191.342C114.789 191.635 115.095 191.863 115.453 192.025C115.818 192.182 116.228 192.26 116.684 192.26C117.146 192.26 117.536 192.195 117.855 192.064C118.174 191.934 118.441 191.768 118.656 191.566C118.871 191.365 119.044 191.14 119.174 190.893C119.311 190.645 119.424 190.401 119.516 190.16H121.264ZM119.574 187.465C119.561 186.957 119.483 186.505 119.34 186.107C119.203 185.71 119.008 185.378 118.754 185.111C118.507 184.838 118.207 184.633 117.855 184.496C117.504 184.353 117.113 184.281 116.684 184.281C116.273 184.281 115.896 184.363 115.551 184.525C115.206 184.682 114.903 184.903 114.643 185.189C114.382 185.469 114.174 185.805 114.018 186.195C113.861 186.579 113.767 187.003 113.734 187.465H119.574ZM125.873 184.604H122.27V183.041H131.274V184.604H127.67V193.5H125.873V184.604ZM139.995 188.256C139.995 187.676 139.93 187.146 139.8 186.664C139.669 186.176 139.474 185.756 139.214 185.404C138.953 185.053 138.631 184.779 138.247 184.584C137.869 184.382 137.43 184.281 136.929 184.281C136.427 184.281 135.988 184.382 135.61 184.584C135.233 184.779 134.914 185.053 134.653 185.404C134.393 185.756 134.197 186.176 134.067 186.664C133.937 187.146 133.872 187.676 133.872 188.256C133.872 188.842 133.937 189.382 134.067 189.877C134.197 190.365 134.393 190.785 134.653 191.137C134.914 191.488 135.233 191.765 135.61 191.967C135.988 192.162 136.427 192.26 136.929 192.26C137.43 192.26 137.869 192.162 138.247 191.967C138.631 191.765 138.953 191.488 139.214 191.137C139.474 190.785 139.669 190.365 139.8 189.877C139.93 189.382 139.995 188.842 139.995 188.256ZM141.792 188.256C141.792 189.115 141.681 189.89 141.46 190.58C141.238 191.264 140.919 191.846 140.503 192.328C140.086 192.81 139.575 193.181 138.97 193.441C138.371 193.695 137.69 193.822 136.929 193.822C136.167 193.822 135.486 193.695 134.887 193.441C134.289 193.181 133.781 192.81 133.364 192.328C132.947 191.846 132.628 191.264 132.407 190.58C132.186 189.89 132.075 189.115 132.075 188.256C132.075 187.41 132.186 186.645 132.407 185.961C132.628 185.277 132.947 184.695 133.364 184.213C133.781 183.731 134.289 183.363 134.887 183.109C135.486 182.849 136.167 182.719 136.929 182.719C137.69 182.719 138.371 182.849 138.97 183.109C139.575 183.363 140.086 183.731 140.503 184.213C140.919 184.695 141.238 185.277 141.46 185.961C141.681 186.645 141.792 187.41 141.792 188.256ZM150.464 184.604H146.46L146.382 187.113C146.343 188.383 146.245 189.444 146.089 190.297C145.933 191.143 145.718 191.824 145.445 192.338C145.178 192.852 144.852 193.217 144.468 193.432C144.084 193.646 143.644 193.754 143.15 193.754C142.967 193.754 142.808 193.725 142.671 193.666C142.541 193.614 142.44 193.559 142.368 193.5V191.918C142.622 192.016 142.847 192.064 143.042 192.064C143.179 192.064 143.309 192.042 143.433 191.996C143.563 191.951 143.683 191.863 143.794 191.732C143.911 191.602 144.019 191.42 144.116 191.186C144.214 190.945 144.299 190.632 144.37 190.248C144.448 189.864 144.51 189.398 144.556 188.852C144.608 188.305 144.644 187.654 144.663 186.898L144.751 183.041H152.261V193.5H150.464V184.604ZM154.507 183.041H156.304V191.059H156.343L161.48 183.041H163.541V193.5H161.734V185.482H161.695L156.568 193.5H154.507V183.041ZM165.787 183.041H167.584V188.1L172.867 183.041H175.221L170.309 187.66L175.299 193.5H172.984L168.902 188.754L167.584 189.857V193.5H165.787V183.041Z" fill="black"/>
<path d="M122.807 156.112C129.172 165.025 129.87 171.327 130.355 176.695C126.172 176.969 120.15 174.798 113.785 165.885C107.42 156.972 107.102 148.71 106.876 144.746C109.49 145.281 116.442 147.198 122.807 156.112Z" fill="url(#paint0_linear_1975_15370)"/>
<path d="M145.534 165.959C138.858 174.729 134.504 175.641 130.181 176.792C130.124 172.338 130.61 164.683 137.285 155.914C143.96 147.144 150.135 145.825 153.339 145.138C153.14 148.418 152.209 157.19 145.534 165.959Z" fill="url(#paint1_linear_1975_15370)"/>
<path d="M147.121 144.027C140.446 152.796 134.86 152.684 130.537 153.835C130.48 149.381 128.066 138.329 134.742 129.559C141.417 120.79 150.475 122.85 153.679 122.162C153.48 125.443 153.796 135.257 147.121 144.027Z" fill="url(#paint2_linear_1975_15370)"/>
<path d="M113.985 144.534C120.864 153.342 126.128 152.734 130.534 153.835C130.546 149.306 133.296 138.436 126.417 129.628C119.538 120.82 110.351 123.059 107.087 122.412C107.323 125.743 107.106 135.726 113.985 144.534Z" fill="url(#paint3_linear_1975_15370)"/>
<path d="M122.64 120.289C127.704 111.54 135.371 112.233 139.45 120.289" stroke="url(#paint4_linear_1975_15370)" stroke-width="5"/>
<defs>
<linearGradient id="paint0_linear_1975_15370" x1="132.416" y1="169.567" x2="116.991" y2="177.463" gradientUnits="userSpaceOnUse">
<stop offset="0.225962" stop-color="#ABC67A"/>
<stop offset="0.625" stop-color="#699C53"/>
</linearGradient>
<linearGradient id="paint1_linear_1975_15370" x1="135.457" y1="179.198" x2="122.621" y2="165.79" gradientUnits="userSpaceOnUse">
<stop offset="0.225962" stop-color="#ABC67A"/>
<stop offset="0.625" stop-color="#699C53"/>
</linearGradient>
<linearGradient id="paint2_linear_1975_15370" x1="152.822" y1="121.172" x2="123.924" y2="146.199" gradientUnits="userSpaceOnUse">
<stop offset="0.100962" stop-color="#DF6DB7"/>
<stop offset="1" stop-color="#B85172"/>
</linearGradient>
<linearGradient id="paint3_linear_1975_15370" x1="107.948" y1="121.391" x2="137.129" y2="146.023" gradientUnits="userSpaceOnUse">
<stop offset="0.100962" stop-color="#DF6DB7"/>
<stop offset="1" stop-color="#B85172"/>
</linearGradient>
<linearGradient id="paint4_linear_1975_15370" x1="129.952" y1="120.289" x2="133.024" y2="114.45" gradientUnits="userSpaceOnUse">
<stop stop-color="#E5D8AB"/>
<stop offset="1" stop-color="#CEB24D"/>
</linearGradient>
</defs>
</svg>
