<svg width="496" height="510" viewBox="0 0 496 510" fill="none" xmlns="http://www.w3.org/2000/svg">
<path d="M305.701 259.907C311.245 219.057 382.738 217.23 382.738 217.23C382.738 217.23 401.294 257.695 345.53 264.493L305.701 259.907Z" fill="url(#paint0_linear_1429_4)"/>
<path d="M305.758 259.692C300.172 300.516 369.182 318.744 369.182 318.744C369.182 318.744 398.093 283.842 345.71 264.422L305.758 259.692Z" fill="url(#paint1_linear_1429_4)"/>
<g filter="url(#filter0_f_1429_4)">
<path d="M373.526 268.11C368.364 299.91 407.365 310.588 407.365 310.588C407.365 310.588 425.745 281.703 396.351 270.448L373.526 268.11Z" fill="url(#paint2_linear_1429_4)"/>
</g>
<g filter="url(#filter1_f_1429_4)">
<path d="M373.684 268.018C375.32 235.717 414.987 233.497 414.987 233.497C414.987 233.497 426.696 265.932 396.026 270.306L373.684 268.018Z" fill="url(#paint3_linear_1429_4)"/>
</g>
<path d="M445.793 264.33C452.703 265.038 459.224 266.889 463.923 269.477C468.621 272.064 471.111 275.175 470.845 278.126C470.58 281.077 467.58 283.625 462.506 285.211C457.432 286.797 450.7 287.291 443.79 286.583L444.791 275.457L445.793 264.33Z" fill="url(#paint4_linear_1429_4)"/>
<path d="M447.068 264.503C482.822 267.317 474.534 245.029 473.653 244.92C472.772 244.81 410.631 238.07 413.036 271.691L445.676 275.238L447.068 264.503Z" fill="url(#paint5_linear_1429_4)"/>
<path d="M445.374 285.577C481.552 290.471 468.018 310.823 467.117 310.742C466.216 310.661 402.897 303.993 413.284 271.122L446.545 274.617L445.374 285.577Z" fill="url(#paint6_linear_1429_4)"/>
<g filter="url(#filter2_f_1429_4)">
<path d="M256.967 249.394C255.39 249.227 253.818 249.701 252.596 250.713C251.374 251.724 250.604 253.19 250.453 254.788C250.303 256.386 250.786 257.985 251.795 259.233C252.804 260.481 254.257 261.276 255.834 261.443L256.401 255.419L256.967 249.394Z" fill="url(#paint7_linear_1429_4)"/>
</g>
<g filter="url(#filter3_f_1429_4)">
<path d="M256.543 249.209C248.616 246.754 251.766 236.548 251.971 236.559C252.177 236.57 266.626 237.896 263.676 255.785L256.086 255.093L256.543 249.209Z" fill="url(#paint8_linear_1429_4)"/>
</g>
<g filter="url(#filter4_f_1429_4)">
<path d="M255.579 261.019C247.242 260.782 248.783 272.801 248.987 272.829C249.192 272.857 263.648 274.292 263.693 255.789L256.1 255.031L255.579 261.019Z" fill="url(#paint9_linear_1429_4)"/>
</g>
<g filter="url(#filter5_f_1429_4)">
<path d="M237.255 239.9C237.115 241.397 237.649 242.903 238.74 244.088C239.831 245.272 241.389 246.038 243.073 246.217C244.757 246.396 246.428 245.972 247.718 245.04C249.008 244.108 249.812 242.744 249.953 241.247L243.604 240.574L237.255 239.9Z" fill="url(#paint10_linear_1429_4)"/>
</g>
<g filter="url(#filter6_f_1429_4)">
<path d="M237.07 240.285C234.665 247.771 223.861 244.547 223.868 244.351C223.876 244.156 224.947 230.44 243.827 233.645L243.269 240.85L237.07 240.285Z" fill="url(#paint11_linear_1429_4)"/>
</g>
<g filter="url(#filter7_f_1429_4)">
<path d="M249.512 241.456C249.448 249.382 262.055 248.185 262.08 247.99C262.105 247.796 263.291 234.076 243.83 233.62L243.203 240.827L249.512 241.456Z" fill="url(#paint12_linear_1429_4)"/>
</g>
<g filter="url(#filter8_f_1429_4)">
<path d="M226.623 258.072C228.2 258.24 229.772 257.765 230.994 256.754C232.215 255.742 232.986 254.276 233.136 252.679C233.287 251.081 232.804 249.482 231.795 248.234C230.786 246.986 229.333 246.191 227.756 246.023L227.189 252.048L226.623 258.072Z" fill="url(#paint13_linear_1429_4)"/>
</g>
<g filter="url(#filter9_f_1429_4)">
<path d="M227.016 258.256C234.943 260.711 231.793 270.917 231.587 270.906C231.381 270.894 216.933 269.569 219.882 251.68L227.472 252.372L227.016 258.256Z" fill="url(#paint14_linear_1429_4)"/>
</g>
<g filter="url(#filter10_f_1429_4)">
<path d="M227.987 246.444C236.324 246.681 234.784 234.662 234.579 234.634C234.375 234.606 219.918 233.171 219.873 251.674L227.466 252.432L227.987 246.444Z" fill="url(#paint15_linear_1429_4)"/>
</g>
<g filter="url(#filter11_f_1429_4)">
<path d="M247.979 267.336C248.12 265.839 247.586 264.333 246.495 263.148C245.404 261.964 243.845 261.198 242.161 261.019C240.477 260.84 238.807 261.264 237.516 262.196C236.226 263.128 235.422 264.492 235.282 265.989L241.63 266.663L247.979 267.336Z" fill="url(#paint16_linear_1429_4)"/>
</g>
<g filter="url(#filter12_f_1429_4)">
<path d="M248.168 266.942C250.573 259.456 261.377 262.68 261.37 262.875C261.363 263.071 260.291 276.786 241.411 273.581L241.97 266.376L248.168 266.942Z" fill="url(#paint17_linear_1429_4)"/>
</g>
<g filter="url(#filter13_f_1429_4)">
<path d="M235.727 265.77C235.79 257.844 223.183 259.042 223.158 259.236C223.134 259.43 221.947 273.15 241.408 273.606L242.035 266.399L235.727 265.77Z" fill="url(#paint18_linear_1429_4)"/>
</g>
<path d="M199.684 235.218C195.007 234.739 190.396 235.659 186.867 237.777C183.338 239.895 181.18 243.037 180.867 246.511C180.554 249.985 182.112 253.508 185.199 256.304C188.286 259.099 192.648 260.939 197.326 261.418L198.505 248.318L199.684 235.218Z" fill="url(#paint19_linear_1429_4)"/>
<path d="M198.923 235.085C174.69 231.604 183.892 207.344 184.496 207.383C185.1 207.422 227.522 211.329 220.353 249.828L198.07 247.784L198.923 235.085Z" fill="url(#paint20_linear_1429_4)"/>
<path d="M196.569 259.829C171.71 258.678 177.334 284.809 177.946 284.885C178.559 284.961 221.753 289.173 220.294 249.13L197.606 246.91L196.569 259.829Z" fill="url(#paint21_linear_1429_4)"/>
<path d="M224.12 292.296C223.682 296.732 224.715 301.146 226.992 304.568C229.268 307.989 232.603 310.138 236.261 310.542C239.919 310.946 243.602 309.571 246.499 306.72C249.395 303.869 251.269 299.776 251.707 295.341L237.914 293.819L224.12 292.296Z" fill="url(#paint22_linear_1429_4)"/>
<path d="M224.001 293.021C220.681 315.966 195.038 306.471 195.071 305.898C195.104 305.325 198.616 265.089 239.205 273.085L237.369 294.22L224.001 293.021Z" fill="url(#paint23_linear_1429_4)"/>
<path d="M250.051 296.017C249.19 319.629 276.592 315.077 276.664 314.497C276.736 313.917 280.558 272.957 238.467 273.121L236.45 294.635L250.051 296.017Z" fill="url(#paint24_linear_1429_4)"/>
<path d="M284.542 271.258C289.217 271.774 293.836 270.89 297.384 268.8C300.932 266.71 303.118 263.586 303.461 260.115C303.804 256.644 302.276 253.11 299.213 250.291C296.15 247.472 291.803 245.598 287.129 245.082L285.836 258.17L284.542 271.258Z" fill="url(#paint25_linear_1429_4)"/>
<path d="M285.291 271.386C309.497 275.056 300.083 299.239 299.479 299.195C298.876 299.151 256.481 294.912 263.985 256.478L286.254 258.696L285.291 271.386Z" fill="url(#paint26_linear_1429_4)"/>
<path d="M287.865 246.666C312.717 248.012 307.319 221.842 306.707 221.761C306.096 221.68 262.932 217.13 264.043 257.175L286.715 259.574L287.865 246.666Z" fill="url(#paint27_linear_1429_4)"/>
<path d="M260.372 215.196C260.811 210.76 259.778 206.346 257.501 202.924C255.224 199.503 251.889 197.354 248.231 196.95C244.573 196.546 240.89 197.921 237.994 200.772C235.097 203.622 233.223 207.716 232.785 212.151L246.579 213.673L260.372 215.196Z" fill="url(#paint28_linear_1429_4)"/>
<path d="M260.491 214.481C263.811 191.536 289.454 201.031 289.421 201.604C289.388 202.177 285.876 242.413 245.287 234.417L247.123 213.282L260.491 214.481Z" fill="url(#paint29_linear_1429_4)"/>
<path d="M234.445 211.475C235.306 187.863 207.904 192.415 207.832 192.995C207.76 193.575 203.938 234.535 246.029 234.371L248.046 212.857L234.445 211.475Z" fill="url(#paint30_linear_1429_4)"/>
<path d="M247.541 184.483C204.455 178.298 200.939 110.246 200.939 110.246C200.939 110.246 243.082 93.4958 251.476 146.696L247.541 184.483Z" fill="url(#paint31_linear_1429_4)"/>
<path d="M247.317 184.415C290.377 190.64 308.008 125.397 308.008 125.397C308.008 125.397 270.656 97.1153 251.4 146.515L247.317 184.415Z" fill="url(#paint32_linear_1429_4)"/>
<g filter="url(#filter14_f_1429_4)">
<path d="M254.666 120.138C288.226 125.758 298.586 88.894 298.586 88.894C298.586 88.894 267.797 70.7648 256.616 98.4763L254.666 120.138Z" fill="url(#paint33_linear_1429_4)"/>
</g>
<g filter="url(#filter15_f_1429_4)">
<path d="M254.556 119.989C220.549 117.712 217.33 79.9267 217.33 79.9267C217.33 79.9267 251.181 69.5115 256.465 98.7856L254.556 119.989Z" fill="url(#paint34_linear_1429_4)"/>
</g>
<path d="M249.08 51.3062C249.671 44.7485 251.472 38.5858 254.088 34.1741C256.704 29.7623 259.921 27.4627 263.03 27.7813C266.139 28.0998 268.887 31.0103 270.668 35.8726C272.449 40.7349 273.118 47.1506 272.528 53.7083L260.804 52.5073L249.08 51.3062Z" fill="url(#paint35_linear_1429_4)"/>
<path d="M249.228 50.1005C251.39 16.1505 228.134 23.5381 228.039 24.3737C227.943 25.2092 222.241 84.1741 257.546 82.636L260.549 51.6645L249.228 50.1005Z" fill="url(#paint36_linear_1429_4)"/>
<path d="M271.43 52.1779C275.77 17.8702 297.476 31.1993 297.411 32.0545C297.346 32.9097 291.745 92.9972 256.943 82.3824L259.877 50.8193L271.43 52.1779Z" fill="url(#paint37_linear_1429_4)"/>
<path d="M296.323 208.389C269.566 175.281 317.308 125.583 317.308 125.583C317.308 125.583 360.33 142.104 327.113 184.729L296.323 208.389Z" fill="url(#paint38_linear_1429_4)"/>
<path d="M296.189 208.192C322.897 241.309 383.938 207.704 383.938 207.704C383.938 207.704 377.683 163.056 327.17 184.552L296.189 208.192Z" fill="url(#paint39_linear_1429_4)"/>
<path d="M349.043 168.388C369.29 194.734 404.07 176.013 404.07 176.013C404.07 176.013 395.082 142.815 366.471 154.621L349.043 168.388Z" fill="url(#paint40_linear_1429_4)"/>
<path d="M349.108 168.218C326.064 143.899 351.651 115.458 351.651 115.458C351.651 115.458 383.962 130.842 366.167 154.742L349.108 168.218Z" fill="url(#paint41_linear_1429_4)"/>
<path d="M395.872 116.766C401.148 112.598 407.013 109.515 412.176 108.195C417.339 106.874 421.377 107.424 423.402 109.725C425.428 112.025 425.274 115.887 422.976 120.461C420.677 125.034 416.422 129.945 411.145 134.113L403.509 125.44L395.872 116.766Z" fill="url(#paint42_linear_1429_4)"/>
<path d="M396.87 116.018C423.534 93.843 401.165 83.4355 400.478 83.953C399.791 84.4705 352.064 121.683 378.871 144.216L403.946 124.675L396.87 116.018Z" fill="url(#paint43_linear_1429_4)"/>
<path d="M411.482 132.317C439.994 111.349 445.925 135.135 445.246 135.686C444.567 136.238 396.083 174.299 378.624 143.647L404.086 123.649L411.482 132.317Z" fill="url(#paint44_linear_1429_4)"/>
<path d="M188.716 299.217C215.038 332.634 166.628 381.741 166.628 381.741C166.628 381.741 123.816 364.709 157.606 322.498L188.716 299.217Z" fill="url(#paint45_linear_1429_4)"/>
<path d="M188.829 299.423C162.555 265.997 101.056 298.857 101.056 298.857C101.056 298.857 106.72 343.564 157.527 322.682L188.829 299.423Z" fill="url(#paint46_linear_1429_4)"/>
<g filter="url(#filter16_f_1429_4)">
<path d="M135.44 338.581C115.539 312 80.5034 330.298 80.5034 330.298C80.5034 330.298 89.0523 363.591 117.826 352.133L135.44 338.581Z" fill="url(#paint47_linear_1429_4)"/>
</g>
<g filter="url(#filter17_f_1429_4)">
<path d="M135.395 338.76C158.12 363.347 132.151 391.471 132.151 391.471C132.151 391.471 100.038 375.704 118.153 352.026L135.395 338.76Z" fill="url(#paint48_linear_1429_4)"/>
</g>
<path d="M87.9219 389.622C82.5894 393.725 76.6827 396.737 71.5012 397.995C66.3197 399.253 62.2878 398.654 60.2926 396.33C58.2974 394.006 58.5022 390.148 60.862 385.603C63.2218 381.059 67.5432 376.201 72.8757 372.098L80.3988 380.86L87.9219 389.622Z" fill="url(#paint49_linear_1429_4)"/>
<path d="M86.9029 390.354C59.9388 412.201 82.1746 422.873 82.8686 422.364C83.5626 421.855 131.793 385.229 105.28 362.382L79.9409 381.615L86.9029 390.354Z" fill="url(#paint50_linear_1429_4)"/>
<path d="M72.5229 373.889C43.7265 394.507 38.1101 370.659 38.7967 370.116C39.4834 369.573 88.4817 332.107 105.538 362.958L79.8053 382.643L72.5229 373.889Z" fill="url(#paint51_linear_1429_4)"/>
<path d="M174.563 246.885C168.739 287.694 97.2251 289.079 97.2251 289.079C97.2251 289.079 78.9432 248.506 134.76 242.054L174.563 246.885Z" fill="url(#paint52_linear_1429_4)"/>
<path d="M174.485 247.1C180.351 206.317 111.457 187.665 111.457 187.665C111.457 187.665 82.3039 222.383 134.561 242.124L174.485 247.1Z" fill="url(#paint53_linear_1429_4)"/>
<g filter="url(#filter18_f_1429_4)">
<path d="M106.774 238.248C112.154 206.484 73.2209 195.567 73.2209 195.567C73.2209 195.567 54.6413 224.334 83.9619 235.768L106.774 238.248Z" fill="url(#paint54_linear_1429_4)"/>
</g>
<g filter="url(#filter19_f_1429_4)">
<path d="M106.611 238.338C104.754 270.623 65.0669 272.597 65.0669 272.597C65.0669 272.597 53.5783 240.095 84.282 235.911L106.611 238.338Z" fill="url(#paint55_linear_1429_4)"/>
</g>
<path d="M34.4656 241.566C27.5596 240.815 21.05 238.924 16.3688 236.308C11.6876 233.693 9.21837 230.567 9.50422 227.618C9.79007 224.669 12.8076 222.139 17.8931 220.585C22.9785 219.031 29.7152 218.579 36.6212 219.33L35.5434 230.448L34.4656 241.566Z" fill="url(#paint56_linear_1429_4)"/>
<path d="M33.1974 241.4C-2.5415 238.366 5.59559 260.701 6.47583 260.816C7.35606 260.931 69.4588 268.054 67.2831 234.424L34.6633 230.676L33.1974 241.4Z" fill="url(#paint57_linear_1429_4)"/>
<path d="M35.0292 220.337C-1.12035 215.22 12.5546 194.956 13.455 195.042C14.3555 195.128 77.6371 202.187 67.0239 234.988L33.783 231.288L35.0292 220.337Z" fill="url(#paint58_linear_1429_4)"/>
<path d="M196.637 199.298C162.079 223.593 109.353 176.444 109.353 176.444C109.353 176.444 126.31 136.097 171.458 169.183L196.637 199.298Z" fill="url(#paint59_linear_1429_4)"/>
<path d="M196.437 199.393C231.006 175.144 195.075 115.907 195.075 115.907C195.075 115.907 148.182 120.297 171.277 169.097L196.437 199.393Z" fill="url(#paint60_linear_1429_4)"/>
<g filter="url(#filter20_f_1429_4)">
<path d="M154.055 147.734C181.566 129.394 161.541 95.6569 161.541 95.6569C161.541 95.6569 126.717 103.047 139.409 130.675L154.055 147.734Z" fill="url(#paint61_linear_1429_4)"/>
</g>
<g filter="url(#filter21_f_1429_4)">
<path d="M153.866 147.697C128.515 168.768 98.3575 143.436 98.3575 143.436C98.3575 143.436 114.223 113.238 139.53 130.999L153.866 147.697Z" fill="url(#paint62_linear_1429_4)"/>
</g>
<path d="M99.3195 101.391C94.8854 96.2264 91.5861 90.5402 90.1474 85.5829C88.7087 80.6257 89.2485 76.8035 91.648 74.9573C94.0475 73.111 98.1102 73.3919 102.942 75.7382C107.774 78.0844 112.98 82.3039 117.414 87.4682L108.367 94.4295L99.3195 101.391Z" fill="url(#paint63_linear_1429_4)"/>
<path d="M98.526 100.413C74.9475 74.2748 64.2193 95.1898 64.7702 95.8614C65.321 96.5329 104.917 143.232 128.353 118.519L107.561 93.9851L98.526 100.413Z" fill="url(#paint64_linear_1429_4)"/>
<path d="M115.519 87.102C93.1924 59.2478 118.148 54.4369 118.735 55.1022C119.322 55.7675 159.817 103.216 127.752 118.753L106.474 93.8344L115.519 87.102Z" fill="url(#paint65_linear_1429_4)"/>
<path d="M286.523 307.206C321.082 282.911 373.807 330.06 373.807 330.06C373.807 330.06 356.85 370.407 311.702 337.321L286.523 307.206Z" fill="url(#paint66_linear_1429_4)"/>
<path d="M286.739 307.091C252.17 331.34 288.101 390.578 288.101 390.578C288.101 390.578 334.994 386.187 311.899 337.387L286.739 307.091Z" fill="url(#paint67_linear_1429_4)"/>
<g filter="url(#filter22_f_1429_4)">
<path d="M329.109 358.76C301.598 377.1 321.623 410.837 321.623 410.837C321.623 410.837 356.447 403.447 343.756 375.819L329.109 358.76Z" fill="url(#paint68_linear_1429_4)"/>
</g>
<g filter="url(#filter23_f_1429_4)">
<path d="M329.294 358.818C354.646 337.748 384.803 363.079 384.803 363.079C384.803 363.079 368.937 393.277 343.63 375.516L329.294 358.818Z" fill="url(#paint69_linear_1429_4)"/>
</g>
<path d="M383.852 405.105C388.286 410.269 391.586 415.956 393.024 420.913C394.463 425.87 393.923 429.692 391.524 431.539C389.124 433.385 385.062 433.104 380.23 430.758C375.398 428.411 370.192 424.192 365.758 419.028L374.805 412.066L383.852 405.105Z" fill="url(#paint70_linear_1429_4)"/>
<path d="M384.634 406.077C408.213 432.215 418.941 411.3 418.39 410.629C417.839 409.957 378.243 363.258 354.807 387.971L375.599 412.505L384.634 406.077Z" fill="url(#paint71_linear_1429_4)"/>
<path d="M367.649 419.406C389.976 447.26 365.02 452.071 364.433 451.405C363.846 450.74 323.351 403.292 355.416 387.755L376.694 412.673L367.649 419.406Z" fill="url(#paint72_linear_1429_4)"/>
<path d="M236.275 325.278C279.324 331.728 282.375 399.791 282.375 399.791C282.375 399.791 240.112 416.278 232.081 363.034L236.275 325.278Z" fill="url(#paint73_linear_1429_4)"/>
<path d="M236.506 325.352C193.484 318.862 175.404 383.985 175.404 383.985C175.404 383.985 212.568 412.493 232.164 363.221L236.506 325.352Z" fill="url(#paint74_linear_1429_4)"/>
<path d="M228.72 389.579C195.194 383.752 184.58 420.546 184.58 420.546C184.58 420.546 215.25 438.862 226.621 411.224L228.72 389.579Z" fill="url(#paint75_linear_1429_4)"/>
<path d="M228.808 389.736C262.804 392.223 265.765 430.021 265.765 430.021C265.765 430.021 231.839 440.225 226.754 410.924L228.808 389.736Z" fill="url(#paint76_linear_1429_4)"/>
<path d="M233.818 458.438C233.182 464.991 231.339 471.141 228.692 475.536C226.045 479.931 222.813 482.211 219.705 481.873C216.598 481.535 213.87 478.608 212.122 473.736C210.374 468.863 209.748 462.444 210.384 455.891L222.101 457.165L233.818 458.438Z" fill="url(#paint77_linear_1429_4)"/>
<path d="M233.666 459.636C231.272 493.567 254.581 486.325 254.682 485.49C254.783 484.655 260.889 425.735 225.569 427.055L222.354 458.003L233.666 459.636Z" fill="url(#paint78_linear_1429_4)"/>
<path d="M211.488 457.424C206.914 491.699 185.296 478.238 185.367 477.383C185.437 476.528 191.45 416.486 226.184 427.314L223.033 458.853L211.488 457.424Z" fill="url(#paint79_linear_1429_4)"/>
<defs>
<filter id="filter0_f_1429_4" x="372.358" y="267.413" width="41.3768" height="43.871" filterUnits="userSpaceOnUse" color-interpolation-filters="sRGB">
<feFlood flood-opacity="0" result="BackgroundImageFix"/>
<feBlend mode="normal" in="SourceGraphic" in2="BackgroundImageFix" result="shape"/>
<feGaussianBlur stdDeviation="0.348116" result="effect1_foregroundBlur_1429_4"/>
</filter>
<filter id="filter1_f_1429_4" x="372.987" y="232.802" width="44.8925" height="38.2011" filterUnits="userSpaceOnUse" color-interpolation-filters="sRGB">
<feFlood flood-opacity="0" result="BackgroundImageFix"/>
<feBlend mode="normal" in="SourceGraphic" in2="BackgroundImageFix" result="shape"/>
<feGaussianBlur stdDeviation="0.348116" result="effect1_foregroundBlur_1429_4"/>
</filter>
<filter id="filter2_f_1429_4" x="249.73" y="248.665" width="7.93543" height="13.4745" filterUnits="userSpaceOnUse" color-interpolation-filters="sRGB">
<feFlood flood-opacity="0" result="BackgroundImageFix"/>
<feBlend mode="normal" in="SourceGraphic" in2="BackgroundImageFix" result="shape"/>
<feGaussianBlur stdDeviation="0.348116" result="effect1_foregroundBlur_1429_4"/>
</filter>
<filter id="filter3_f_1429_4" x="250.487" y="235.862" width="14.2831" height="20.619" filterUnits="userSpaceOnUse" color-interpolation-filters="sRGB">
<feFlood flood-opacity="0" result="BackgroundImageFix"/>
<feBlend mode="normal" in="SourceGraphic" in2="BackgroundImageFix" result="shape"/>
<feGaussianBlur stdDeviation="0.348116" result="effect1_foregroundBlur_1429_4"/>
</filter>
<filter id="filter4_f_1429_4" x="248.05" y="254.335" width="16.3378" height="19.2264" filterUnits="userSpaceOnUse" color-interpolation-filters="sRGB">
<feFlood flood-opacity="0" result="BackgroundImageFix"/>
<feBlend mode="normal" in="SourceGraphic" in2="BackgroundImageFix" result="shape"/>
<feGaussianBlur stdDeviation="0.348116" result="effect1_foregroundBlur_1429_4"/>
</filter>
<filter id="filter5_f_1429_4" x="236.538" y="239.204" width="14.1112" height="7.74989" filterUnits="userSpaceOnUse" color-interpolation-filters="sRGB">
<feFlood flood-opacity="0" result="BackgroundImageFix"/>
<feBlend mode="normal" in="SourceGraphic" in2="BackgroundImageFix" result="shape"/>
<feGaussianBlur stdDeviation="0.348116" result="effect1_foregroundBlur_1429_4"/>
</filter>
<filter id="filter6_f_1429_4" x="223.171" y="232.464" width="21.3534" height="13.4393" filterUnits="userSpaceOnUse" color-interpolation-filters="sRGB">
<feFlood flood-opacity="0" result="BackgroundImageFix"/>
<feBlend mode="normal" in="SourceGraphic" in2="BackgroundImageFix" result="shape"/>
<feGaussianBlur stdDeviation="0.348116" result="effect1_foregroundBlur_1429_4"/>
</filter>
<filter id="filter7_f_1429_4" x="242.507" y="232.925" width="20.2909" height="15.9393" filterUnits="userSpaceOnUse" color-interpolation-filters="sRGB">
<feFlood flood-opacity="0" result="BackgroundImageFix"/>
<feBlend mode="normal" in="SourceGraphic" in2="BackgroundImageFix" result="shape"/>
<feGaussianBlur stdDeviation="0.348116" result="effect1_foregroundBlur_1429_4"/>
</filter>
<filter id="filter8_f_1429_4" x="225.925" y="245.327" width="7.93543" height="13.4745" filterUnits="userSpaceOnUse" color-interpolation-filters="sRGB">
<feFlood flood-opacity="0" result="BackgroundImageFix"/>
<feBlend mode="normal" in="SourceGraphic" in2="BackgroundImageFix" result="shape"/>
<feGaussianBlur stdDeviation="0.348116" result="effect1_foregroundBlur_1429_4"/>
</filter>
<filter id="filter9_f_1429_4" x="218.788" y="250.983" width="14.2831" height="20.619" filterUnits="userSpaceOnUse" color-interpolation-filters="sRGB">
<feFlood flood-opacity="0" result="BackgroundImageFix"/>
<feBlend mode="normal" in="SourceGraphic" in2="BackgroundImageFix" result="shape"/>
<feGaussianBlur stdDeviation="0.348116" result="effect1_foregroundBlur_1429_4"/>
</filter>
<filter id="filter10_f_1429_4" x="219.179" y="233.901" width="16.3378" height="19.2264" filterUnits="userSpaceOnUse" color-interpolation-filters="sRGB">
<feFlood flood-opacity="0" result="BackgroundImageFix"/>
<feBlend mode="normal" in="SourceGraphic" in2="BackgroundImageFix" result="shape"/>
<feGaussianBlur stdDeviation="0.348116" result="effect1_foregroundBlur_1429_4"/>
</filter>
<filter id="filter11_f_1429_4" x="234.585" y="260.282" width="14.1112" height="7.74989" filterUnits="userSpaceOnUse" color-interpolation-filters="sRGB">
<feFlood flood-opacity="0" result="BackgroundImageFix"/>
<feBlend mode="normal" in="SourceGraphic" in2="BackgroundImageFix" result="shape"/>
<feGaussianBlur stdDeviation="0.348116" result="effect1_foregroundBlur_1429_4"/>
</filter>
<filter id="filter12_f_1429_4" x="240.714" y="261.323" width="21.3534" height="13.4393" filterUnits="userSpaceOnUse" color-interpolation-filters="sRGB">
<feFlood flood-opacity="0" result="BackgroundImageFix"/>
<feBlend mode="normal" in="SourceGraphic" in2="BackgroundImageFix" result="shape"/>
<feGaussianBlur stdDeviation="0.348116" result="effect1_foregroundBlur_1429_4"/>
</filter>
<filter id="filter13_f_1429_4" x="222.44" y="258.362" width="20.2909" height="15.9393" filterUnits="userSpaceOnUse" color-interpolation-filters="sRGB">
<feFlood flood-opacity="0" result="BackgroundImageFix"/>
<feBlend mode="normal" in="SourceGraphic" in2="BackgroundImageFix" result="shape"/>
<feGaussianBlur stdDeviation="0.348116" result="effect1_foregroundBlur_1429_4"/>
</filter>
<filter id="filter14_f_1429_4" x="253.968" y="82.374" width="45.3143" height="39.0429" filterUnits="userSpaceOnUse" color-interpolation-filters="sRGB">
<feFlood flood-opacity="0" result="BackgroundImageFix"/>
<feBlend mode="normal" in="SourceGraphic" in2="BackgroundImageFix" result="shape"/>
<feGaussianBlur stdDeviation="0.348116" result="effect1_foregroundBlur_1429_4"/>
</filter>
<filter id="filter15_f_1429_4" x="216.632" y="77.4306" width="40.5292" height="43.2538" filterUnits="userSpaceOnUse" color-interpolation-filters="sRGB">
<feFlood flood-opacity="0" result="BackgroundImageFix"/>
<feBlend mode="normal" in="SourceGraphic" in2="BackgroundImageFix" result="shape"/>
<feGaussianBlur stdDeviation="0.348116" result="effect1_foregroundBlur_1429_4"/>
</filter>
<filter id="filter16_f_1429_4" x="79.8077" y="323.462" width="56.33" height="31.7675" filterUnits="userSpaceOnUse" color-interpolation-filters="sRGB">
<feFlood flood-opacity="0" result="BackgroundImageFix"/>
<feBlend mode="normal" in="SourceGraphic" in2="BackgroundImageFix" result="shape"/>
<feGaussianBlur stdDeviation="0.348116" result="effect1_foregroundBlur_1429_4"/>
</filter>
<filter id="filter17_f_1429_4" x="111.917" y="338.063" width="33.4979" height="54.1034" filterUnits="userSpaceOnUse" color-interpolation-filters="sRGB">
<feFlood flood-opacity="0" result="BackgroundImageFix"/>
<feBlend mode="normal" in="SourceGraphic" in2="BackgroundImageFix" result="shape"/>
<feGaussianBlur stdDeviation="0.348116" result="effect1_foregroundBlur_1429_4"/>
</filter>
<filter id="filter18_f_1429_4" x="66.7217" y="194.87" width="41.2597" height="44.0741" filterUnits="userSpaceOnUse" color-interpolation-filters="sRGB">
<feFlood flood-opacity="0" result="BackgroundImageFix"/>
<feBlend mode="normal" in="SourceGraphic" in2="BackgroundImageFix" result="shape"/>
<feGaussianBlur stdDeviation="0.348116" result="effect1_foregroundBlur_1429_4"/>
</filter>
<filter id="filter19_f_1429_4" x="62.2647" y="235.216" width="45.0409" height="38.078" filterUnits="userSpaceOnUse" color-interpolation-filters="sRGB">
<feFlood flood-opacity="0" result="BackgroundImageFix"/>
<feBlend mode="normal" in="SourceGraphic" in2="BackgroundImageFix" result="shape"/>
<feGaussianBlur stdDeviation="0.348116" result="effect1_foregroundBlur_1429_4"/>
</filter>
<filter id="filter20_f_1429_4" x="135.929" y="94.9599" width="33.3456" height="53.4706" filterUnits="userSpaceOnUse" color-interpolation-filters="sRGB">
<feFlood flood-opacity="0" result="BackgroundImageFix"/>
<feBlend mode="normal" in="SourceGraphic" in2="BackgroundImageFix" result="shape"/>
<feGaussianBlur stdDeviation="0.348116" result="effect1_foregroundBlur_1429_4"/>
</filter>
<filter id="filter21_f_1429_4" x="97.6631" y="124.708" width="56.9003" height="32.0604" filterUnits="userSpaceOnUse" color-interpolation-filters="sRGB">
<feFlood flood-opacity="0" result="BackgroundImageFix"/>
<feBlend mode="normal" in="SourceGraphic" in2="BackgroundImageFix" result="shape"/>
<feGaussianBlur stdDeviation="0.348116" result="effect1_foregroundBlur_1429_4"/>
</filter>
<filter id="filter22_f_1429_4" x="313.89" y="358.063" width="33.3456" height="53.4706" filterUnits="userSpaceOnUse" color-interpolation-filters="sRGB">
<feFlood flood-opacity="0" result="BackgroundImageFix"/>
<feBlend mode="normal" in="SourceGraphic" in2="BackgroundImageFix" result="shape"/>
<feGaussianBlur stdDeviation="0.348116" result="effect1_foregroundBlur_1429_4"/>
</filter>
<filter id="filter23_f_1429_4" x="328.597" y="349.747" width="56.9003" height="32.0604" filterUnits="userSpaceOnUse" color-interpolation-filters="sRGB">
<feFlood flood-opacity="0" result="BackgroundImageFix"/>
<feBlend mode="normal" in="SourceGraphic" in2="BackgroundImageFix" result="shape"/>
<feGaussianBlur stdDeviation="0.348116" result="effect1_foregroundBlur_1429_4"/>
</filter>
<linearGradient id="paint0_linear_1429_4" x1="339.168" y1="206.293" x2="347.774" y2="275.264" gradientUnits="userSpaceOnUse">
<stop offset="0.225962" stop-color="#ABC67A"/>
<stop offset="0.625" stop-color="#699C53"/>
</linearGradient>
<linearGradient id="paint1_linear_1429_4" x1="323.887" y1="319.302" x2="348.447" y2="253.636" gradientUnits="userSpaceOnUse">
<stop offset="0.225962" stop-color="#ABC67A"/>
<stop offset="0.625" stop-color="#699C53"/>
</linearGradient>
<linearGradient id="paint2_linear_1429_4" x1="375.379" y1="293.197" x2="408.613" y2="300.742" gradientUnits="userSpaceOnUse">
<stop offset="0.120192" stop-color="#ABD2CB"/>
<stop offset="0.552885" stop-color="#78BEB2"/>
</linearGradient>
<linearGradient id="paint3_linear_1429_4" x1="380.764" y1="243.623" x2="414.155" y2="243.471" gradientUnits="userSpaceOnUse">
<stop offset="0.120192" stop-color="#ABD2CB"/>
<stop offset="0.552885" stop-color="#78BEB2"/>
</linearGradient>
<linearGradient id="paint4_linear_1429_4" x1="470.845" y1="278.126" x2="418.679" y2="273.429" gradientUnits="userSpaceOnUse">
<stop offset="0.100962" stop-color="#DF6DB7"/>
<stop offset="1" stop-color="#B85172"/>
</linearGradient>
<linearGradient id="paint5_linear_1429_4" x1="473.813" y1="261.616" x2="414.827" y2="253.966" gradientUnits="userSpaceOnUse">
<stop offset="0.100962" stop-color="#DF6DB7"/>
<stop offset="1" stop-color="#B85172"/>
</linearGradient>
<linearGradient id="paint6_linear_1429_4" x1="471.249" y1="294.195" x2="410.99" y2="287.757" gradientUnits="userSpaceOnUse">
<stop offset="0.100962" stop-color="#DF6DB7"/>
<stop offset="1" stop-color="#B85172"/>
</linearGradient>
<linearGradient id="paint7_linear_1429_4" x1="262.39" y1="255.597" x2="253.259" y2="250.316" gradientUnits="userSpaceOnUse">
<stop offset="0.120192" stop-color="#ABD2CB"/>
<stop offset="0.552885" stop-color="#78BEB2"/>
</linearGradient>
<linearGradient id="paint8_linear_1429_4" x1="264.544" y1="246.103" x2="253.048" y2="241.013" gradientUnits="userSpaceOnUse">
<stop offset="0.120192" stop-color="#ABD2CB"/>
<stop offset="0.552885" stop-color="#78BEB2"/>
</linearGradient>
<linearGradient id="paint9_linear_1429_4" x1="262.951" y1="265.664" x2="250.769" y2="268.72" gradientUnits="userSpaceOnUse">
<stop offset="0.120192" stop-color="#ABD2CB"/>
<stop offset="0.552885" stop-color="#78BEB2"/>
</linearGradient>
<linearGradient id="paint10_linear_1429_4" x1="243.658" y1="234.879" x2="238.883" y2="243.758" gradientUnits="userSpaceOnUse">
<stop offset="0.120192" stop-color="#ABD2CB"/>
<stop offset="0.552885" stop-color="#78BEB2"/>
</linearGradient>
<linearGradient id="paint11_linear_1429_4" x1="233.625" y1="232.603" x2="229.019" y2="243.631" gradientUnits="userSpaceOnUse">
<stop offset="0.120192" stop-color="#ABD2CB"/>
<stop offset="0.552885" stop-color="#78BEB2"/>
</linearGradient>
<linearGradient id="paint12_linear_1429_4" x1="254.232" y1="234.547" x2="256.688" y2="246.417" gradientUnits="userSpaceOnUse">
<stop offset="0.120192" stop-color="#ABD2CB"/>
<stop offset="0.552885" stop-color="#78BEB2"/>
</linearGradient>
<linearGradient id="paint13_linear_1429_4" x1="221.2" y1="251.869" x2="230.331" y2="257.151" gradientUnits="userSpaceOnUse">
<stop offset="0.120192" stop-color="#ABD2CB"/>
<stop offset="0.552885" stop-color="#78BEB2"/>
</linearGradient>
<linearGradient id="paint14_linear_1429_4" x1="219.014" y1="261.362" x2="230.51" y2="266.451" gradientUnits="userSpaceOnUse">
<stop offset="0.120192" stop-color="#ABD2CB"/>
<stop offset="0.552885" stop-color="#78BEB2"/>
</linearGradient>
<linearGradient id="paint15_linear_1429_4" x1="220.615" y1="241.799" x2="232.797" y2="238.743" gradientUnits="userSpaceOnUse">
<stop offset="0.120192" stop-color="#ABD2CB"/>
<stop offset="0.552885" stop-color="#78BEB2"/>
</linearGradient>
<linearGradient id="paint16_linear_1429_4" x1="241.576" y1="272.357" x2="246.351" y2="263.478" gradientUnits="userSpaceOnUse">
<stop offset="0.120192" stop-color="#ABD2CB"/>
<stop offset="0.552885" stop-color="#78BEB2"/>
</linearGradient>
<linearGradient id="paint17_linear_1429_4" x1="251.613" y1="274.623" x2="256.22" y2="263.596" gradientUnits="userSpaceOnUse">
<stop offset="0.120192" stop-color="#ABD2CB"/>
<stop offset="0.552885" stop-color="#78BEB2"/>
</linearGradient>
<linearGradient id="paint18_linear_1429_4" x1="231.006" y1="272.68" x2="228.551" y2="260.81" gradientUnits="userSpaceOnUse">
<stop offset="0.120192" stop-color="#ABD2CB"/>
<stop offset="0.552885" stop-color="#78BEB2"/>
</linearGradient>
<linearGradient id="paint19_linear_1429_4" x1="180.867" y1="246.511" x2="216.182" y2="249.69" gradientUnits="userSpaceOnUse">
<stop offset="0.100962" stop-color="#DF6DB7"/>
<stop offset="1" stop-color="#B85172"/>
</linearGradient>
<linearGradient id="paint20_linear_1429_4" x1="181.623" y1="226.698" x2="222.069" y2="229.414" gradientUnits="userSpaceOnUse">
<stop offset="0.100962" stop-color="#DF6DB7"/>
<stop offset="1" stop-color="#B85172"/>
</linearGradient>
<linearGradient id="paint21_linear_1429_4" x1="177.942" y1="264.935" x2="219.111" y2="268.241" gradientUnits="userSpaceOnUse">
<stop offset="0.100962" stop-color="#DF6DB7"/>
<stop offset="1" stop-color="#B85172"/>
</linearGradient>
<linearGradient id="paint22_linear_1429_4" x1="236.261" y1="310.542" x2="239.947" y2="277.137" gradientUnits="userSpaceOnUse">
<stop offset="0.100962" stop-color="#DF6DB7"/>
<stop offset="1" stop-color="#B85172"/>
</linearGradient>
<linearGradient id="paint23_linear_1429_4" x1="215.424" y1="309.221" x2="218.859" y2="270.932" gradientUnits="userSpaceOnUse">
<stop offset="0.100962" stop-color="#DF6DB7"/>
<stop offset="1" stop-color="#B85172"/>
</linearGradient>
<linearGradient id="paint24_linear_1429_4" x1="255.683" y1="313.892" x2="259.64" y2="274.938" gradientUnits="userSpaceOnUse">
<stop offset="0.100962" stop-color="#DF6DB7"/>
<stop offset="1" stop-color="#B85172"/>
</linearGradient>
<linearGradient id="paint25_linear_1429_4" x1="303.461" y1="260.115" x2="268.171" y2="256.628" gradientUnits="userSpaceOnUse">
<stop offset="0.100962" stop-color="#DF6DB7"/>
<stop offset="1" stop-color="#B85172"/>
</linearGradient>
<linearGradient id="paint26_linear_1429_4" x1="302.52" y1="279.907" x2="262.095" y2="276.838" gradientUnits="userSpaceOnUse">
<stop offset="0.100962" stop-color="#DF6DB7"/>
<stop offset="1" stop-color="#B85172"/>
</linearGradient>
<linearGradient id="paint27_linear_1429_4" x1="306.539" y1="241.707" x2="265.396" y2="238.042" gradientUnits="userSpaceOnUse">
<stop offset="0.100962" stop-color="#DF6DB7"/>
<stop offset="1" stop-color="#B85172"/>
</linearGradient>
<linearGradient id="paint28_linear_1429_4" x1="248.231" y1="196.95" x2="244.545" y2="230.355" gradientUnits="userSpaceOnUse">
<stop offset="0.100962" stop-color="#DF6DB7"/>
<stop offset="1" stop-color="#B85172"/>
</linearGradient>
<linearGradient id="paint29_linear_1429_4" x1="269.068" y1="198.281" x2="265.633" y2="236.57" gradientUnits="userSpaceOnUse">
<stop offset="0.100962" stop-color="#DF6DB7"/>
<stop offset="1" stop-color="#B85172"/>
</linearGradient>
<linearGradient id="paint30_linear_1429_4" x1="228.813" y1="193.6" x2="224.856" y2="232.554" gradientUnits="userSpaceOnUse">
<stop offset="0.100962" stop-color="#DF6DB7"/>
<stop offset="1" stop-color="#B85172"/>
</linearGradient>
<linearGradient id="paint31_linear_1429_4" x1="190.408" y1="151.45" x2="261.971" y2="139.933" gradientUnits="userSpaceOnUse">
<stop offset="0.225962" stop-color="#ABC67A"/>
<stop offset="0.625" stop-color="#699C53"/>
</linearGradient>
<linearGradient id="paint32_linear_1429_4" x1="309.605" y1="168.499" x2="240.869" y2="141.452" gradientUnits="userSpaceOnUse">
<stop offset="0.225962" stop-color="#ABC67A"/>
<stop offset="0.625" stop-color="#699C53"/>
</linearGradient>
<linearGradient id="paint33_linear_1429_4" x1="281.009" y1="118.935" x2="288.105" y2="87.4647" gradientUnits="userSpaceOnUse">
<stop offset="0.120192" stop-color="#ABD2CB"/>
<stop offset="0.552885" stop-color="#78BEB2"/>
</linearGradient>
<linearGradient id="paint34_linear_1429_4" x1="228.742" y1="112.71" x2="229.286" y2="80.966" gradientUnits="userSpaceOnUse">
<stop offset="0.120192" stop-color="#ABD2CB"/>
<stop offset="0.552885" stop-color="#78BEB2"/>
</linearGradient>
<linearGradient id="paint35_linear_1429_4" x1="263.03" y1="27.7813" x2="257.97" y2="77.171" gradientUnits="userSpaceOnUse">
<stop offset="0.100962" stop-color="#DF6DB7"/>
<stop offset="1" stop-color="#B85172"/>
</linearGradient>
<linearGradient id="paint36_linear_1429_4" x1="245.595" y1="24.5938" x2="237.886" y2="80.4017" gradientUnits="userSpaceOnUse">
<stop offset="0.100962" stop-color="#DF6DB7"/>
<stop offset="1" stop-color="#B85172"/>
</linearGradient>
<linearGradient id="paint37_linear_1429_4" x1="279.916" y1="27.7553" x2="273.21" y2="84.7852" gradientUnits="userSpaceOnUse">
<stop offset="0.100962" stop-color="#DF6DB7"/>
<stop offset="1" stop-color="#B85172"/>
</linearGradient>
<linearGradient id="paint38_linear_1429_4" x1="279.196" y1="147.21" x2="336.326" y2="191.451" gradientUnits="userSpaceOnUse">
<stop offset="0.225962" stop-color="#ABC67A"/>
<stop offset="0.625" stop-color="#699C53"/>
</linearGradient>
<linearGradient id="paint39_linear_1429_4" x1="353.243" y1="238.76" x2="325.505" y2="173.039" gradientUnits="userSpaceOnUse">
<stop offset="0.225962" stop-color="#ABC67A"/>
<stop offset="0.625" stop-color="#699C53"/>
</linearGradient>
<linearGradient id="paint40_linear_1429_4" x1="388.892" y1="196.184" x2="368.251" y2="142.932" gradientUnits="userSpaceOnUse">
<stop offset="0.225962" stop-color="#ABC67A"/>
<stop offset="0.625" stop-color="#699C53"/>
</linearGradient>
<linearGradient id="paint41_linear_1429_4" x1="328.193" y1="125.059" x2="376.803" y2="158.871" gradientUnits="userSpaceOnUse">
<stop offset="0.225962" stop-color="#ABC67A"/>
<stop offset="0.625" stop-color="#699C53"/>
</linearGradient>
<linearGradient id="paint42_linear_1429_4" x1="423.402" y1="109.725" x2="385.401" y2="143.183" gradientUnits="userSpaceOnUse">
<stop offset="0.100962" stop-color="#DF6DB7"/>
<stop offset="1" stop-color="#B85172"/>
</linearGradient>
<linearGradient id="paint43_linear_1429_4" x1="413.081" y1="95.8434" x2="368.492" y2="132.288" gradientUnits="userSpaceOnUse">
<stop offset="0.100962" stop-color="#DF6DB7"/>
<stop offset="1" stop-color="#B85172"/>
</linearGradient>
<linearGradient id="paint44_linear_1429_4" x1="435.703" y1="120.999" x2="391.109" y2="159.046" gradientUnits="userSpaceOnUse">
<stop offset="0.100962" stop-color="#DF6DB7"/>
<stop offset="1" stop-color="#B85172"/>
</linearGradient>
<linearGradient id="paint45_linear_1429_4" x1="205.034" y1="360.579" x2="148.518" y2="315.621" gradientUnits="userSpaceOnUse">
<stop offset="0.225962" stop-color="#ABC67A"/>
<stop offset="0.625" stop-color="#699C53"/>
</linearGradient>
<linearGradient id="paint46_linear_1429_4" x1="132.169" y1="268.181" x2="159.073" y2="334.198" gradientUnits="userSpaceOnUse">
<stop offset="0.225962" stop-color="#ABC67A"/>
<stop offset="0.625" stop-color="#699C53"/>
</linearGradient>
<linearGradient id="paint47_linear_1429_4" x1="115.616" y1="321.572" x2="87.9414" y2="339.856" gradientUnits="userSpaceOnUse">
<stop offset="0.120192" stop-color="#ABD2CB"/>
<stop offset="0.552885" stop-color="#78BEB2"/>
</linearGradient>
<linearGradient id="paint48_linear_1429_4" x1="148.491" y1="361.235" x2="125.995" y2="384.278" gradientUnits="userSpaceOnUse">
<stop offset="0.120192" stop-color="#ABD2CB"/>
<stop offset="0.552885" stop-color="#78BEB2"/>
</linearGradient>
<linearGradient id="paint49_linear_1429_4" x1="60.2926" y1="396.33" x2="98.7329" y2="363.326" gradientUnits="userSpaceOnUse">
<stop offset="0.100962" stop-color="#DF6DB7"/>
<stop offset="1" stop-color="#B85172"/>
</linearGradient>
<linearGradient id="paint50_linear_1429_4" x1="70.4212" y1="410.327" x2="115.493" y2="374.418" gradientUnits="userSpaceOnUse">
<stop offset="0.100962" stop-color="#DF6DB7"/>
<stop offset="1" stop-color="#B85172"/>
</linearGradient>
<linearGradient id="paint51_linear_1429_4" x1="48.1465" y1="384.912" x2="93.2421" y2="347.4" gradientUnits="userSpaceOnUse">
<stop offset="0.100962" stop-color="#DF6DB7"/>
<stop offset="1" stop-color="#B85172"/>
</linearGradient>
<linearGradient id="paint52_linear_1429_4" x1="140.726" y1="300.284" x2="132.55" y2="231.275" gradientUnits="userSpaceOnUse">
<stop offset="0.225962" stop-color="#ABC67A"/>
<stop offset="0.625" stop-color="#699C53"/>
</linearGradient>
<linearGradient id="paint53_linear_1429_4" x1="156.761" y1="187.388" x2="131.795" y2="252.908" gradientUnits="userSpaceOnUse">
<stop offset="0.225962" stop-color="#ABC67A"/>
<stop offset="0.625" stop-color="#699C53"/>
</linearGradient>
<linearGradient id="paint54_linear_1429_4" x1="105.092" y1="213.153" x2="71.9107" y2="205.38" gradientUnits="userSpaceOnUse">
<stop offset="0.120192" stop-color="#ABD2CB"/>
<stop offset="0.552885" stop-color="#78BEB2"/>
</linearGradient>
<linearGradient id="paint55_linear_1429_4" x1="99.3639" y1="262.685" x2="65.9678" y2="262.608" gradientUnits="userSpaceOnUse">
<stop offset="0.120192" stop-color="#ABD2CB"/>
<stop offset="0.552885" stop-color="#78BEB2"/>
</linearGradient>
<linearGradient id="paint56_linear_1429_4" x1="9.50422" y1="227.618" x2="61.6413" y2="232.672" gradientUnits="userSpaceOnUse">
<stop offset="0.100962" stop-color="#DF6DB7"/>
<stop offset="1" stop-color="#B85172"/>
</linearGradient>
<linearGradient id="paint57_linear_1429_4" x1="6.4298" y1="244.121" x2="65.3653" y2="252.177" gradientUnits="userSpaceOnUse">
<stop offset="0.100962" stop-color="#DF6DB7"/>
<stop offset="1" stop-color="#B85172"/>
</linearGradient>
<linearGradient id="paint58_linear_1429_4" x1="9.21014" y1="211.561" x2="69.4269" y2="218.413" gradientUnits="userSpaceOnUse">
<stop offset="0.100962" stop-color="#DF6DB7"/>
<stop offset="1" stop-color="#B85172"/>
</linearGradient>
<linearGradient id="paint59_linear_1429_4" x1="132.466" y1="213.452" x2="173.531" y2="157.08" gradientUnits="userSpaceOnUse">
<stop offset="0.225962" stop-color="#ABC67A"/>
<stop offset="0.625" stop-color="#699C53"/>
</linearGradient>
<linearGradient id="paint60_linear_1429_4" x1="228.031" y1="146.19" x2="162.353" y2="177.025" gradientUnits="userSpaceOnUse">
<stop offset="0.225962" stop-color="#ABC67A"/>
<stop offset="0.625" stop-color="#699C53"/>
</linearGradient>
<linearGradient id="paint61_linear_1429_4" x1="171.501" y1="129.254" x2="154.798" y2="100.682" gradientUnits="userSpaceOnUse">
<stop offset="0.120192" stop-color="#ABD2CB"/>
<stop offset="0.552885" stop-color="#78BEB2"/>
</linearGradient>
<linearGradient id="paint62_linear_1429_4" x1="130.521" y1="159.654" x2="108.185" y2="135.519" gradientUnits="userSpaceOnUse">
<stop offset="0.120192" stop-color="#ABD2CB"/>
<stop offset="0.552885" stop-color="#78BEB2"/>
</linearGradient>
<linearGradient id="paint63_linear_1429_4" x1="91.648" y1="74.9573" x2="122.904" y2="115.58" gradientUnits="userSpaceOnUse">
<stop offset="0.100962" stop-color="#DF6DB7"/>
<stop offset="1" stop-color="#B85172"/>
</linearGradient>
<linearGradient id="paint64_linear_1429_4" x1="77.1525" y1="84.2886" x2="110.814" y2="131.602" gradientUnits="userSpaceOnUse">
<stop offset="0.100962" stop-color="#DF6DB7"/>
<stop offset="1" stop-color="#B85172"/>
</linearGradient>
<linearGradient id="paint65_linear_1429_4" x1="103.382" y1="63.6667" x2="138.755" y2="111.188" gradientUnits="userSpaceOnUse">
<stop offset="0.100962" stop-color="#DF6DB7"/>
<stop offset="1" stop-color="#B85172"/>
</linearGradient>
<linearGradient id="paint66_linear_1429_4" x1="350.694" y1="293.051" x2="309.629" y2="349.424" gradientUnits="userSpaceOnUse">
<stop offset="0.225962" stop-color="#ABC67A"/>
<stop offset="0.625" stop-color="#699C53"/>
</linearGradient>
<linearGradient id="paint67_linear_1429_4" x1="255.145" y1="360.295" x2="320.823" y2="329.459" gradientUnits="userSpaceOnUse">
<stop offset="0.225962" stop-color="#ABC67A"/>
<stop offset="0.625" stop-color="#699C53"/>
</linearGradient>
<linearGradient id="paint68_linear_1429_4" x1="311.663" y1="377.24" x2="328.366" y2="405.812" gradientUnits="userSpaceOnUse">
<stop offset="0.120192" stop-color="#ABD2CB"/>
<stop offset="0.552885" stop-color="#78BEB2"/>
</linearGradient>
<linearGradient id="paint69_linear_1429_4" x1="352.639" y1="346.861" x2="374.975" y2="370.997" gradientUnits="userSpaceOnUse">
<stop offset="0.120192" stop-color="#ABD2CB"/>
<stop offset="0.552885" stop-color="#78BEB2"/>
</linearGradient>
<linearGradient id="paint70_linear_1429_4" x1="391.524" y1="431.539" x2="360.267" y2="390.916" gradientUnits="userSpaceOnUse">
<stop offset="0.100962" stop-color="#DF6DB7"/>
<stop offset="1" stop-color="#B85172"/>
</linearGradient>
<linearGradient id="paint71_linear_1429_4" x1="406.008" y1="422.201" x2="372.346" y2="374.888" gradientUnits="userSpaceOnUse">
<stop offset="0.100962" stop-color="#DF6DB7"/>
<stop offset="1" stop-color="#B85172"/>
</linearGradient>
<linearGradient id="paint72_linear_1429_4" x1="379.786" y1="442.841" x2="344.413" y2="395.319" gradientUnits="userSpaceOnUse">
<stop offset="0.100962" stop-color="#DF6DB7"/>
<stop offset="1" stop-color="#B85172"/>
</linearGradient>
<linearGradient id="paint73_linear_1429_4" x1="293.189" y1="358.659" x2="221.533" y2="369.693" gradientUnits="userSpaceOnUse">
<stop offset="0.225962" stop-color="#ABC67A"/>
<stop offset="0.625" stop-color="#699C53"/>
</linearGradient>
<linearGradient id="paint74_linear_1429_4" x1="174.102" y1="340.881" x2="242.643" y2="368.394" gradientUnits="userSpaceOnUse">
<stop offset="0.225962" stop-color="#ABC67A"/>
<stop offset="0.625" stop-color="#699C53"/>
</linearGradient>
<linearGradient id="paint75_linear_1429_4" x1="180.4" y1="395.71" x2="234.601" y2="419.49" gradientUnits="userSpaceOnUse">
<stop offset="0.225962" stop-color="#ABC67A"/>
<stop offset="0.625" stop-color="#699C53"/>
</linearGradient>
<linearGradient id="paint76_linear_1429_4" x1="275.145" y1="407.419" x2="217.194" y2="419.414" gradientUnits="userSpaceOnUse">
<stop offset="0.225962" stop-color="#ABC67A"/>
<stop offset="0.625" stop-color="#699C53"/>
</linearGradient>
<linearGradient id="paint77_linear_1429_4" x1="219.705" y1="481.873" x2="225.069" y2="432.519" gradientUnits="userSpaceOnUse">
<stop offset="0.100962" stop-color="#DF6DB7"/>
<stop offset="1" stop-color="#B85172"/>
</linearGradient>
<linearGradient id="paint78_linear_1429_4" x1="237.125" y1="485.161" x2="245.177" y2="429.405" gradientUnits="userSpaceOnUse">
<stop offset="0.100962" stop-color="#DF6DB7"/>
<stop offset="1" stop-color="#B85172"/>
</linearGradient>
<linearGradient id="paint79_linear_1429_4" x1="202.834" y1="481.79" x2="209.891" y2="424.806" gradientUnits="userSpaceOnUse">
<stop offset="0.100962" stop-color="#DF6DB7"/>
<stop offset="1" stop-color="#B85172"/>
</linearGradient>
</defs>
</svg>
