<svg width="252" height="240" viewBox="0 0 252 240" fill="none" xmlns="http://www.w3.org/2000/svg">
<path d="M149.792 104.107C118.531 102.531 104.134 89.1572 92.9888 78.4807C102.072 65.7159 120.961 54.329 152.223 55.9054C183.484 57.4818 199.655 75.1545 207.583 83.4211C200.585 89.8112 181.054 105.684 149.792 104.107Z" fill="url(#paint0_linear_1360_41648)"/>
<path d="M58.6235 125.034C67.1627 93.948 81.2783 85.7731 94.8552 77.0397C102.975 88.1722 114.819 108.097 106.28 139.184C97.7404 170.27 77.7714 181.926 67.4137 187.983C62.3036 179.458 50.0843 156.121 58.6235 125.034Z" fill="url(#paint1_linear_1360_41648)"/>
<path d="M85.6876 139.911C79.4748 108.278 87.545 92.4679 93.6567 79.0203C103.739 85.7882 118.533 101.647 124.746 133.281C130.959 164.914 121.502 183.616 116.602 193.327C109.66 187.692 91.9005 171.545 85.6876 139.911Z" fill="url(#paint2_linear_1360_41648)"/>
<path d="M137.933 120.748C110.462 103.876 99.402 92.6276 93.6562 79.0196C105.466 76.1933 132.058 70.6633 159.529 87.5346C186.999 104.406 194.342 124.035 198.161 134.219C189.312 135.504 165.403 137.619 137.933 120.748Z" fill="url(#paint3_linear_1360_41648)"/>
<path d="M109.615 127.838C92.8794 105.659 94.5651 91.6355 94.1887 78.9439C104.507 80.4262 120.442 85.9634 137.177 108.143C153.913 130.322 153.7 148.329 153.596 157.675C146.123 155.9 126.351 150.017 109.615 127.838Z" fill="url(#paint4_linear_1360_41648)"/>
<circle cx="162.573" cy="170.259" r="10.371" transform="rotate(142.963 162.573 170.259)" fill="url(#paint5_linear_1360_41648)"/>
<defs>
<linearGradient id="paint0_linear_1360_41648" x1="200.979" y1="82.8935" x2="85.7011" y2="77.0805" gradientUnits="userSpaceOnUse">
<stop offset="0.134615" stop-color="#83C7BA"/>
<stop offset="0.475962" stop-color="#D0E7E3"/>
</linearGradient>
<linearGradient id="paint1_linear_1360_41648" x1="68.5247" y1="181.382" x2="99.2678" y2="69.4644" gradientUnits="userSpaceOnUse">
<stop offset="0.134615" stop-color="#83C7BA"/>
<stop offset="0.475962" stop-color="#D0E7E3"/>
</linearGradient>
<linearGradient id="paint2_linear_1360_41648" x1="76.3084" y1="92.1586" x2="132.491" y2="90.3731" gradientUnits="userSpaceOnUse">
<stop offset="0.225962" stop-color="#ABC67A"/>
<stop offset="0.625" stop-color="#699C53"/>
</linearGradient>
<linearGradient id="paint3_linear_1360_41648" x1="96.4637" y1="95.2798" x2="133.229" y2="52.7591" gradientUnits="userSpaceOnUse">
<stop offset="0.225962" stop-color="#ABC67A"/>
<stop offset="0.625" stop-color="#699C53"/>
</linearGradient>
<linearGradient id="paint4_linear_1360_41648" x1="153.434" y1="157.798" x2="94.1236" y2="79.1962" gradientUnits="userSpaceOnUse">
<stop offset="0.100962" stop-color="#DF6DB7"/>
<stop offset="1" stop-color="#B85172"/>
</linearGradient>
<linearGradient id="paint5_linear_1360_41648" x1="172.944" y1="179.321" x2="148.547" y2="167.806" gradientUnits="userSpaceOnUse">
<stop offset="0.225962" stop-color="#ABC67A"/>
<stop offset="0.625" stop-color="#699C53"/>
</linearGradient>
</defs>
</svg>
