<svg width="148" height="134" viewBox="0 0 148 134" fill="none" xmlns="http://www.w3.org/2000/svg">
<path d="M14.1522 80.1138C15.4239 83.5246 17.3466 86.6546 19.8108 89.3251C22.275 91.9955 25.2323 94.1542 28.5138 95.6778C31.7954 97.2014 35.337 98.0601 38.9364 98.2049C42.5358 98.3496 46.1225 97.7776 49.4917 96.5215C52.8609 95.2654 55.9466 93.3497 58.5728 90.884C61.1989 88.4182 63.3139 85.4506 64.7972 82.1506C66.2804 78.8506 67.1027 75.2828 67.2172 71.6509C67.3317 68.019 66.7362 64.3942 65.4646 60.9834L39.8084 70.5486L14.1522 80.1138Z" fill="url(#paint0_linear_1360_41692)"/>
<path d="M65.4667 60.9746C64.1951 57.5638 62.2723 54.4338 59.8081 51.7633C57.3439 49.0929 54.3866 46.9342 51.1051 45.4106C47.8235 43.887 44.2819 43.0283 40.6825 42.8835C37.0832 42.7388 33.4965 43.3108 30.1272 44.5669C26.758 45.823 23.6723 47.7387 21.0461 50.2044C18.42 52.6702 16.305 55.6378 14.8218 58.9378C13.3385 62.2378 12.5162 65.8056 12.4017 69.4375C12.2872 73.0694 12.8827 76.6942 14.1543 80.105L39.8105 70.5398L65.4667 60.9746Z" fill="url(#paint1_linear_1360_41692)"/>
<path d="M75.9188 57.0825C77.1905 60.4933 79.1132 63.6233 81.5774 66.2938C84.0416 68.9643 86.9989 71.123 90.2805 72.6466C93.562 74.1701 97.1036 75.0288 100.703 75.1736C104.302 75.3184 107.889 74.7464 111.258 73.4902C114.627 72.2341 117.713 70.3185 120.339 67.8527C122.965 65.387 125.081 62.4194 126.564 59.1193C128.047 55.8193 128.869 52.2515 128.984 48.6197C129.098 44.9878 128.503 41.363 127.231 37.9521L101.575 47.5173L75.9188 57.0825Z" fill="url(#paint2_linear_1360_41692)"/>
<path d="M127.233 37.9473C125.962 34.5365 124.039 31.4065 121.575 28.736C119.111 26.0655 116.153 23.9069 112.872 22.3833C109.59 20.8597 106.049 20.001 102.449 19.8562C98.8498 19.7114 95.2631 20.2834 91.8938 21.5396C88.5246 22.7957 85.4389 24.7113 82.8128 27.1771C80.1866 29.6428 78.0716 32.6104 76.5884 35.9105C75.1051 39.2105 74.2828 42.7783 74.1683 46.4101C74.0538 50.042 74.6493 53.6668 75.9209 57.0777L101.577 47.5125L127.233 37.9473Z" fill="url(#paint3_linear_1360_41692)"/>
<path d="M71.0847 99.858C78.631 123.093 51.4498 125.779 51.2167 125.222C50.9836 124.664 35.6938 84.9713 75.4983 74.0609L83.5378 94.9072L71.0847 99.858Z" fill="url(#paint4_linear_1360_41692)"/>
<path d="M95.6497 90.8471C105.691 113.594 128.009 96.8083 127.808 96.2265C127.606 95.6447 112.26 55.1249 74.8535 74.4446L82.9057 95.7317L95.6497 90.8471Z" fill="url(#paint5_linear_1360_41692)"/>
<path d="M96.6942 87.8805C98.2999 92.1874 98.3893 96.8588 96.9427 100.867C95.4961 104.875 92.632 107.892 88.9805 109.253C85.3289 110.614 81.1891 110.209 77.4716 108.126C73.7541 106.043 70.7636 102.454 69.1579 98.1466L82.9261 93.0135L96.6942 87.8805Z" fill="url(#paint6_linear_1360_41692)"/>
<path d="M50.0507 47.2275C48.4449 42.9205 48.3555 38.2491 49.8022 34.241C51.2488 30.2329 54.1129 27.2164 57.7644 25.855C61.416 24.4936 65.5558 24.8989 69.2733 26.9818C72.9907 29.0646 75.9813 32.6544 77.587 36.9613L63.8188 42.0944L50.0507 47.2275Z" fill="url(#paint7_linear_1360_41692)"/>
<path d="M50.2919 42.4693C41.0815 20.6231 19.8238 35.7764 20.0073 36.3333C20.1908 36.8903 34.199 75.7221 69.7256 58.6633L62.3756 38.2633L50.2919 42.4693Z" fill="url(#paint8_linear_1360_41692)"/>
<path d="M73.6564 33.6094C66.5494 10.5493 93.192 8.83212 93.4135 9.38716C93.635 9.94219 108.124 49.4175 69.0239 58.7798L61.4051 38.0475L73.6564 33.6094Z" fill="url(#paint9_linear_1360_41692)"/>
<path d="M68.367 53.3648C30.2909 67.7671 34.9426 108.339 34.9426 108.339C34.9426 108.339 55.6452 110.783 76.2498 74.4182L68.367 53.3648Z" fill="url(#paint10_linear_1360_41692)"/>
<path d="M68.2082 53.4221C106.298 39.1377 129.549 72.6927 129.549 72.6927C129.549 72.6927 118.178 89.7396 76.1662 74.4405L68.2082 53.4221Z" fill="url(#paint11_linear_1360_41692)"/>
<defs>
<linearGradient id="paint0_linear_1360_41692" x1="49.4917" y1="96.5215" x2="30.1251" y2="44.5757" gradientUnits="userSpaceOnUse">
<stop offset="0.100962" stop-color="#DF6DB7"/>
<stop offset="1" stop-color="#B85172"/>
</linearGradient>
<linearGradient id="paint1_linear_1360_41692" x1="31.6462" y1="47.4493" x2="51.3202" y2="100.22" gradientUnits="userSpaceOnUse">
<stop offset="0.134615" stop-color="#83C7BA"/>
<stop offset="0.475962" stop-color="#D0E7E3"/>
</linearGradient>
<linearGradient id="paint2_linear_1360_41692" x1="111.258" y1="73.4902" x2="91.8917" y2="21.5444" gradientUnits="userSpaceOnUse">
<stop offset="0.100962" stop-color="#DF6DB7"/>
<stop offset="1" stop-color="#B85172"/>
</linearGradient>
<linearGradient id="paint3_linear_1360_41692" x1="93.4128" y1="24.422" x2="113.087" y2="77.1926" gradientUnits="userSpaceOnUse">
<stop offset="0.134615" stop-color="#83C7BA"/>
<stop offset="0.475962" stop-color="#D0E7E3"/>
</linearGradient>
<linearGradient id="paint4_linear_1360_41692" x1="69.7226" y1="117.014" x2="54.529" y2="78.7973" gradientUnits="userSpaceOnUse">
<stop offset="0.134615" stop-color="#83C7BA"/>
<stop offset="0.475962" stop-color="#D0E7E3"/>
</linearGradient>
<linearGradient id="paint5_linear_1360_41692" x1="108.294" y1="102.844" x2="93.2996" y2="63.7246" gradientUnits="userSpaceOnUse">
<stop offset="0.134615" stop-color="#83C7BA"/>
<stop offset="0.475962" stop-color="#D0E7E3"/>
</linearGradient>
<linearGradient id="paint6_linear_1360_41692" x1="88.484" y1="107.282" x2="76.1829" y2="74.2873" gradientUnits="userSpaceOnUse">
<stop offset="0.134615" stop-color="#83C7BA"/>
<stop offset="0.475962" stop-color="#D0E7E3"/>
</linearGradient>
<linearGradient id="paint7_linear_1360_41692" x1="57.7644" y1="25.855" x2="69.8732" y2="58.3337" gradientUnits="userSpaceOnUse">
<stop offset="0.100962" stop-color="#DF6DB7"/>
<stop offset="1" stop-color="#B85172"/>
</linearGradient>
<linearGradient id="paint8_linear_1360_41692" x1="38.0051" y1="28.4556" x2="50.9208" y2="65.5613" gradientUnits="userSpaceOnUse">
<stop offset="0.100962" stop-color="#DF6DB7"/>
<stop offset="1" stop-color="#B85172"/>
</linearGradient>
<linearGradient id="paint9_linear_1360_41692" x1="74.1071" y1="14.7304" x2="87.7389" y2="52.3609" gradientUnits="userSpaceOnUse">
<stop offset="0.100962" stop-color="#DF6DB7"/>
<stop offset="1" stop-color="#B85172"/>
</linearGradient>
<linearGradient id="paint10_linear_1360_41692" x1="20.729" y1="86.945" x2="85.7831" y2="90.0766" gradientUnits="userSpaceOnUse">
<stop offset="0.225962" stop-color="#ABC67A"/>
<stop offset="0.625" stop-color="#699C53"/>
</linearGradient>
<linearGradient id="paint11_linear_1360_41692" x1="126.121" y1="47.2443" x2="79.3077" y2="92.4724" gradientUnits="userSpaceOnUse">
<stop offset="0.225962" stop-color="#ABC67A"/>
<stop offset="0.625" stop-color="#699C53"/>
</linearGradient>
</defs>
</svg>
