<svg width="185" height="171" viewBox="0 0 185 171" fill="none" xmlns="http://www.w3.org/2000/svg">
<path d="M72.4 111.611C94.2637 118.232 102.063 127.665 108.486 135.838C100.339 141.513 86.0091 145.488 64.1454 138.867C42.2817 132.245 33.2589 119.133 28.7809 112.933C34.5901 110.54 50.5363 104.989 72.4 111.611Z" fill="url(#paint0_linear_1360_41629)"/>
<path d="M143.975 115.484C128.714 132.869 116.058 135.239 105.89 137.787C105.474 129.226 107.311 114.081 122.573 96.6962C137.834 79.311 153.608 76.4006 161.156 74.8299C160.891 81.1548 159.237 98.0988 143.975 115.484Z" fill="url(#paint1_linear_1360_41629)"/>
<path d="M81.7887 96.4289C100.426 109.639 104.197 121.957 107.136 132.536C96.8772 136.372 81.2762 136.658 62.6384 123.448C44.0005 110.239 40.5347 93.622 38.6894 85.7061C45.3318 84.7499 63.1508 83.2192 81.7887 96.4289Z" fill="url(#paint2_linear_1360_41629)"/>
<path d="M135.995 98.6292C128.922 120.655 116.788 127.398 107.375 133.432C102.481 125.391 96.5421 110.257 103.615 88.2313C110.688 66.2056 125.834 57.8423 132.988 53.6702C136 59.8129 143.068 76.6036 135.995 98.6292Z" fill="url(#paint3_linear_1360_41629)"/>
<path d="M97.8816 50.846C94.6871 66.1214 87.4591 71.5911 81.8964 76.3713C78.3752 71.3896 73.7994 61.7532 76.994 46.4777C80.1886 31.2023 89.2141 24.4103 93.465 21.054C95.6991 24.9175 101.076 35.5705 97.8816 50.846Z" fill="url(#paint4_linear_1360_41629)"/>
<path d="M80.5961 48.6485C90.5848 60.639 90.383 69.701 90.675 77.0296C84.5836 76.6956 74.1891 74.2975 64.2004 62.307C54.2117 50.3166 54.4934 39.0246 54.5028 33.6083C58.9183 34.2567 70.6074 36.6581 80.5961 48.6485Z" fill="url(#paint5_linear_1360_41629)"/>
<path d="M73.9223 57.4011C87.1543 66.6607 88.574 76.9661 90.2259 85.1061C83.4219 87.3286 71.4797 89.0596 58.2477 79.8C45.0157 70.5403 43.2803 57.6859 42.3086 51.574C47.3144 50.4211 60.6902 48.1414 73.9223 57.4011Z" fill="url(#paint6_linear_1360_41629)"/>
<path d="M94.0569 54.0052C98.533 69.2774 93.242 78.0899 89.4724 85.377C82.8423 82.9043 72.5505 76.8925 68.0744 61.6203C63.5983 46.3481 70.2253 35.3777 73.2631 30.0714C77.8421 32.2621 89.5808 38.733 94.0569 54.0052Z" fill="url(#paint7_linear_1360_41629)"/>
<path d="M113.329 62.7301C107.114 78.0733 97.8152 81.5566 90.173 85.1193C86.5022 78.8768 81.67 67.7677 87.8845 52.4245C94.0989 37.0814 106.358 32.3237 112.155 29.9159C114.381 34.6223 119.543 47.387 113.329 62.7301Z" fill="url(#paint8_linear_1360_41629)"/>
<path d="M72.4 111.611C94.2637 118.232 102.063 127.665 108.486 135.838C100.339 141.513 86.0091 145.488 64.1454 138.867C42.2817 132.245 33.2589 119.133 28.7809 112.933C34.5901 110.54 50.5363 104.989 72.4 111.611Z" fill="url(#paint9_linear_1360_41629)"/>
<path d="M143.975 115.484C128.714 132.869 116.058 135.239 105.89 137.787C105.474 129.226 107.311 114.081 122.573 96.6962C137.834 79.311 153.608 76.4006 161.156 74.8299C160.891 81.1548 159.237 98.0988 143.975 115.484Z" fill="url(#paint10_linear_1360_41629)"/>
<path d="M81.7887 96.4289C100.426 109.639 104.197 121.957 107.136 132.536C96.8772 136.372 81.2762 136.658 62.6384 123.448C44.0005 110.239 40.5347 93.622 38.6894 85.7061C45.3318 84.7499 63.1508 83.2192 81.7887 96.4289Z" fill="url(#paint11_linear_1360_41629)"/>
<path d="M135.995 98.6292C128.922 120.655 116.788 127.398 107.375 133.432C102.481 125.391 96.5421 110.257 103.615 88.2313C110.688 66.2056 125.834 57.8423 132.988 53.6702C136 59.8129 143.068 76.6036 135.995 98.6292Z" fill="url(#paint12_linear_1360_41629)"/>
<path d="M97.8816 50.846C94.6871 66.1214 87.4591 71.5911 81.8964 76.3713C78.3752 71.3896 73.7994 61.7532 76.994 46.4777C80.1886 31.2023 89.2141 24.4103 93.465 21.054C95.6991 24.9175 101.076 35.5705 97.8816 50.846Z" fill="url(#paint13_linear_1360_41629)"/>
<path d="M80.5961 48.6485C90.5848 60.639 90.383 69.701 90.675 77.0296C84.5836 76.6956 74.1891 74.2975 64.2004 62.307C54.2117 50.3166 54.4934 39.0246 54.5028 33.6083C58.9183 34.2567 70.6074 36.6581 80.5961 48.6485Z" fill="url(#paint14_linear_1360_41629)"/>
<path d="M73.9223 57.4011C87.1543 66.6607 88.574 76.9661 90.2259 85.1061C83.4219 87.3286 71.4797 89.0596 58.2477 79.8C45.0157 70.5403 43.2803 57.6859 42.3086 51.574C47.3144 50.4211 60.6902 48.1414 73.9223 57.4011Z" fill="url(#paint15_linear_1360_41629)"/>
<path d="M94.0569 54.0052C98.533 69.2774 93.242 78.0899 89.4724 85.377C82.8423 82.9043 72.5505 76.8925 68.0744 61.6203C63.5983 46.3481 70.2253 35.3777 73.2631 30.0714C77.8421 32.2621 89.5808 38.733 94.0569 54.0052Z" fill="url(#paint16_linear_1360_41629)"/>
<path d="M113.329 62.7301C107.114 78.0733 97.8152 81.5566 90.173 85.1193C86.5022 78.8768 81.67 67.7677 87.8845 52.4245C94.0989 37.0814 106.358 32.3237 112.155 29.9159C114.381 34.6223 119.543 47.387 113.329 62.7301Z" fill="url(#paint17_linear_1360_41629)"/>
<defs>
<linearGradient id="paint0_linear_1360_41629" x1="105.405" y1="121.606" x2="88.3239" y2="156.702" gradientUnits="userSpaceOnUse">
<stop offset="0.225962" stop-color="#ABC67A"/>
<stop offset="0.625" stop-color="#699C53"/>
</linearGradient>
<linearGradient id="paint1_linear_1360_41629" x1="120.937" y1="141.728" x2="95.9805" y2="111.701" gradientUnits="userSpaceOnUse">
<stop offset="0.225962" stop-color="#ABC67A"/>
<stop offset="0.625" stop-color="#699C53"/>
</linearGradient>
<linearGradient id="paint2_linear_1360_41629" x1="109.924" y1="116.37" x2="77.4808" y2="147.829" gradientUnits="userSpaceOnUse">
<stop offset="0.225962" stop-color="#ABC67A"/>
<stop offset="0.625" stop-color="#699C53"/>
</linearGradient>
<linearGradient id="paint3_linear_1360_41629" x1="125.318" y1="131.879" x2="84.5555" y2="109.744" gradientUnits="userSpaceOnUse">
<stop offset="0.225962" stop-color="#ABC67A"/>
<stop offset="0.625" stop-color="#699C53"/>
</linearGradient>
<linearGradient id="paint4_linear_1360_41629" x1="92.4972" y1="24.4695" x2="80.9286" y2="79.7868" gradientUnits="userSpaceOnUse">
<stop offset="0.427885" stop-color="#83C7BA"/>
<stop offset="0.889423" stop-color="#D0E7E3"/>
</linearGradient>
<linearGradient id="paint5_linear_1360_41629" x1="56.5788" y1="36.488" x2="92.751" y2="79.9093" gradientUnits="userSpaceOnUse">
<stop offset="0.427885" stop-color="#83C7BA"/>
<stop offset="0.889423" stop-color="#D0E7E3"/>
</linearGradient>
<linearGradient id="paint6_linear_1360_41629" x1="42.1263" y1="51.8345" x2="90.0437" y2="85.3666" gradientUnits="userSpaceOnUse">
<stop offset="0.735577" stop-color="#DF6DB7"/>
<stop offset="1" stop-color="#B85172"/>
</linearGradient>
<linearGradient id="paint7_linear_1360_41629" x1="72.961" y1="30.1599" x2="89.1703" y2="85.4656" gradientUnits="userSpaceOnUse">
<stop offset="0.735577" stop-color="#DF6DB7"/>
<stop offset="1" stop-color="#B85172"/>
</linearGradient>
<linearGradient id="paint8_linear_1360_41629" x1="111.859" y1="29.7961" x2="89.3543" y2="85.3586" gradientUnits="userSpaceOnUse">
<stop offset="0.735577" stop-color="#DF6DB7"/>
<stop offset="1" stop-color="#B85172"/>
</linearGradient>
<linearGradient id="paint9_linear_1360_41629" x1="105.405" y1="121.606" x2="88.3239" y2="156.702" gradientUnits="userSpaceOnUse">
<stop offset="0.225962" stop-color="#ABC67A"/>
<stop offset="0.625" stop-color="#699C53"/>
</linearGradient>
<linearGradient id="paint10_linear_1360_41629" x1="120.937" y1="141.728" x2="95.9805" y2="111.701" gradientUnits="userSpaceOnUse">
<stop offset="0.225962" stop-color="#ABC67A"/>
<stop offset="0.625" stop-color="#699C53"/>
</linearGradient>
<linearGradient id="paint11_linear_1360_41629" x1="109.924" y1="116.37" x2="77.4808" y2="147.829" gradientUnits="userSpaceOnUse">
<stop offset="0.225962" stop-color="#ABC67A"/>
<stop offset="0.625" stop-color="#699C53"/>
</linearGradient>
<linearGradient id="paint12_linear_1360_41629" x1="125.318" y1="131.879" x2="84.5555" y2="109.744" gradientUnits="userSpaceOnUse">
<stop offset="0.225962" stop-color="#ABC67A"/>
<stop offset="0.625" stop-color="#699C53"/>
</linearGradient>
<linearGradient id="paint13_linear_1360_41629" x1="92.4972" y1="24.4695" x2="80.9286" y2="79.7868" gradientUnits="userSpaceOnUse">
<stop offset="0.427885" stop-color="#83C7BA"/>
<stop offset="0.889423" stop-color="#D0E7E3"/>
</linearGradient>
<linearGradient id="paint14_linear_1360_41629" x1="56.5788" y1="36.488" x2="92.751" y2="79.9093" gradientUnits="userSpaceOnUse">
<stop offset="0.427885" stop-color="#83C7BA"/>
<stop offset="0.889423" stop-color="#D0E7E3"/>
</linearGradient>
<linearGradient id="paint15_linear_1360_41629" x1="42.1263" y1="51.8345" x2="90.0437" y2="85.3666" gradientUnits="userSpaceOnUse">
<stop offset="0.735577" stop-color="#DF6DB7"/>
<stop offset="1" stop-color="#B85172"/>
</linearGradient>
<linearGradient id="paint16_linear_1360_41629" x1="72.961" y1="30.1599" x2="89.1703" y2="85.4656" gradientUnits="userSpaceOnUse">
<stop offset="0.735577" stop-color="#DF6DB7"/>
<stop offset="1" stop-color="#B85172"/>
</linearGradient>
<linearGradient id="paint17_linear_1360_41629" x1="111.859" y1="29.7961" x2="89.3543" y2="85.3586" gradientUnits="userSpaceOnUse">
<stop offset="0.735577" stop-color="#DF6DB7"/>
<stop offset="1" stop-color="#B85172"/>
</linearGradient>
</defs>
</svg>
