<svg width="135" height="126" viewBox="0 0 135 126" fill="none" xmlns="http://www.w3.org/2000/svg">
<path d="M46.1795 66.0418L21.1651 77.201M46.1795 66.0418L22.7782 79.6295M46.1795 66.0418L22.8627 81.4706M46.1795 66.0418L24.483 84.056M46.1795 66.0418C46.3653 66.3968 46.548 66.7424 46.7277 67.0791M46.1795 66.0418L32.3204 69.4311L18.4613 72.8204M46.1795 66.0418L33.615 70.3727L21.0504 74.7036M56.3274 79.934C56.9796 80.4612 57.6658 80.9742 58.4013 81.4975L42.4742 105.253L56.88 81.0668L41.4524 104.799L56.3274 79.934ZM56.3274 79.934C56.1722 79.8085 56.0189 79.6822 55.8673 79.5548M39.8851 103.37L55.3775 79.1337M55.3775 79.1337C55.0271 78.8255 54.6852 78.509 54.3489 78.1799M55.3775 79.1337C55.5389 79.2757 55.7021 79.4159 55.8673 79.5548M38.8633 102.916L54.3489 78.1799M54.3489 78.1799C54.1889 78.0233 54.0303 77.8639 53.8726 77.7012M36.7966 101.51L53.4196 77.2215M53.4196 77.2215C53.1367 76.9141 52.856 76.5942 52.576 76.2592M53.4196 77.2215C53.5698 77.3848 53.7208 77.5445 53.8726 77.7012M34.7299 100.103L52.1783 76.778L32.6861 99.1957L51.0869 74.3254M51.0869 74.3254L30.5965 97.2895M51.0869 74.3254C50.6598 73.7268 50.2269 73.0826 49.7823 72.3832M51.0869 74.3254C51.327 74.662 51.5654 74.9842 51.8029 75.2936M28.461 94.3844L50.0199 73.3734L30.0282 95.814L49.1776 71.4099M49.1776 71.4099C49.3819 71.746 49.5833 72.0701 49.7823 72.3832M49.1776 71.4099C49.0153 71.1428 48.851 70.8681 48.6847 70.5855M49.1776 71.4099L24.6435 87.5523M28.3463 91.887L49.7823 72.3832M26.5956 86.4616L47.2748 68.0925M47.2748 68.0925L28.2087 88.8902L48.3138 69.948M47.2748 68.0925L46.7277 67.0791M48.3138 69.948C48.4386 70.165 48.5623 70.3774 48.6847 70.5855M48.3138 69.948C48.1873 69.7283 48.0596 69.504 47.9305 69.2749M46.7277 67.0791L25.5278 85.0091M46.7277 67.0791L19.7813 79.7671M46.7277 67.0791C47.0345 67.6537 47.3328 68.2023 47.6239 68.7268M48.6847 70.5855L27.3015 90.934M22.9158 82.6264L47.362 69.9917L26.2108 88.9819L51.8029 75.2936M51.8029 75.2936C52.0611 75.6298 52.3183 75.9509 52.576 76.2592M34.8216 102.101L52.576 76.2592M36.9112 104.007L53.8726 77.7012M39.4774 105.391L55.8673 79.5548M19.8449 76.2237L47.9305 69.2749M47.9305 69.2749C47.8291 69.0952 47.727 68.9125 47.6239 68.7268M19.404 73.4212L47.6239 68.7268" stroke="#FFDAE4"/>
<path fill-rule="evenodd" clip-rule="evenodd" d="M70.8474 47.3908L46.1541 65.5426C50.2411 72.8083 52.8575 76.4271 58.8983 81.4748L82.478 60.8715C76.6854 55.7007 74.1719 52.8237 70.8474 47.3908Z" fill="#FFAAC1"/>
<path d="M70.8474 47.3908C74.1719 52.8237 76.6854 55.7007 82.478 60.8715L115.089 29.843C113.957 24.3142 112.59 21.635 105.617 19.7669L70.8474 47.3908Z" fill="#FFDAE4"/>
<path d="M70.8474 47.3908L46.1541 65.5426C50.2411 72.8083 52.8575 76.4271 58.8983 81.4748L82.478 60.8715M70.8474 47.3908C74.1719 52.8237 76.6854 55.7007 82.478 60.8715M70.8474 47.3908L105.617 19.7669C112.59 21.635 113.957 24.3142 115.089 29.843L82.478 60.8715" stroke="#8C8C8C"/>
</svg>
