<svg width="735" height="403" viewBox="0 0 735 403" fill="none" xmlns="http://www.w3.org/2000/svg">
<path d="M468.765 262.176C434.293 287.225 437.014 308.175 437.014 308.175C437.014 308.175 482.798 283.842 468.765 262.176Z" fill="url(#paint0_linear_1969_15369)"/>
<path d="M470.43 262.965C447.95 289.012 422.637 288.944 422.637 288.944C422.637 288.944 435.503 260.339 470.43 262.965Z" fill="url(#paint1_linear_1969_15369)"/>
<path d="M466.774 263.483C499.821 239.557 518.08 248.262 518.08 248.262C518.08 248.262 482.32 282.698 466.774 263.483Z" fill="url(#paint2_linear_1969_15369)"/>
<path d="M462.969 257.963C432.905 254.204 422.046 235.01 422.046 235.01C422.046 235.01 443.258 228.512 465.804 244.766L462.969 257.963Z" fill="url(#paint3_linear_1969_15369)"/>
<path d="M463.811 256.816C467.907 226.622 453.506 211.431 453.506 211.431C453.506 211.431 442.468 230.537 451.358 256.407L463.811 256.816Z" fill="url(#paint4_linear_1969_15369)"/>
<path d="M467.001 265.224C497.392 252.509 504.857 229.45 504.857 229.45C504.857 229.45 474.996 232.654 467.001 265.224Z" fill="url(#paint5_linear_1969_15369)"/>
<path d="M508.938 311.164C511.75 315.041 511.949 319.694 509.383 321.555C506.817 323.416 502.456 321.782 499.644 317.905C496.832 314.028 495.24 304.865 495.752 302.762C497.75 303.044 506.126 307.287 508.938 311.164Z" fill="url(#paint6_linear_1969_15369)"/>
<path d="M430.09 222.019C427.278 218.142 427.079 213.49 429.645 211.629C432.212 209.767 436.572 211.401 439.384 215.278C442.196 219.156 443.789 228.319 443.276 230.421C441.278 230.139 432.903 225.896 430.09 222.019Z" fill="url(#paint7_linear_1969_15369)"/>
<path d="M476.996 276.622C470.679 305.105 484.687 320.252 484.687 320.252C484.687 320.252 497.502 302.649 489.968 277.629L476.996 276.622Z" fill="url(#paint8_linear_1969_15369)"/>
<path d="M478.258 276.161C506.195 280.533 514.909 298.537 514.909 298.537C514.909 298.537 494.491 303.878 474.578 288.227L478.258 276.161Z" fill="url(#paint9_linear_1969_15369)"/>
<path d="M475.928 274.212C450.905 292.543 462.536 321.316 462.536 321.316C462.536 321.316 491.626 312.593 485.976 288.025L475.928 274.212Z" fill="url(#paint10_linear_1969_15369)"/>
<path d="M476.188 275.833C501.244 257.585 525.102 277.417 525.102 277.417C525.102 277.417 507.956 302.462 486.284 289.605L476.188 275.833Z" fill="url(#paint11_linear_1969_15369)"/>
<path d="M464.947 258.647C440.698 276.06 417.852 256.82 417.852 256.82C417.852 256.82 434.527 232.814 455.314 245.326L464.947 258.647Z" fill="url(#paint12_linear_1969_15369)"/>
<path d="M464.307 258.982C488.489 241.513 477.477 213.76 477.477 213.76C477.477 213.76 449.44 221.96 454.725 245.629L464.307 258.982Z" fill="url(#paint13_linear_1969_15369)"/>
<ellipse cx="459.679" cy="253.3" rx="8.13238" ry="8.10949" transform="rotate(144.046 459.679 253.3)" fill="url(#paint14_linear_1969_15369)"/>
<ellipse cx="479.652" cy="280.847" rx="8.13238" ry="8.10949" transform="rotate(144.046 479.652 280.847)" fill="url(#paint15_linear_1969_15369)"/>
<path d="M329.155 273.38C351.406 280.119 359.344 289.719 365.881 298.037C357.59 303.813 343.005 307.858 320.754 301.12C298.503 294.381 289.32 281.036 284.763 274.726C290.675 272.291 306.904 266.642 329.155 273.38Z" fill="url(#paint16_linear_1969_15369)"/>
<path d="M402.004 277.318C386.472 295.011 373.593 297.422 363.244 300.016C362.821 291.303 364.691 275.89 380.223 258.197C395.755 240.503 411.808 237.541 419.49 235.943C419.221 242.38 417.536 259.624 402.004 277.318Z" fill="url(#paint17_linear_1969_15369)"/>
<path d="M338.711 257.922C357.68 271.366 361.517 283.902 364.508 294.67C354.067 298.573 338.19 298.864 319.222 285.42C300.254 271.977 296.726 255.065 294.848 247.009C301.608 246.036 319.743 244.478 338.711 257.922Z" fill="url(#paint18_linear_1969_15369)"/>
<path d="M393.875 260.166C386.676 282.582 374.328 289.444 364.747 295.586C359.767 287.402 353.723 272 360.921 249.584C368.12 227.168 383.534 218.656 390.815 214.41C393.88 220.662 401.073 237.75 393.875 260.166Z" fill="url(#paint19_linear_1969_15369)"/>
<path d="M355.093 211.528C351.841 227.074 344.485 232.641 338.824 237.506C335.241 232.436 330.584 222.629 333.835 207.082C337.086 191.536 346.271 184.624 350.598 181.208C352.871 185.14 358.344 195.982 355.093 211.528Z" fill="url(#paint20_linear_1969_15369)"/>
<path d="M337.5 209.296C347.666 221.499 347.461 230.722 347.758 238.18C341.558 237.841 330.98 235.4 320.814 223.197C310.648 210.994 310.935 199.502 310.944 193.99C315.438 194.649 327.334 197.093 337.5 209.296Z" fill="url(#paint21_linear_1969_15369)"/>
<path d="M330.697 218.205C344.163 227.629 345.608 238.117 347.29 246.401C340.365 248.663 328.211 250.424 314.745 241.001C301.278 231.577 299.512 218.495 298.523 212.275C303.618 211.101 317.23 208.781 330.697 218.205Z" fill="url(#paint22_linear_1969_15369)"/>
<path d="M351.195 214.752C355.751 230.295 350.366 239.264 346.529 246.68C339.782 244.163 329.308 238.045 324.752 222.502C320.197 206.959 326.941 195.795 330.033 190.394C334.693 192.624 346.64 199.209 351.195 214.752Z" fill="url(#paint23_linear_1969_15369)"/>
<path d="M370.805 223.629C364.48 239.244 355.016 242.789 347.239 246.415C343.503 240.062 338.585 228.756 344.91 213.141C351.234 197.526 363.71 192.684 369.61 190.233C371.876 195.023 377.129 208.014 370.805 223.629Z" fill="url(#paint24_linear_1969_15369)"/>
<path d="M329.155 273.38C351.406 280.119 359.344 289.719 365.881 298.037C357.59 303.813 343.005 307.858 320.754 301.12C298.503 294.381 289.32 281.036 284.763 274.726C290.675 272.291 306.904 266.642 329.155 273.38Z" fill="url(#paint25_linear_1969_15369)"/>
<path d="M402.004 277.318C386.472 295.011 373.593 297.422 363.244 300.016C362.821 291.303 364.691 275.89 380.223 258.197C395.755 240.503 411.808 237.541 419.49 235.943C419.221 242.38 417.536 259.624 402.004 277.318Z" fill="url(#paint26_linear_1969_15369)"/>
<path d="M338.711 257.922C357.68 271.366 361.517 283.902 364.508 294.67C354.067 298.573 338.19 298.864 319.222 285.42C300.254 271.977 296.726 255.065 294.848 247.009C301.608 246.036 319.743 244.478 338.711 257.922Z" fill="url(#paint27_linear_1969_15369)"/>
<path d="M393.875 260.166C386.676 282.582 374.328 289.444 364.747 295.586C359.767 287.402 353.723 272 360.921 249.584C368.12 227.168 383.534 218.656 390.815 214.41C393.88 220.662 401.073 237.75 393.875 260.166Z" fill="url(#paint28_linear_1969_15369)"/>
<path d="M355.093 211.528C351.841 227.074 344.485 232.641 338.824 237.506C335.241 232.436 330.584 222.629 333.835 207.082C337.086 191.536 346.271 184.624 350.598 181.208C352.871 185.14 358.344 195.982 355.093 211.528Z" fill="url(#paint29_linear_1969_15369)"/>
<path d="M337.5 209.296C347.666 221.499 347.461 230.722 347.758 238.18C341.558 237.841 330.98 235.4 320.814 223.197C310.648 210.994 310.935 199.502 310.944 193.99C315.438 194.649 327.334 197.093 337.5 209.296Z" fill="url(#paint30_linear_1969_15369)"/>
<path d="M330.697 218.205C344.163 227.629 345.608 238.117 347.29 246.401C340.365 248.663 328.211 250.424 314.745 241.001C301.278 231.577 299.512 218.495 298.523 212.275C303.618 211.101 317.23 208.781 330.697 218.205Z" fill="url(#paint31_linear_1969_15369)"/>
<path d="M351.195 214.752C355.751 230.295 350.366 239.264 346.529 246.68C339.782 244.163 329.308 238.045 324.752 222.502C320.197 206.959 326.941 195.795 330.033 190.394C334.693 192.624 346.64 199.209 351.195 214.752Z" fill="url(#paint32_linear_1969_15369)"/>
<path d="M370.805 223.629C364.48 239.244 355.016 242.789 347.239 246.415C343.503 240.062 338.585 228.756 344.91 213.141C351.234 197.526 363.71 192.684 369.61 190.233C371.876 195.023 377.129 208.014 370.805 223.629Z" fill="url(#paint33_linear_1969_15369)"/>
<path d="M128.738 340.351C135.801 352.057 135.487 359.376 135.065 365.582C129.17 364.839 121.208 360.862 114.145 349.156C107.081 337.45 108.327 328.006 108.822 323.456C112.363 324.721 121.675 328.645 128.738 340.351Z" fill="url(#paint34_linear_1969_15369)"/>
<path d="M158.991 370.773C145.24 372.383 138.666 368.364 133.125 365.421C136.371 361.449 143.258 355.455 157.009 353.845C170.76 352.235 178.937 357.264 182.921 359.591C180.269 362.296 172.742 369.163 158.991 370.773Z" fill="url(#paint35_linear_1969_15369)"/>
<path d="M139.001 337.37C141.99 350.711 138.728 357.697 135.794 363.577C129.697 361.17 122.649 355.044 119.66 341.703C116.671 328.362 121.791 319.588 124.143 315.33C127.479 317.567 136.012 324.029 139.001 337.37Z" fill="url(#paint36_linear_1969_15369)"/>
<path d="M162.2 360.082C150.229 367.036 142.134 365.17 135.531 364.079C136.579 358.543 140.005 349.437 151.977 342.482C163.948 335.528 174.032 337.882 178.884 338.895C177.76 342.832 174.172 353.127 162.2 360.082Z" fill="url(#paint37_linear_1969_15369)"/>
<path d="M164.417 323.565C156.875 329.074 151.47 328.608 147.082 328.503C147.514 324.877 149.342 318.76 156.884 313.252C164.427 307.743 171.16 308.342 174.395 308.554C173.839 311.166 171.959 318.056 164.417 323.565Z" fill="url(#paint38_linear_1969_15369)"/>
<path d="M157.614 315.669C157.247 325.001 153.525 328.948 150.718 332.322C148.144 329.732 144.486 324.5 144.852 315.168C145.219 305.835 149.87 300.929 152.045 298.526C153.747 300.584 157.98 306.336 157.614 315.669Z" fill="url(#paint39_linear_1969_15369)"/>
<path d="M151.145 316.874C153.314 326.293 149.815 331.442 147.287 335.722C143.372 333.983 137.37 329.965 135.201 320.547C133.031 311.128 137.412 304.719 139.43 301.613C142.117 303.107 148.975 307.455 151.145 316.874Z" fill="url(#paint40_linear_1969_15369)"/>
<path d="M161.45 323.435C157.318 332.017 151.434 333.813 146.838 335.541C144.883 331.784 142.718 324.987 146.85 316.406C150.982 307.824 158.324 305.604 161.801 304.464C162.958 307.273 165.582 314.853 161.45 323.435Z" fill="url(#paint41_linear_1969_15369)"/>
<path d="M166.528 335.034C157.617 339.362 152.088 337.183 147.263 335.703C148.134 331.458 150.439 324.584 159.35 320.255C168.262 315.927 175.617 318.726 179.159 319.979C178.262 322.963 175.44 330.705 166.528 335.034Z" fill="url(#paint42_linear_1969_15369)"/>
<path d="M128.738 340.351C135.801 352.057 135.487 359.376 135.065 365.582C129.17 364.839 121.208 360.862 114.145 349.156C107.081 337.45 108.327 328.006 108.822 323.456C112.363 324.721 121.675 328.645 128.738 340.351Z" fill="url(#paint43_linear_1969_15369)"/>
<path d="M158.991 370.773C145.24 372.383 138.666 368.364 133.125 365.421C136.371 361.449 143.258 355.455 157.009 353.845C170.76 352.235 178.937 357.264 182.921 359.591C180.269 362.296 172.742 369.163 158.991 370.773Z" fill="url(#paint44_linear_1969_15369)"/>
<path d="M139.001 337.37C141.99 350.711 138.728 357.697 135.794 363.577C129.697 361.17 122.649 355.044 119.66 341.703C116.671 328.362 121.791 319.588 124.143 315.33C127.479 317.567 136.012 324.029 139.001 337.37Z" fill="url(#paint45_linear_1969_15369)"/>
<path d="M162.2 360.082C150.229 367.036 142.134 365.17 135.531 364.079C136.579 358.543 140.005 349.437 151.977 342.482C163.948 335.528 174.032 337.882 178.884 338.895C177.76 342.832 174.172 353.127 162.2 360.082Z" fill="url(#paint46_linear_1969_15369)"/>
<path d="M164.417 323.565C156.875 329.074 151.47 328.608 147.082 328.503C147.514 324.877 149.342 318.76 156.884 313.252C164.427 307.743 171.16 308.342 174.395 308.554C173.839 311.166 171.959 318.056 164.417 323.565Z" fill="url(#paint47_linear_1969_15369)"/>
<path d="M157.614 315.669C157.247 325.001 153.525 328.948 150.718 332.322C148.144 329.732 144.486 324.5 144.852 315.168C145.219 305.835 149.87 300.929 152.045 298.526C153.747 300.584 157.98 306.336 157.614 315.669Z" fill="url(#paint48_linear_1969_15369)"/>
<path d="M151.145 316.874C153.314 326.293 149.815 331.442 147.287 335.722C143.372 333.983 137.37 329.965 135.201 320.547C133.031 311.128 137.412 304.719 139.43 301.613C142.117 303.107 148.975 307.455 151.145 316.874Z" fill="url(#paint49_linear_1969_15369)"/>
<path d="M161.45 323.435C157.318 332.017 151.434 333.813 146.838 335.541C144.883 331.784 142.718 324.987 146.85 316.406C150.982 307.824 158.324 305.604 161.801 304.464C162.958 307.273 165.582 314.853 161.45 323.435Z" fill="url(#paint50_linear_1969_15369)"/>
<path d="M166.528 335.034C157.617 339.362 152.088 337.183 147.263 335.703C148.134 331.458 150.439 324.584 159.35 320.255C168.262 315.927 175.617 318.726 179.159 319.979C178.262 322.963 175.44 330.705 166.528 335.034Z" fill="url(#paint51_linear_1969_15369)"/>
<path d="M609.441 223.007C577.625 221.402 562.973 207.792 551.631 196.926C560.875 183.935 580.099 172.346 611.915 173.951C643.73 175.555 660.187 193.541 668.256 201.954C661.133 208.457 641.256 224.611 609.441 223.007Z" fill="url(#paint52_linear_1969_15369)"/>
<path d="M516.661 244.302C525.351 212.664 539.717 204.345 553.535 195.456C561.799 206.786 573.852 227.064 565.162 258.702C556.471 290.339 536.148 302.202 525.607 308.366C520.406 299.689 507.97 275.939 516.661 244.302Z" fill="url(#paint53_linear_1969_15369)"/>
<path d="M544.207 259.44C537.884 227.246 546.098 211.156 552.318 197.47C562.578 204.357 577.635 220.497 583.958 252.692C590.28 284.886 580.657 303.919 575.669 313.802C568.604 308.067 550.53 291.634 544.207 259.44Z" fill="url(#paint54_linear_1969_15369)"/>
<path d="M597.378 239.947C569.42 222.777 558.164 211.329 552.317 197.479C564.335 194.603 591.399 188.975 619.356 206.145C647.314 223.316 654.787 243.292 658.673 253.657C649.668 254.965 625.335 257.117 597.378 239.947Z" fill="url(#paint55_linear_1969_15369)"/>
<path d="M568.551 247.162C551.519 224.589 553.235 210.318 552.852 197.401C563.353 198.91 579.57 204.545 596.602 227.117C613.634 249.69 613.418 268.016 613.312 277.528C605.707 275.721 585.584 269.734 568.551 247.162Z" fill="url(#paint56_linear_1969_15369)"/>
<circle cx="622.456" cy="290.334" r="10.5548" transform="rotate(142.963 622.456 290.334)" fill="url(#paint57_linear_1969_15369)"/>
<path d="M278.777 351.595C295.012 363.112 298.171 375.202 300.506 384.735C291.275 388.482 277.254 388.144 261.019 376.627C244.785 365.11 242.142 350.108 240.71 342.966C246.646 341.927 262.543 340.078 278.777 351.595Z" fill="url(#paint58_linear_1969_15369)"/>
<path d="M334.829 371.482C319.636 385.246 309.272 384.813 299.006 384.864C298.45 376.12 298.897 361.386 314.09 347.622C329.283 333.859 343.976 334.421 351.6 334.707C351.432 341.026 350.022 357.718 334.829 371.482Z" fill="url(#paint59_linear_1969_15369)"/>
<path d="M325.392 354.261C317.927 373.354 308.201 379.082 300.331 384.211C297.232 377.138 294.708 363.579 302.173 344.486C309.638 325.393 321.096 318.587 327.04 315.05C328.841 320.443 332.857 335.168 325.392 354.261Z" fill="url(#paint60_linear_1969_15369)"/>
<path d="M290.815 346.709C299.795 365.138 301.889 374.949 300.327 384.211C293.026 381.696 276.87 375.586 267.891 357.157C258.911 338.727 261.672 325.69 263.1 318.922C268.286 321.253 281.836 328.28 290.815 346.709Z" fill="url(#paint61_linear_1969_15369)"/>
<path d="M308.427 352.573C309.835 370.185 304.144 377.134 300.013 384.072C294.983 379.754 288.324 371.344 286.916 353.731C285.508 336.119 291.769 326.53 295.015 321.551C298.419 325.054 307.019 334.96 308.427 352.573Z" fill="url(#paint62_linear_1969_15369)"/>
<circle cx="294.501" cy="311.736" r="6.59506" transform="rotate(-4.57092 294.501 311.736)" fill="url(#paint63_linear_1969_15369)"/>
<path d="M135.23 169.815C151.096 123.539 183.216 113.944 183.216 113.944C183.216 113.944 178.096 158.03 151.277 171.524L135.23 169.815Z" fill="url(#paint64_linear_1969_15369)"/>
<path d="M135.274 169.197C140.954 217.821 170.294 234.042 170.294 234.042C170.294 234.042 174.499 190.312 151.164 171.408L135.274 169.197Z" fill="url(#paint65_linear_1969_15369)"/>
<path d="M194.275 163.84C191.299 163.526 188.311 164.483 185.97 166.502C183.628 168.52 182.125 171.435 181.79 174.604C181.455 177.774 182.316 180.938 184.184 183.402C186.052 185.865 188.773 187.426 191.749 187.741L193.012 175.79L194.275 163.84Z" fill="url(#paint66_linear_1969_15369)"/>
<path d="M193.515 163.486C177.987 160.929 184.887 138.436 185.275 138.456C185.664 138.477 212.935 140.946 206.79 176.446L192.465 175.156L193.515 163.486Z" fill="url(#paint67_linear_1969_15369)"/>
<path d="M191.317 186.913C175.565 186.535 178.095 210.347 178.481 210.4C178.867 210.454 206.149 213.14 206.822 176.455L192.492 175.037L191.317 186.913Z" fill="url(#paint68_linear_1969_15369)"/>
<path d="M149.007 170.582C150.611 197.88 176.994 205.728 176.994 205.728C176.994 205.728 184.557 179.985 163.418 172.483L149.007 170.582Z" fill="url(#paint69_linear_1969_15369)"/>
<path d="M148.65 171.231C155.134 144.677 183.137 142.586 183.137 142.586C183.137 142.586 185.935 169.25 163.828 172.848L148.65 171.231Z" fill="url(#paint70_linear_1969_15369)"/>
<path d="M532.249 170.117C462.592 130.92 456.685 76.4702 456.685 76.4702C456.685 76.4702 526.006 97.7515 539.747 144.839L532.249 170.117Z" fill="url(#paint71_linear_1969_15369)"/>
<path d="M531.27 169.85C611.08 175.122 645.831 132.782 645.831 132.782C645.831 132.782 576.812 113.076 539.527 144.972L531.27 169.85Z" fill="url(#paint72_linear_1969_15369)"/>
<path d="M540.14 73.4578C538.753 78.1469 539.407 83.2305 541.957 87.5903C544.507 91.9502 548.745 95.2291 553.739 96.7057C558.732 98.1824 564.072 97.7358 568.583 95.4643C573.095 93.1928 576.408 89.2823 577.795 84.5933L558.967 79.0255L540.14 73.4578Z" fill="url(#paint73_linear_1969_15369)"/>
<path d="M539.338 74.5784C530.632 98.7717 496.534 81.0241 496.681 80.4055C496.829 79.7869 508.872 36.7004 564.093 57.0851L557.779 79.7207L539.338 74.5784Z" fill="url(#paint74_linear_1969_15369)"/>
<path d="M576.328 85.0379C571.056 110.236 610.066 113.222 610.266 112.617C610.466 112.013 622.861 68.9726 564.116 57.0281L557.593 79.6323L576.328 85.0379Z" fill="url(#paint75_linear_1969_15369)"/>
<path d="M537.56 148.194C581.898 153.7 602.321 113.632 602.321 113.632C602.321 113.632 563.197 93.8563 544.883 125.601L537.56 148.194Z" fill="url(#paint76_linear_1969_15369)"/>
<path d="M538.498 148.957C497.751 130.675 502.684 85.0604 502.684 85.0604C502.684 85.0604 546.356 88.4612 545.591 125.047L538.498 148.957Z" fill="url(#paint77_linear_1969_15369)"/>
<path d="M407.834 165.495C400.598 185.689 391.386 192.561 383.419 198.201C378.479 190.295 375.424 176.669 382.659 156.475C389.894 136.281 402.615 128.434 408.64 124.525C410.611 130.085 415.069 145.301 407.834 165.495Z" fill="url(#paint78_linear_1969_15369)"/>
<path d="M416.752 218.374C395.693 213.046 389.559 205.363 383.081 197.951C390.062 193.943 402.69 188.194 423.749 193.522C444.808 198.85 453.546 209.721 458.086 215.36C452.685 217.842 437.811 223.702 416.752 218.374Z" fill="url(#paint79_linear_1969_15369)"/>
<path d="M453.139 202.268C432.08 196.94 426.24 185.963 419.762 178.551C426.742 174.543 441.618 160.174 462.677 165.502C483.736 170.83 490.239 190.273 494.778 195.913C489.377 198.395 474.198 207.596 453.139 202.268Z" fill="url(#paint80_linear_1969_15369)"/>
<path d="M416.642 138.182C410.127 159.284 416.759 169.003 419.767 178.548C426.939 174.608 447.092 170.454 453.607 149.352C460.123 128.251 446.683 112.318 444.189 105.394C439.177 108.769 423.158 117.08 416.642 138.182Z" fill="url(#paint81_linear_1969_15369)"/>
<path d="M459.902 135.59C479.194 137.798 486.359 153.336 478.016 168.329" stroke="url(#paint82_linear_1969_15369)" stroke-width="7"/>
<path d="M92.0447 277.754C115.452 283.758 124.123 293.372 131.282 301.718C122.931 308.086 107.967 312.938 84.5598 306.934C61.1528 300.93 51.0214 287.482 46.0072 281.133C52.0377 278.34 68.6377 271.75 92.0447 277.754Z" fill="url(#paint83_linear_1969_15369)"/>
<path d="M150.426 262.215C146.652 286.393 138.676 294.076 131.039 302.117C125.814 294.706 118.045 281.143 121.819 256.965C125.593 232.787 136.873 221.85 142.723 216.168C146.073 221.967 154.2 238.037 150.426 262.215Z" fill="url(#paint84_linear_1969_15369)"/>
<path d="M128.557 223.091C124.783 247.269 113.082 254.967 105.445 263.008C100.221 255.598 82.5484 240.415 86.3225 216.237C90.0966 192.059 111.225 182.733 117.075 177.051C120.425 182.85 132.332 198.913 128.557 223.091Z" fill="url(#paint85_linear_1969_15369)"/>
<path d="M60.4871 270.73C84.8371 275.832 95.0454 267.376 105.437 263.004C100.268 255.372 93.5015 233.202 69.1515 228.1C44.8015 222.998 28.3365 239.739 20.8302 243.26C25.1408 248.53 36.1371 265.628 60.4871 270.73Z" fill="url(#paint86_linear_1969_15369)"/>
<path d="M53.0671 222.473C53.5269 200.603 70.2052 190.942 87.8947 198.733" stroke="url(#paint87_linear_1969_15369)" stroke-width="7"/>
<path d="M416.038 319.516C410.26 307.736 411.17 300.766 412.089 294.867C417.663 296.068 424.945 300.533 430.723 312.312C436.501 324.092 434.524 333.017 433.672 337.326C430.393 335.822 421.817 331.295 416.038 319.516Z" fill="url(#paint88_linear_1969_15369)"/>
<path d="M389.032 300.897C400.343 293.926 406.328 294.508 412.341 294.824C411.125 299.594 408.267 307.586 396.956 314.556C385.645 321.527 377.152 320.729 372.743 320.319C373.955 316.891 377.721 307.867 389.032 300.897Z" fill="url(#paint89_linear_1969_15369)"/>
<path d="M380.592 323.726C391.903 316.756 399.208 318.87 405.221 319.186C404.005 323.956 403.972 336.606 392.661 343.577C381.35 350.548 370.047 345.117 365.638 344.706C366.85 341.278 369.281 330.697 380.592 323.726Z" fill="url(#paint90_linear_1969_15369)"/>
<path d="M424.272 335.016C417.789 323.165 410.698 321.934 405.228 319.187C403.901 324.013 397.137 334.626 403.62 346.477C410.104 358.327 422.821 359.218 426.923 361.074C427.577 357.436 430.756 346.866 424.272 335.016Z" fill="url(#paint91_linear_1969_15369)"/>
<path d="M406.971 355.111C397.782 362.635 387.911 359.159 384.887 349.109" stroke="url(#paint92_linear_1969_15369)" stroke-width="3"/>
<path d="M381.464 6.39336C377.782 5.98359 374.056 6.29421 370.5 7.30746C366.943 8.32072 363.625 10.0168 360.735 12.2988C357.846 14.5808 355.441 17.4041 353.658 20.6075C351.875 23.8108 350.749 27.3315 350.344 30.9686C349.939 34.6056 350.264 38.2877 351.299 41.8047C352.334 45.3217 354.059 48.6046 356.376 51.4662C358.694 54.3277 361.558 56.7117 364.804 58.4821C368.051 60.2525 371.617 61.3746 375.299 61.7844L378.381 34.0889L381.464 6.39336Z" fill="url(#paint93_linear_1969_15369)"/>
<path d="M375.288 61.7824C378.97 62.1922 382.696 61.8816 386.252 60.8683C389.809 59.8551 393.127 58.159 396.017 55.877C398.906 53.595 401.311 50.7717 403.094 47.5683C404.877 44.365 406.003 40.8443 406.408 37.2072C406.813 33.5702 406.488 29.8881 405.453 26.3711C404.418 22.8541 402.693 19.5711 400.375 16.7096C398.058 13.8481 395.194 11.4641 391.948 9.69369C388.701 7.92328 385.135 6.80116 381.453 6.3914L378.371 34.0869L375.288 61.7824Z" fill="url(#paint94_linear_1969_15369)"/>
<path d="M374.03 73.0574C370.348 72.6477 366.623 72.9583 363.066 73.9715C359.509 74.9848 356.192 76.6808 353.302 78.9629C350.412 81.2449 348.007 84.0682 346.224 87.2715C344.441 90.4749 343.315 93.9956 342.91 97.6326C342.506 101.27 342.83 104.952 343.865 108.469C344.9 111.986 346.626 115.269 348.943 118.13C351.26 120.992 354.124 123.376 357.371 125.146C360.617 126.917 364.184 128.039 367.866 128.448L370.948 100.753L374.03 73.0574Z" fill="url(#paint95_linear_1969_15369)"/>
<path d="M367.874 128.454C371.556 128.864 375.282 128.553 378.838 127.54C382.395 126.527 385.713 124.831 388.602 122.549C391.492 120.267 393.897 117.444 395.68 114.24C397.463 111.037 398.589 107.516 398.994 103.879C399.399 100.242 399.074 96.56 398.039 93.043C397.004 89.526 395.279 86.243 392.961 83.3815C390.644 80.52 387.78 78.136 384.534 76.3656C381.287 74.5952 377.721 73.473 374.039 73.0633L370.956 100.759L367.874 128.454Z" fill="url(#paint96_linear_1969_15369)"/>
<path d="M337.399 49.0336C312.829 45.2283 322.861 19.3036 323.474 19.3476C324.087 19.3916 367.161 23.7138 358.809 64.8792L336.183 62.6179L337.399 49.0336Z" fill="url(#paint97_linear_1969_15369)"/>
<path d="M334.308 75.4866C309.036 74.1718 314.045 102.148 314.666 102.232C315.287 102.315 359.137 106.966 358.75 64.1205L335.718 61.6684L334.308 75.4866Z" fill="url(#paint98_linear_1969_15369)"/>
<path d="M336.535 77.7933C331.885 77.2758 327.601 75.2137 324.623 72.0606C321.646 68.9074 320.22 64.9215 320.658 60.9797C321.097 57.038 323.365 53.4631 326.963 51.0418C330.56 48.6204 335.193 47.5507 339.843 48.0681L338.189 62.9307L336.535 77.7933Z" fill="url(#paint99_linear_1969_15369)"/>
<path d="M394.873 54.0622C399.522 54.5796 403.807 56.6417 406.784 59.7949C409.761 62.948 411.187 66.9339 410.749 70.8757C410.31 74.8175 408.042 78.3923 404.445 80.8137C400.847 83.2351 396.214 84.3048 391.565 83.7873L393.219 68.9248L394.873 54.0622Z" fill="url(#paint100_linear_1969_15369)"/>
<path d="M399.085 56.4752C423.157 58.1316 419.145 31.8679 418.554 31.779C417.964 31.6902 376.261 26.5988 375.457 66.6992L397.362 69.3821L399.085 56.4752Z" fill="url(#paint101_linear_1969_15369)"/>
<path d="M396.411 81.7693C420.62 85.8935 409.956 110.884 409.35 110.831C408.745 110.777 366.236 105.828 375.671 66.0124L398.001 68.6036L396.411 81.7693Z" fill="url(#paint102_linear_1969_15369)"/>
<path d="M380.876 67.9132C385.263 26.7157 346.272 12.3261 346.272 12.3261C346.272 12.3261 334.553 30.012 358.134 65.4144L380.876 67.9132Z" fill="url(#paint103_linear_1969_15369)"/>
<path d="M380.895 67.7336C376.395 108.889 335.245 114.615 335.245 114.615C335.245 114.615 324.976 96.4647 358.15 65.3192L380.895 67.7336Z" fill="url(#paint104_linear_1969_15369)"/>
<path d="M162.006 286.095C163.301 289.566 165.257 292.752 167.765 295.469C170.273 298.187 173.283 300.384 176.623 301.935C179.962 303.485 183.567 304.359 187.23 304.506C190.893 304.654 194.543 304.072 197.972 302.793C201.401 301.515 204.542 299.565 207.214 297.056C209.887 294.546 212.039 291.526 213.549 288.168C215.058 284.809 215.895 281.178 216.012 277.482C216.128 273.786 215.522 270.097 214.228 266.625L188.117 276.36L162.006 286.095Z" fill="url(#paint105_linear_1969_15369)"/>
<path d="M214.222 266.616C212.928 263.145 210.971 259.959 208.463 257.242C205.955 254.524 202.946 252.327 199.606 250.776C196.266 249.226 192.662 248.352 188.999 248.204C185.336 248.057 181.685 248.639 178.256 249.918C174.827 251.196 171.687 253.146 169.014 255.655C166.342 258.165 164.189 261.185 162.68 264.543C161.17 267.902 160.333 271.533 160.217 275.229C160.1 278.925 160.706 282.614 162 286.086L188.111 276.351L214.222 266.616Z" fill="url(#paint106_linear_1969_15369)"/>
<path d="M224.863 262.657C226.157 266.129 228.114 269.314 230.622 272.032C233.13 274.75 236.139 276.947 239.479 278.497C242.819 280.048 246.423 280.922 250.086 281.069C253.749 281.216 257.4 280.634 260.829 279.356C264.258 278.077 267.398 276.128 270.071 273.618C272.743 271.109 274.896 268.089 276.405 264.73C277.915 261.372 278.752 257.741 278.868 254.044C278.985 250.348 278.379 246.659 277.085 243.188L250.974 252.923L224.863 262.657Z" fill="url(#paint107_linear_1969_15369)"/>
<path d="M277.085 243.175C275.791 239.703 273.834 236.518 271.327 233.8C268.819 231.082 265.809 228.885 262.469 227.335C259.13 225.784 255.525 224.91 251.862 224.763C248.199 224.616 244.549 225.198 241.12 226.476C237.691 227.755 234.55 229.704 231.878 232.214C229.205 234.723 227.052 237.743 225.543 241.102C224.033 244.46 223.196 248.091 223.08 251.788C222.963 255.484 223.57 259.173 224.864 262.644L250.975 252.909L277.085 243.175Z" fill="url(#paint108_linear_1969_15369)"/>
<path d="M219.938 306.183C227.618 329.83 199.955 332.564 199.718 331.997C199.48 331.429 183.919 291.033 224.429 279.929L232.611 301.145L219.938 306.183Z" fill="url(#paint109_linear_1969_15369)"/>
<path d="M244.945 297.015C255.165 320.166 277.878 303.082 277.673 302.49C277.468 301.898 261.85 260.66 223.78 280.322L231.975 301.987L244.945 297.015Z" fill="url(#paint110_linear_1969_15369)"/>
<path d="M246.004 293.997C247.638 298.381 247.729 303.135 246.257 307.214C244.785 311.293 241.87 314.363 238.154 315.749C234.438 317.134 230.224 316.722 226.441 314.602C222.658 312.482 219.614 308.829 217.98 304.445L231.992 299.221L246.004 293.997Z" fill="url(#paint111_linear_1969_15369)"/>
<path d="M198.546 252.628C196.911 248.244 196.82 243.49 198.293 239.411C199.765 235.332 202.68 232.262 206.396 230.876C210.112 229.491 214.326 229.903 218.109 232.023C221.892 234.143 224.936 237.796 226.57 242.18L212.558 247.404L198.546 252.628Z" fill="url(#paint112_linear_1969_15369)"/>
<path d="M198.783 247.79C189.409 225.556 167.775 240.978 167.961 241.545C168.148 242.112 182.405 281.632 218.561 264.271L211.081 243.509L198.783 247.79Z" fill="url(#paint113_linear_1969_15369)"/>
<path d="M222.563 238.773C215.33 215.305 242.445 213.557 242.67 214.122C242.895 214.687 257.641 254.862 217.848 264.39L210.094 243.29L222.563 238.773Z" fill="url(#paint114_linear_1969_15369)"/>
<path d="M217.174 258.874C178.423 273.532 183.157 314.823 183.157 314.823C183.157 314.823 204.227 317.31 225.197 280.301L217.174 258.874Z" fill="url(#paint115_linear_1969_15369)"/>
<path d="M217.01 258.933C255.775 244.396 279.438 278.545 279.438 278.545C279.438 278.545 267.866 295.894 225.109 280.324L217.01 258.933Z" fill="url(#paint116_linear_1969_15369)"/>
<path d="M504.904 356.723C505.736 358.956 506.995 361.006 508.609 362.754C510.222 364.502 512.158 365.916 514.307 366.913C516.455 367.911 518.774 368.473 521.131 368.568C523.487 368.663 525.835 368.288 528.041 367.466C530.247 366.643 532.267 365.389 533.987 363.775C535.706 362.16 537.091 360.217 538.062 358.057C539.033 355.896 539.572 353.56 539.647 351.182C539.722 348.805 539.332 346.431 538.499 344.198L521.701 350.461L504.904 356.723Z" fill="url(#paint117_linear_1969_15369)"/>
<path d="M538.491 344.199C537.658 341.966 536.399 339.916 534.786 338.168C533.173 336.419 531.236 335.006 529.088 334.009C526.939 333.011 524.621 332.449 522.264 332.354C519.907 332.259 517.559 332.634 515.353 333.456C513.147 334.279 511.127 335.533 509.408 337.147C507.688 338.762 506.304 340.705 505.332 342.865C504.361 345.026 503.823 347.362 503.748 349.739C503.673 352.117 504.063 354.491 504.895 356.724L521.693 350.461L538.491 344.199Z" fill="url(#paint118_linear_1969_15369)"/>
<path d="M545.337 341.649C546.17 343.882 547.429 345.931 549.042 347.68C550.656 349.428 552.592 350.842 554.74 351.839C556.889 352.837 559.208 353.399 561.564 353.494C563.921 353.588 566.269 353.214 568.475 352.391C570.681 351.569 572.701 350.315 574.42 348.7C576.14 347.086 577.525 345.143 578.496 342.983C579.467 340.822 580.005 338.486 580.08 336.108C580.155 333.73 579.765 331.357 578.933 329.124L562.135 335.386L545.337 341.649Z" fill="url(#paint119_linear_1969_15369)"/>
<path d="M578.93 329.121C578.098 326.887 576.839 324.838 575.225 323.09C573.612 321.341 571.676 319.928 569.527 318.93C567.379 317.933 565.06 317.371 562.703 317.276C560.347 317.181 557.999 317.556 555.793 318.378C553.587 319.201 551.567 320.455 549.847 322.069C548.128 323.683 546.743 325.626 545.772 327.787C544.801 329.948 544.262 332.284 544.187 334.661C544.112 337.039 544.502 339.412 545.335 341.646L562.133 335.383L578.93 329.121Z" fill="url(#paint120_linear_1969_15369)"/>
<path d="M542.177 369.657C547.117 384.869 529.321 386.628 529.169 386.263C529.016 385.898 519.006 359.91 545.066 352.767L550.33 366.416L542.177 369.657Z" fill="url(#paint121_linear_1969_15369)"/>
<path d="M558.259 363.753C564.833 378.646 579.445 367.656 579.313 367.275C579.181 366.894 569.134 340.365 544.643 353.014L549.915 366.951L558.259 363.753Z" fill="url(#paint122_linear_1969_15369)"/>
<path d="M558.943 361.814C559.994 364.634 560.052 367.693 559.105 370.317C558.158 372.941 556.283 374.916 553.892 375.807C551.501 376.699 548.791 376.433 546.357 375.07C543.923 373.706 541.965 371.356 540.914 368.536L549.928 365.175L558.943 361.814Z" fill="url(#paint123_linear_1969_15369)"/>
<path d="M528.394 335.213C527.343 332.393 527.285 329.335 528.232 326.711C529.179 324.086 531.054 322.111 533.445 321.22C535.835 320.329 538.546 320.594 540.98 321.958C543.414 323.321 545.372 325.672 546.423 328.492L537.409 331.852L528.394 335.213Z" fill="url(#paint124_linear_1969_15369)"/>
<path d="M528.555 332.086C522.525 317.783 508.607 327.704 508.727 328.069C508.847 328.433 518.019 353.857 541.279 342.688L536.467 329.332L528.555 332.086Z" fill="url(#paint125_linear_1969_15369)"/>
<path d="M543.846 326.291C539.193 311.193 556.636 310.069 556.781 310.432C556.926 310.796 566.412 336.641 540.813 342.771L535.825 329.197L543.846 326.291Z" fill="url(#paint126_linear_1969_15369)"/>
<path d="M540.399 339.222C515.47 348.651 518.516 375.215 518.516 375.215C518.516 375.215 532.07 376.814 545.56 353.006L540.399 339.222Z" fill="url(#paint127_linear_1969_15369)"/>
<path d="M540.282 339.26C565.22 329.907 580.443 351.877 580.443 351.877C580.443 351.877 572.998 363.037 545.492 353.021L540.282 339.26Z" fill="url(#paint128_linear_1969_15369)"/>
<path d="M268.71 139.547C217.144 146.789 208.057 170.953 208.057 170.953C208.057 170.953 271.417 170.975 268.71 139.547Z" fill="url(#paint129_linear_1969_15369)"/>
<path d="M270.055 141.344C230.854 156.545 203.582 141.945 203.582 141.945C203.582 141.945 233.879 118.467 270.055 141.344Z" fill="url(#paint130_linear_1969_15369)"/>
<path d="M265.811 139.812C315.197 132.963 329.9 152.834 329.9 152.834C329.9 152.834 271.557 169.464 265.811 139.812Z" fill="url(#paint131_linear_1969_15369)"/>
<path d="M264.867 131.674C234.588 110.364 233.887 83.4244 233.887 83.4244C233.887 83.4244 260.502 88.5867 275.498 119.062L264.867 131.674Z" fill="url(#paint132_linear_1969_15369)"/>
<path d="M266.439 130.915C288.187 100.689 281.367 76.036 281.367 76.036C281.367 76.036 258.494 90.3147 253.239 123.328L266.439 130.915Z" fill="url(#paint133_linear_1969_15369)"/>
<path d="M265.059 141.829C305.145 145.551 326.432 124.957 326.432 124.957C326.432 124.957 292.377 111.278 265.059 141.829Z" fill="url(#paint134_linear_1969_15369)"/>
<path d="M283.931 215.439C284.74 221.236 282.285 226.37 278.448 226.905C274.611 227.441 270.845 223.176 270.036 217.379C269.227 211.582 272.767 200.782 274.527 198.808C276.52 200.258 283.122 209.642 283.931 215.439Z" fill="url(#paint135_linear_1969_15369)"/>
<path d="M250.03 74.0333C249.221 68.2364 251.676 63.103 255.513 62.5675C259.35 62.032 263.116 66.2971 263.925 72.094C264.734 77.8909 261.194 88.6908 259.434 90.6649C257.441 89.2146 250.839 79.8302 250.03 74.0333Z" fill="url(#paint136_linear_1969_15369)"/>
<path d="M269.302 159.858C246.142 186.963 252.563 211.344 252.563 211.344C252.563 211.344 276.49 199.706 282.721 168.389L269.302 159.858Z" fill="url(#paint137_linear_1969_15369)"/>
<path d="M270.923 160.074C298.556 180.824 297.625 205.248 297.625 205.248C297.625 205.248 272.531 199.294 260.029 170.981L270.923 160.074Z" fill="url(#paint138_linear_1969_15369)"/>
<path d="M269.539 156.644C232.023 162.061 228.059 199.779 228.059 199.779C228.059 199.779 264.45 207.062 272.454 177.313L269.539 156.644Z" fill="url(#paint139_linear_1969_15369)"/>
<path d="M268.879 158.537C306.384 153.229 320.743 188.317 320.743 188.317C320.743 188.317 287.872 205.498 271.869 179.19L268.879 158.537Z" fill="url(#paint140_linear_1969_15369)"/>
<path d="M266.614 133.555C230.459 138.426 216.852 104.557 216.852 104.557C216.852 104.557 248.618 88.2265 263.865 113.654L266.614 133.555Z" fill="url(#paint141_linear_1969_15369)"/>
<path d="M265.722 133.553C301.837 128.583 305.883 92.3208 305.883 92.3208C305.883 92.3208 270.929 85.0784 263.047 113.648L265.722 133.553Z" fill="url(#paint142_linear_1969_15369)"/>
<ellipse cx="263.995" cy="124.75" rx="9.93796" ry="9.90999" transform="rotate(172.055 263.995 124.75)" fill="url(#paint143_linear_1969_15369)"/>
<ellipse cx="269.746" cy="165.938" rx="9.93796" ry="9.90999" transform="rotate(172.055 269.746 165.938)" fill="url(#paint144_linear_1969_15369)"/>
<path d="M680.647 306.243C652.496 275.592 632.473 280.571 632.473 280.571C632.473 280.571 661.193 322.277 680.647 306.243Z" fill="url(#paint145_linear_1969_15369)"/>
<path d="M680.077 307.934C652.295 289.03 649.535 264.462 649.535 264.462C649.535 264.462 678.726 273.753 680.077 307.934Z" fill="url(#paint146_linear_1969_15369)"/>
<path d="M679.161 304.451C706.064 333.845 699.655 352.532 699.655 352.532C699.655 352.532 662.253 321.679 679.161 304.451Z" fill="url(#paint147_linear_1969_15369)"/>
<path d="M684.089 300.14C684.38 270.55 701.791 257.872 701.791 257.872C701.791 257.872 710.464 277.728 697.21 301.417L684.089 300.14Z" fill="url(#paint148_linear_1969_15369)"/>
<path d="M685.31 300.824C715.064 301.428 728.196 285.76 728.196 285.76C728.196 285.76 708.426 277.183 684.317 288.697L685.31 300.824Z" fill="url(#paint149_linear_1969_15369)"/>
<path d="M677.497 304.862C693.227 332.93 716.433 337.599 716.433 337.599C716.433 337.599 709.991 308.984 677.497 304.862Z" fill="url(#paint150_linear_1969_15369)"/>
<path d="M637.615 350.672C634.167 353.834 629.675 354.546 627.583 352.264C625.49 349.982 626.589 345.569 630.037 342.407C633.485 339.246 642.197 336.678 644.295 336.941C644.244 338.911 641.062 347.511 637.615 350.672Z" fill="url(#paint151_linear_1969_15369)"/>
<path d="M715.304 264.226C718.752 261.065 723.244 260.352 725.336 262.635C727.429 264.917 726.33 269.33 722.882 272.491C719.434 275.652 710.721 278.22 708.624 277.957C708.675 275.988 711.856 267.388 715.304 264.226Z" fill="url(#paint152_linear_1969_15369)"/>
<path d="M667.563 315.833C639.222 312.884 626.089 328.166 626.089 328.166C626.089 328.166 644.599 338.635 668.034 328.532L667.563 315.833Z" fill="url(#paint153_linear_1969_15369)"/>
<path d="M668.154 317C667.03 344.595 650.534 355.059 650.534 355.059C650.534 355.059 643.073 335.845 656.035 314.777L668.154 317Z" fill="url(#paint154_linear_1969_15369)"/>
<path d="M669.779 314.524C649.2 292.292 622.581 306.789 622.581 306.789C622.581 306.789 634.292 334.04 657.498 325.816L669.779 314.524Z" fill="url(#paint155_linear_1969_15369)"/>
<path d="M668.234 314.964C688.736 337.238 672.157 362.6 672.157 362.6C672.157 362.6 645.944 348.76 655.999 326.298L668.234 314.964Z" fill="url(#paint156_linear_1969_15369)"/>
<path d="M683.649 302.136C664.047 280.552 680.164 256.237 680.164 256.237C680.164 256.237 705.317 269.736 695.498 291.302L683.649 302.136Z" fill="url(#paint157_linear_1969_15369)"/>
<path d="M683.252 301.553C702.901 323.066 728.599 309.283 728.599 309.283C728.599 309.283 717.513 282.996 695.138 290.765L683.252 301.553Z" fill="url(#paint158_linear_1969_15369)"/>
<ellipse cx="688.251" cy="296.43" rx="7.94252" ry="7.92017" transform="rotate(-132.517 688.251 296.43)" fill="url(#paint159_linear_1969_15369)"/>
<ellipse cx="663.757" cy="318.887" rx="7.94252" ry="7.92017" transform="rotate(-132.517 663.757 318.887)" fill="url(#paint160_linear_1969_15369)"/>
<defs>
<linearGradient id="paint0_linear_1969_15369" x1="425.706" y1="302.852" x2="476.489" y2="311.531" gradientUnits="userSpaceOnUse">
<stop offset="0.225962" stop-color="#ABC67A"/>
<stop offset="0.625" stop-color="#699C53"/>
</linearGradient>
<linearGradient id="paint1_linear_1969_15369" x1="433.806" y1="295.603" x2="426.116" y2="260.81" gradientUnits="userSpaceOnUse">
<stop offset="0.225962" stop-color="#ABC67A"/>
<stop offset="0.625" stop-color="#699C53"/>
</linearGradient>
<linearGradient id="paint2_linear_1969_15369" x1="516.598" y1="236.388" x2="509.397" y2="285.188" gradientUnits="userSpaceOnUse">
<stop offset="0.225962" stop-color="#ABC67A"/>
<stop offset="0.625" stop-color="#699C53"/>
</linearGradient>
<linearGradient id="paint3_linear_1969_15369" x1="421.174" y1="250.356" x2="453.581" y2="223.26" gradientUnits="userSpaceOnUse">
<stop offset="0.225962" stop-color="#ABC67A"/>
<stop offset="0.625" stop-color="#699C53"/>
</linearGradient>
<linearGradient id="paint4_linear_1969_15369" x1="467.386" y1="214.268" x2="433.303" y2="236.349" gradientUnits="userSpaceOnUse">
<stop offset="0.225962" stop-color="#ABC67A"/>
<stop offset="0.625" stop-color="#699C53"/>
</linearGradient>
<linearGradient id="paint5_linear_1969_15369" x1="507.596" y1="241.595" x2="478.216" y2="224.251" gradientUnits="userSpaceOnUse">
<stop offset="0.225962" stop-color="#ABC67A"/>
<stop offset="0.625" stop-color="#699C53"/>
</linearGradient>
<linearGradient id="paint6_linear_1969_15369" x1="496.618" y1="303.807" x2="510.465" y2="322.898" gradientUnits="userSpaceOnUse">
<stop offset="0.427885" stop-color="#83C7BA"/>
<stop offset="0.889423" stop-color="#D0E7E3"/>
</linearGradient>
<linearGradient id="paint7_linear_1969_15369" x1="442.411" y1="229.377" x2="428.564" y2="210.286" gradientUnits="userSpaceOnUse">
<stop offset="0.427885" stop-color="#83C7BA"/>
<stop offset="0.889423" stop-color="#D0E7E3"/>
</linearGradient>
<linearGradient id="paint8_linear_1969_15369" x1="470.389" y1="316.867" x2="505.809" y2="294.913" gradientUnits="userSpaceOnUse">
<stop offset="0.225962" stop-color="#ABC67A"/>
<stop offset="0.625" stop-color="#699C53"/>
</linearGradient>
<linearGradient id="paint9_linear_1969_15369" x1="516.912" y1="284.432" x2="484.564" y2="308.63" gradientUnits="userSpaceOnUse">
<stop offset="0.225962" stop-color="#ABC67A"/>
<stop offset="0.625" stop-color="#699C53"/>
</linearGradient>
<linearGradient id="paint10_linear_1969_15369" x1="481.728" y1="308.572" x2="460.575" y2="290.23" gradientUnits="userSpaceOnUse">
<stop offset="0.100962" stop-color="#DF6DB7"/>
<stop offset="1" stop-color="#B85172"/>
</linearGradient>
<linearGradient id="paint11_linear_1969_15369" x1="507.137" y1="291.813" x2="496.104" y2="266.089" gradientUnits="userSpaceOnUse">
<stop offset="0.100962" stop-color="#DF6DB7"/>
<stop offset="1" stop-color="#B85172"/>
</linearGradient>
<linearGradient id="paint12_linear_1969_15369" x1="435.247" y1="243.071" x2="445.705" y2="267.904" gradientUnits="userSpaceOnUse">
<stop offset="0.100962" stop-color="#DF6DB7"/>
<stop offset="1" stop-color="#B85172"/>
</linearGradient>
<linearGradient id="paint13_linear_1969_15369" x1="458.937" y1="225.892" x2="479.173" y2="243.674" gradientUnits="userSpaceOnUse">
<stop offset="0.100962" stop-color="#DF6DB7"/>
<stop offset="1" stop-color="#B85172"/>
</linearGradient>
<linearGradient id="paint14_linear_1969_15369" x1="460.02" y1="245.191" x2="460.02" y2="261.662" gradientUnits="userSpaceOnUse">
<stop offset="0.269231" stop-color="#D4BC65"/>
<stop offset="1" stop-color="#EEE1B1"/>
</linearGradient>
<linearGradient id="paint15_linear_1969_15369" x1="479.993" y1="272.737" x2="479.993" y2="289.209" gradientUnits="userSpaceOnUse">
<stop offset="0.269231" stop-color="#D4BC65"/>
<stop offset="1" stop-color="#EEE1B1"/>
</linearGradient>
<linearGradient id="paint16_linear_1969_15369" x1="362.745" y1="283.553" x2="345.361" y2="319.271" gradientUnits="userSpaceOnUse">
<stop offset="0.225962" stop-color="#ABC67A"/>
<stop offset="0.625" stop-color="#699C53"/>
</linearGradient>
<linearGradient id="paint17_linear_1969_15369" x1="378.558" y1="304.027" x2="353.159" y2="273.468" gradientUnits="userSpaceOnUse">
<stop offset="0.225962" stop-color="#ABC67A"/>
<stop offset="0.625" stop-color="#699C53"/>
</linearGradient>
<linearGradient id="paint18_linear_1969_15369" x1="367.345" y1="278.217" x2="334.327" y2="310.233" gradientUnits="userSpaceOnUse">
<stop offset="0.225962" stop-color="#ABC67A"/>
<stop offset="0.625" stop-color="#699C53"/>
</linearGradient>
<linearGradient id="paint19_linear_1969_15369" x1="383.008" y1="294.005" x2="341.524" y2="271.478" gradientUnits="userSpaceOnUse">
<stop offset="0.225962" stop-color="#ABC67A"/>
<stop offset="0.625" stop-color="#699C53"/>
</linearGradient>
<linearGradient id="paint20_linear_1969_15369" x1="349.613" y1="184.684" x2="337.839" y2="240.982" gradientUnits="userSpaceOnUse">
<stop offset="0.427885" stop-color="#83C7BA"/>
<stop offset="0.889423" stop-color="#D0E7E3"/>
</linearGradient>
<linearGradient id="paint21_linear_1969_15369" x1="313.057" y1="196.92" x2="349.87" y2="241.111" gradientUnits="userSpaceOnUse">
<stop offset="0.427885" stop-color="#83C7BA"/>
<stop offset="0.889423" stop-color="#D0E7E3"/>
</linearGradient>
<linearGradient id="paint22_linear_1969_15369" x1="298.337" y1="212.54" x2="347.104" y2="246.666" gradientUnits="userSpaceOnUse">
<stop offset="0.735577" stop-color="#DF6DB7"/>
<stop offset="1" stop-color="#B85172"/>
</linearGradient>
<linearGradient id="paint23_linear_1969_15369" x1="329.725" y1="190.484" x2="346.222" y2="246.77" gradientUnits="userSpaceOnUse">
<stop offset="0.735577" stop-color="#DF6DB7"/>
<stop offset="1" stop-color="#B85172"/>
</linearGradient>
<linearGradient id="paint24_linear_1969_15369" x1="369.309" y1="190.111" x2="346.406" y2="246.659" gradientUnits="userSpaceOnUse">
<stop offset="0.735577" stop-color="#DF6DB7"/>
<stop offset="1" stop-color="#B85172"/>
</linearGradient>
<linearGradient id="paint25_linear_1969_15369" x1="362.745" y1="283.553" x2="345.361" y2="319.271" gradientUnits="userSpaceOnUse">
<stop offset="0.225962" stop-color="#ABC67A"/>
<stop offset="0.625" stop-color="#699C53"/>
</linearGradient>
<linearGradient id="paint26_linear_1969_15369" x1="378.558" y1="304.027" x2="353.159" y2="273.468" gradientUnits="userSpaceOnUse">
<stop offset="0.225962" stop-color="#ABC67A"/>
<stop offset="0.625" stop-color="#699C53"/>
</linearGradient>
<linearGradient id="paint27_linear_1969_15369" x1="367.345" y1="278.217" x2="334.327" y2="310.233" gradientUnits="userSpaceOnUse">
<stop offset="0.225962" stop-color="#ABC67A"/>
<stop offset="0.625" stop-color="#699C53"/>
</linearGradient>
<linearGradient id="paint28_linear_1969_15369" x1="383.008" y1="294.005" x2="341.524" y2="271.478" gradientUnits="userSpaceOnUse">
<stop offset="0.225962" stop-color="#ABC67A"/>
<stop offset="0.625" stop-color="#699C53"/>
</linearGradient>
<linearGradient id="paint29_linear_1969_15369" x1="349.613" y1="184.684" x2="337.839" y2="240.982" gradientUnits="userSpaceOnUse">
<stop offset="0.427885" stop-color="#83C7BA"/>
<stop offset="0.889423" stop-color="#D0E7E3"/>
</linearGradient>
<linearGradient id="paint30_linear_1969_15369" x1="313.057" y1="196.92" x2="349.87" y2="241.111" gradientUnits="userSpaceOnUse">
<stop offset="0.427885" stop-color="#83C7BA"/>
<stop offset="0.889423" stop-color="#D0E7E3"/>
</linearGradient>
<linearGradient id="paint31_linear_1969_15369" x1="298.337" y1="212.54" x2="347.104" y2="246.666" gradientUnits="userSpaceOnUse">
<stop offset="0.735577" stop-color="#DF6DB7"/>
<stop offset="1" stop-color="#B85172"/>
</linearGradient>
<linearGradient id="paint32_linear_1969_15369" x1="329.725" y1="190.484" x2="346.222" y2="246.77" gradientUnits="userSpaceOnUse">
<stop offset="0.735577" stop-color="#DF6DB7"/>
<stop offset="1" stop-color="#B85172"/>
</linearGradient>
<linearGradient id="paint33_linear_1969_15369" x1="369.309" y1="190.111" x2="346.406" y2="246.659" gradientUnits="userSpaceOnUse">
<stop offset="0.735577" stop-color="#DF6DB7"/>
<stop offset="1" stop-color="#B85172"/>
</linearGradient>
<linearGradient id="paint34_linear_1969_15369" x1="139.4" y1="358.022" x2="117.742" y2="366.774" gradientUnits="userSpaceOnUse">
<stop offset="0.225962" stop-color="#ABC67A"/>
<stop offset="0.625" stop-color="#699C53"/>
</linearGradient>
<linearGradient id="paint35_linear_1969_15369" x1="138.233" y1="373.203" x2="139.176" y2="349.855" gradientUnits="userSpaceOnUse">
<stop offset="0.225962" stop-color="#ABC67A"/>
<stop offset="0.625" stop-color="#699C53"/>
</linearGradient>
<linearGradient id="paint36_linear_1969_15369" x1="143.513" y1="357.509" x2="116.485" y2="358.488" gradientUnits="userSpaceOnUse">
<stop offset="0.225962" stop-color="#ABC67A"/>
<stop offset="0.625" stop-color="#699C53"/>
</linearGradient>
<linearGradient id="paint37_linear_1969_15369" x1="144.128" y1="370.58" x2="134.884" y2="344.405" gradientUnits="userSpaceOnUse">
<stop offset="0.225962" stop-color="#ABC67A"/>
<stop offset="0.625" stop-color="#699C53"/>
</linearGradient>
<linearGradient id="paint38_linear_1969_15369" x1="172.596" y1="309.684" x2="145.283" y2="329.633" gradientUnits="userSpaceOnUse">
<stop offset="0.427885" stop-color="#83C7BA"/>
<stop offset="0.889423" stop-color="#D0E7E3"/>
</linearGradient>
<linearGradient id="paint39_linear_1969_15369" x1="151.813" y1="300.638" x2="150.486" y2="334.434" gradientUnits="userSpaceOnUse">
<stop offset="0.427885" stop-color="#83C7BA"/>
<stop offset="0.889423" stop-color="#D0E7E3"/>
</linearGradient>
<linearGradient id="paint40_linear_1969_15369" x1="139.244" y1="301.656" x2="147.101" y2="335.765" gradientUnits="userSpaceOnUse">
<stop offset="0.735577" stop-color="#DF6DB7"/>
<stop offset="1" stop-color="#B85172"/>
</linearGradient>
<linearGradient id="paint41_linear_1969_15369" x1="161.631" y1="304.382" x2="146.668" y2="335.459" gradientUnits="userSpaceOnUse">
<stop offset="0.735577" stop-color="#DF6DB7"/>
<stop offset="1" stop-color="#B85172"/>
</linearGradient>
<linearGradient id="paint42_linear_1969_15369" x1="179.075" y1="319.807" x2="146.804" y2="335.482" gradientUnits="userSpaceOnUse">
<stop offset="0.735577" stop-color="#DF6DB7"/>
<stop offset="1" stop-color="#B85172"/>
</linearGradient>
<linearGradient id="paint43_linear_1969_15369" x1="139.4" y1="358.022" x2="117.742" y2="366.774" gradientUnits="userSpaceOnUse">
<stop offset="0.225962" stop-color="#ABC67A"/>
<stop offset="0.625" stop-color="#699C53"/>
</linearGradient>
<linearGradient id="paint44_linear_1969_15369" x1="138.233" y1="373.203" x2="139.176" y2="349.855" gradientUnits="userSpaceOnUse">
<stop offset="0.225962" stop-color="#ABC67A"/>
<stop offset="0.625" stop-color="#699C53"/>
</linearGradient>
<linearGradient id="paint45_linear_1969_15369" x1="143.513" y1="357.509" x2="116.485" y2="358.488" gradientUnits="userSpaceOnUse">
<stop offset="0.225962" stop-color="#ABC67A"/>
<stop offset="0.625" stop-color="#699C53"/>
</linearGradient>
<linearGradient id="paint46_linear_1969_15369" x1="144.128" y1="370.58" x2="134.884" y2="344.405" gradientUnits="userSpaceOnUse">
<stop offset="0.225962" stop-color="#ABC67A"/>
<stop offset="0.625" stop-color="#699C53"/>
</linearGradient>
<linearGradient id="paint47_linear_1969_15369" x1="172.596" y1="309.684" x2="145.283" y2="329.633" gradientUnits="userSpaceOnUse">
<stop offset="0.427885" stop-color="#83C7BA"/>
<stop offset="0.889423" stop-color="#D0E7E3"/>
</linearGradient>
<linearGradient id="paint48_linear_1969_15369" x1="151.813" y1="300.638" x2="150.486" y2="334.434" gradientUnits="userSpaceOnUse">
<stop offset="0.427885" stop-color="#83C7BA"/>
<stop offset="0.889423" stop-color="#D0E7E3"/>
</linearGradient>
<linearGradient id="paint49_linear_1969_15369" x1="139.244" y1="301.656" x2="147.101" y2="335.765" gradientUnits="userSpaceOnUse">
<stop offset="0.735577" stop-color="#DF6DB7"/>
<stop offset="1" stop-color="#B85172"/>
</linearGradient>
<linearGradient id="paint50_linear_1969_15369" x1="161.631" y1="304.382" x2="146.668" y2="335.459" gradientUnits="userSpaceOnUse">
<stop offset="0.735577" stop-color="#DF6DB7"/>
<stop offset="1" stop-color="#B85172"/>
</linearGradient>
<linearGradient id="paint51_linear_1969_15369" x1="179.075" y1="319.807" x2="146.804" y2="335.482" gradientUnits="userSpaceOnUse">
<stop offset="0.735577" stop-color="#DF6DB7"/>
<stop offset="1" stop-color="#B85172"/>
</linearGradient>
<linearGradient id="paint52_linear_1969_15369" x1="661.534" y1="201.417" x2="544.214" y2="195.501" gradientUnits="userSpaceOnUse">
<stop offset="0.134615" stop-color="#83C7BA"/>
<stop offset="0.475962" stop-color="#D0E7E3"/>
</linearGradient>
<linearGradient id="paint53_linear_1969_15369" x1="526.738" y1="301.648" x2="558.026" y2="187.747" gradientUnits="userSpaceOnUse">
<stop offset="0.134615" stop-color="#83C7BA"/>
<stop offset="0.475962" stop-color="#D0E7E3"/>
</linearGradient>
<linearGradient id="paint54_linear_1969_15369" x1="534.662" y1="210.841" x2="591.84" y2="209.024" gradientUnits="userSpaceOnUse">
<stop offset="0.225962" stop-color="#ABC67A"/>
<stop offset="0.625" stop-color="#699C53"/>
</linearGradient>
<linearGradient id="paint55_linear_1969_15369" x1="555.174" y1="214.028" x2="592.59" y2="170.753" gradientUnits="userSpaceOnUse">
<stop offset="0.225962" stop-color="#ABC67A"/>
<stop offset="0.625" stop-color="#699C53"/>
</linearGradient>
<linearGradient id="paint56_linear_1969_15369" x1="613.147" y1="277.653" x2="552.786" y2="197.658" gradientUnits="userSpaceOnUse">
<stop offset="0.100962" stop-color="#DF6DB7"/>
<stop offset="1" stop-color="#B85172"/>
</linearGradient>
<linearGradient id="paint57_linear_1969_15369" x1="633.011" y1="299.557" x2="608.181" y2="287.838" gradientUnits="userSpaceOnUse">
<stop offset="0.225962" stop-color="#ABC67A"/>
<stop offset="0.625" stop-color="#699C53"/>
</linearGradient>
<linearGradient id="paint58_linear_1969_15369" x1="244.073" y1="345.504" x2="303.938" y2="387.974" gradientUnits="userSpaceOnUse">
<stop offset="0.134615" stop-color="#83C7BA"/>
<stop offset="0.475962" stop-color="#D0E7E3"/>
</linearGradient>
<linearGradient id="paint59_linear_1969_15369" x1="348.751" y1="337.87" x2="294.053" y2="387.422" gradientUnits="userSpaceOnUse">
<stop offset="0.134615" stop-color="#83C7BA"/>
<stop offset="0.475962" stop-color="#D0E7E3"/>
</linearGradient>
<linearGradient id="paint60_linear_1969_15369" x1="314.124" y1="383.084" x2="283.371" y2="364.863" gradientUnits="userSpaceOnUse">
<stop offset="0.225962" stop-color="#ABC67A"/>
<stop offset="0.625" stop-color="#699C53"/>
</linearGradient>
<linearGradient id="paint61_linear_1969_15369" x1="304.371" y1="374.529" x2="270.131" y2="384.792" gradientUnits="userSpaceOnUse">
<stop offset="0.225962" stop-color="#ABC67A"/>
<stop offset="0.625" stop-color="#699C53"/>
</linearGradient>
<linearGradient id="paint62_linear_1969_15369" x1="295.144" y1="321.54" x2="300.134" y2="383.958" gradientUnits="userSpaceOnUse">
<stop offset="0.100962" stop-color="#DF6DB7"/>
<stop offset="1" stop-color="#B85172"/>
</linearGradient>
<linearGradient id="paint63_linear_1969_15369" x1="301.096" y1="317.498" x2="285.582" y2="310.176" gradientUnits="userSpaceOnUse">
<stop offset="0.225962" stop-color="#ABC67A"/>
<stop offset="0.625" stop-color="#699C53"/>
</linearGradient>
<linearGradient id="paint64_linear_1969_15369" x1="167.618" y1="106.321" x2="194.474" y2="159.679" gradientUnits="userSpaceOnUse">
<stop offset="0.225962" stop-color="#ABC67A"/>
<stop offset="0.625" stop-color="#699C53"/>
</linearGradient>
<linearGradient id="paint65_linear_1969_15369" x1="153.426" y1="238.177" x2="191.022" y2="192.093" gradientUnits="userSpaceOnUse">
<stop offset="0.225962" stop-color="#ABC67A"/>
<stop offset="0.625" stop-color="#699C53"/>
</linearGradient>
<linearGradient id="paint66_linear_1969_15369" x1="181.79" y1="174.604" x2="204.234" y2="176.976" gradientUnits="userSpaceOnUse">
<stop offset="0.197115" stop-color="#DB7AB9"/>
<stop offset="1" stop-color="#C4476F"/>
</linearGradient>
<linearGradient id="paint67_linear_1969_15369" x1="182.661" y1="156.247" x2="208.619" y2="158.581" gradientUnits="userSpaceOnUse">
<stop offset="0.197115" stop-color="#DB7AB9"/>
<stop offset="1" stop-color="#C4476F"/>
</linearGradient>
<linearGradient id="paint68_linear_1969_15369" x1="179.275" y1="192.104" x2="205.241" y2="194.674" gradientUnits="userSpaceOnUse">
<stop offset="0.197115" stop-color="#DB7AB9"/>
<stop offset="1" stop-color="#C4476F"/>
</linearGradient>
<linearGradient id="paint69_linear_1969_15369" x1="161.596" y1="210.221" x2="179.118" y2="169.318" gradientUnits="userSpaceOnUse">
<stop offset="0.225962" stop-color="#ABC67A"/>
<stop offset="0.625" stop-color="#699C53"/>
</linearGradient>
<linearGradient id="paint70_linear_1969_15369" x1="168.018" y1="135.012" x2="176.885" y2="178.971" gradientUnits="userSpaceOnUse">
<stop offset="0.225962" stop-color="#ABC67A"/>
<stop offset="0.625" stop-color="#699C53"/>
</linearGradient>
<linearGradient id="paint71_linear_1969_15369" x1="439.819" y1="99.2753" x2="533.505" y2="71.9228" gradientUnits="userSpaceOnUse">
<stop offset="0.225962" stop-color="#ABC67A"/>
<stop offset="0.625" stop-color="#699C53"/>
</linearGradient>
<linearGradient id="paint72_linear_1969_15369" x1="647.481" y1="161.11" x2="584.567" y2="87.0551" gradientUnits="userSpaceOnUse">
<stop offset="0.225962" stop-color="#ABC67A"/>
<stop offset="0.625" stop-color="#699C53"/>
</linearGradient>
<linearGradient id="paint73_linear_1969_15369" x1="553.739" y1="96.7057" x2="564.196" y2="61.3453" gradientUnits="userSpaceOnUse">
<stop offset="0.197115" stop-color="#DB7AB9"/>
<stop offset="1" stop-color="#C4476F"/>
</linearGradient>
<linearGradient id="paint74_linear_1969_15369" x1="524.493" y1="89.8748" x2="535.93" y2="48.8576" gradientUnits="userSpaceOnUse">
<stop offset="0.197115" stop-color="#DB7AB9"/>
<stop offset="1" stop-color="#C4476F"/>
</linearGradient>
<linearGradient id="paint75_linear_1969_15369" x1="581.103" y1="105.923" x2="592.921" y2="64.9632" gradientUnits="userSpaceOnUse">
<stop offset="0.197115" stop-color="#DB7AB9"/>
<stop offset="1" stop-color="#C4476F"/>
</linearGradient>
<linearGradient id="paint76_linear_1969_15369" x1="604.98" y1="139.704" x2="544.445" y2="99.4382" gradientUnits="userSpaceOnUse">
<stop offset="0.225962" stop-color="#ABC67A"/>
<stop offset="0.625" stop-color="#699C53"/>
</linearGradient>
<linearGradient id="paint77_linear_1969_15369" x1="486.037" y1="107.11" x2="559.295" y2="105.88" gradientUnits="userSpaceOnUse">
<stop offset="0.225962" stop-color="#ABC67A"/>
<stop offset="0.625" stop-color="#699C53"/>
</linearGradient>
<linearGradient id="paint78_linear_1969_15369" x1="396.911" y1="195.979" x2="364.798" y2="178.313" gradientUnits="userSpaceOnUse">
<stop offset="0.225962" stop-color="#ABC67A"/>
<stop offset="0.625" stop-color="#699C53"/>
</linearGradient>
<linearGradient id="paint79_linear_1969_15369" x1="384.962" y1="210.331" x2="399.398" y2="176.631" gradientUnits="userSpaceOnUse">
<stop offset="0.225962" stop-color="#ABC67A"/>
<stop offset="0.625" stop-color="#699C53"/>
</linearGradient>
<linearGradient id="paint80_linear_1969_15369" x1="495.42" y1="193.376" x2="420.788" y2="174.494" gradientUnits="userSpaceOnUse">
<stop offset="0.100962" stop-color="#DF6DB7"/>
<stop offset="1" stop-color="#B85172"/>
</linearGradient>
<linearGradient id="paint81_linear_1969_15369" x1="446.731" y1="106.179" x2="423.983" y2="179.85" gradientUnits="userSpaceOnUse">
<stop offset="0.100962" stop-color="#DF6DB7"/>
<stop offset="1" stop-color="#B85172"/>
</linearGradient>
<linearGradient id="paint82_linear_1969_15369" x1="467.781" y1="149.83" x2="480.107" y2="148.573" gradientUnits="userSpaceOnUse">
<stop stop-color="#E5D8AB"/>
<stop offset="1" stop-color="#CEB24D"/>
</linearGradient>
<linearGradient id="paint83_linear_1969_15369" x1="127.379" y1="286.817" x2="110.923" y2="324.684" gradientUnits="userSpaceOnUse">
<stop offset="0.225962" stop-color="#ABC67A"/>
<stop offset="0.625" stop-color="#699C53"/>
</linearGradient>
<linearGradient id="paint84_linear_1969_15369" x1="144.729" y1="298.713" x2="105.419" y2="286.044" gradientUnits="userSpaceOnUse">
<stop offset="0.225962" stop-color="#ABC67A"/>
<stop offset="0.625" stop-color="#699C53"/>
</linearGradient>
<linearGradient id="paint85_linear_1969_15369" x1="114.163" y1="176.596" x2="100.788" y2="262.281" gradientUnits="userSpaceOnUse">
<stop offset="0.100962" stop-color="#DF6DB7"/>
<stop offset="1" stop-color="#B85172"/>
</linearGradient>
<linearGradient id="paint86_linear_1969_15369" x1="21.4449" y1="240.327" x2="106.457" y2="258.139" gradientUnits="userSpaceOnUse">
<stop offset="0.100962" stop-color="#DF6DB7"/>
<stop offset="1" stop-color="#B85172"/>
</linearGradient>
<linearGradient id="paint87_linear_1969_15369" x1="68.2155" y1="212.147" x2="65.5171" y2="198.453" gradientUnits="userSpaceOnUse">
<stop stop-color="#E5D8AB"/>
<stop offset="1" stop-color="#CEB24D"/>
</linearGradient>
<linearGradient id="paint88_linear_1969_15369" x1="407.315" y1="301.734" x2="428.75" y2="295.169" gradientUnits="userSpaceOnUse">
<stop offset="0.225962" stop-color="#ABC67A"/>
<stop offset="0.625" stop-color="#699C53"/>
</linearGradient>
<linearGradient id="paint89_linear_1969_15369" x1="406.107" y1="290.374" x2="414.744" y2="311.068" gradientUnits="userSpaceOnUse">
<stop offset="0.225962" stop-color="#ABC67A"/>
<stop offset="0.625" stop-color="#699C53"/>
</linearGradient>
<linearGradient id="paint90_linear_1969_15369" x1="366.478" y1="346.068" x2="406.564" y2="321.365" gradientUnits="userSpaceOnUse">
<stop offset="0.100962" stop-color="#DF6DB7"/>
<stop offset="1" stop-color="#B85172"/>
</linearGradient>
<linearGradient id="paint91_linear_1969_15369" x1="425.495" y1="361.855" x2="402.86" y2="320.483" gradientUnits="userSpaceOnUse">
<stop offset="0.100962" stop-color="#DF6DB7"/>
<stop offset="1" stop-color="#B85172"/>
</linearGradient>
<linearGradient id="paint92_linear_1969_15369" x1="397.366" y1="352.5" x2="392.665" y2="358.445" gradientUnits="userSpaceOnUse">
<stop stop-color="#E5D8AB"/>
<stop offset="1" stop-color="#CEB24D"/>
</linearGradient>
<linearGradient id="paint93_linear_1969_15369" x1="350.344" y1="30.9686" x2="406.419" y2="37.2092" gradientUnits="userSpaceOnUse">
<stop offset="0.100962" stop-color="#DF6DB7"/>
<stop offset="1" stop-color="#B85172"/>
</linearGradient>
<linearGradient id="paint94_linear_1969_15369" x1="403.093" y1="37.2646" x2="346.127" y2="30.9248" gradientUnits="userSpaceOnUse">
<stop offset="0.134615" stop-color="#83C7BA"/>
<stop offset="0.475962" stop-color="#D0E7E3"/>
</linearGradient>
<linearGradient id="paint95_linear_1969_15369" x1="342.91" y1="97.6326" x2="398.985" y2="103.873" gradientUnits="userSpaceOnUse">
<stop offset="0.100962" stop-color="#DF6DB7"/>
<stop offset="1" stop-color="#B85172"/>
</linearGradient>
<linearGradient id="paint96_linear_1969_15369" x1="395.679" y1="103.936" x2="338.713" y2="97.5967" gradientUnits="userSpaceOnUse">
<stop offset="0.134615" stop-color="#83C7BA"/>
<stop offset="0.475962" stop-color="#D0E7E3"/>
</linearGradient>
<linearGradient id="paint97_linear_1969_15369" x1="322.439" y1="39.9246" x2="364.127" y2="43.657" gradientUnits="userSpaceOnUse">
<stop offset="0.134615" stop-color="#83C7BA"/>
<stop offset="0.475962" stop-color="#D0E7E3"/>
</linearGradient>
<linearGradient id="paint98_linear_1969_15369" x1="317.608" y1="81.4683" x2="360.025" y2="85.796" gradientUnits="userSpaceOnUse">
<stop offset="0.134615" stop-color="#83C7BA"/>
<stop offset="0.475962" stop-color="#D0E7E3"/>
</linearGradient>
<linearGradient id="paint99_linear_1969_15369" x1="322.677" y1="61.4332" x2="358.294" y2="65.397" gradientUnits="userSpaceOnUse">
<stop offset="0.134615" stop-color="#83C7BA"/>
<stop offset="0.475962" stop-color="#D0E7E3"/>
</linearGradient>
<linearGradient id="paint100_linear_1969_15369" x1="410.749" y1="70.8757" x2="375.688" y2="66.9738" gradientUnits="userSpaceOnUse">
<stop offset="0.100962" stop-color="#DF6DB7"/>
<stop offset="1" stop-color="#B85172"/>
</linearGradient>
<linearGradient id="paint101_linear_1969_15369" x1="417.453" y1="51.7432" x2="377.819" y2="46.4513" gradientUnits="userSpaceOnUse">
<stop offset="0.100962" stop-color="#DF6DB7"/>
<stop offset="1" stop-color="#B85172"/>
</linearGradient>
<linearGradient id="paint102_linear_1969_15369" x1="413.355" y1="90.8408" x2="372.915" y2="85.9587" gradientUnits="userSpaceOnUse">
<stop offset="0.100962" stop-color="#DF6DB7"/>
<stop offset="1" stop-color="#B85172"/>
</linearGradient>
<linearGradient id="paint103_linear_1969_15369" x1="372.228" y1="9.2302" x2="339.535" y2="66.8904" gradientUnits="userSpaceOnUse">
<stop offset="0.225962" stop-color="#ABC67A"/>
<stop offset="0.625" stop-color="#699C53"/>
</linearGradient>
<linearGradient id="paint104_linear_1969_15369" x1="359.936" y1="123.177" x2="340.328" y2="59.8997" gradientUnits="userSpaceOnUse">
<stop offset="0.225962" stop-color="#ABC67A"/>
<stop offset="0.625" stop-color="#699C53"/>
</linearGradient>
<linearGradient id="paint105_linear_1969_15369" x1="197.972" y1="302.793" x2="178.262" y2="249.927" gradientUnits="userSpaceOnUse">
<stop offset="0.100962" stop-color="#DF6DB7"/>
<stop offset="1" stop-color="#B85172"/>
</linearGradient>
<linearGradient id="paint106_linear_1969_15369" x1="179.802" y1="252.851" x2="199.825" y2="306.557" gradientUnits="userSpaceOnUse">
<stop offset="0.134615" stop-color="#83C7BA"/>
<stop offset="0.475962" stop-color="#D0E7E3"/>
</linearGradient>
<linearGradient id="paint107_linear_1969_15369" x1="260.829" y1="279.356" x2="241.119" y2="226.489" gradientUnits="userSpaceOnUse">
<stop offset="0.100962" stop-color="#DF6DB7"/>
<stop offset="1" stop-color="#B85172"/>
</linearGradient>
<linearGradient id="paint108_linear_1969_15369" x1="242.666" y1="229.41" x2="262.688" y2="283.116" gradientUnits="userSpaceOnUse">
<stop offset="0.134615" stop-color="#83C7BA"/>
<stop offset="0.475962" stop-color="#D0E7E3"/>
</linearGradient>
<linearGradient id="paint109_linear_1969_15369" x1="218.551" y1="323.644" x2="203.088" y2="284.749" gradientUnits="userSpaceOnUse">
<stop offset="0.134615" stop-color="#83C7BA"/>
<stop offset="0.475962" stop-color="#D0E7E3"/>
</linearGradient>
<linearGradient id="paint110_linear_1969_15369" x1="257.813" y1="309.225" x2="242.553" y2="269.412" gradientUnits="userSpaceOnUse">
<stop offset="0.134615" stop-color="#83C7BA"/>
<stop offset="0.475962" stop-color="#D0E7E3"/>
</linearGradient>
<linearGradient id="paint111_linear_1969_15369" x1="237.649" y1="313.742" x2="225.129" y2="280.163" gradientUnits="userSpaceOnUse">
<stop offset="0.134615" stop-color="#83C7BA"/>
<stop offset="0.475962" stop-color="#D0E7E3"/>
</linearGradient>
<linearGradient id="paint112_linear_1969_15369" x1="206.396" y1="230.876" x2="218.719" y2="263.931" gradientUnits="userSpaceOnUse">
<stop offset="0.100962" stop-color="#DF6DB7"/>
<stop offset="1" stop-color="#B85172"/>
</linearGradient>
<linearGradient id="paint113_linear_1969_15369" x1="186.278" y1="233.528" x2="199.423" y2="271.291" gradientUnits="userSpaceOnUse">
<stop offset="0.100962" stop-color="#DF6DB7"/>
<stop offset="1" stop-color="#B85172"/>
</linearGradient>
<linearGradient id="paint114_linear_1969_15369" x1="223.021" y1="219.56" x2="236.895" y2="257.857" gradientUnits="userSpaceOnUse">
<stop offset="0.100962" stop-color="#DF6DB7"/>
<stop offset="1" stop-color="#B85172"/>
</linearGradient>
<linearGradient id="paint115_linear_1969_15369" x1="168.692" y1="293.05" x2="234.899" y2="296.237" gradientUnits="userSpaceOnUse">
<stop offset="0.225962" stop-color="#ABC67A"/>
<stop offset="0.625" stop-color="#699C53"/>
</linearGradient>
<linearGradient id="paint116_linear_1969_15369" x1="275.949" y1="252.646" x2="228.306" y2="298.676" gradientUnits="userSpaceOnUse">
<stop offset="0.225962" stop-color="#ABC67A"/>
<stop offset="0.625" stop-color="#699C53"/>
</linearGradient>
<linearGradient id="paint117_linear_1969_15369" x1="528.041" y1="367.466" x2="515.362" y2="333.456" gradientUnits="userSpaceOnUse">
<stop offset="0.100962" stop-color="#DF6DB7"/>
<stop offset="1" stop-color="#B85172"/>
</linearGradient>
<linearGradient id="paint118_linear_1969_15369" x1="516.348" y1="335.343" x2="529.229" y2="369.893" gradientUnits="userSpaceOnUse">
<stop offset="0.134615" stop-color="#83C7BA"/>
<stop offset="0.475962" stop-color="#D0E7E3"/>
</linearGradient>
<linearGradient id="paint119_linear_1969_15369" x1="568.475" y1="352.391" x2="555.795" y2="318.381" gradientUnits="userSpaceOnUse">
<stop offset="0.100962" stop-color="#DF6DB7"/>
<stop offset="1" stop-color="#B85172"/>
</linearGradient>
<linearGradient id="paint120_linear_1969_15369" x1="556.787" y1="320.265" x2="569.668" y2="354.815" gradientUnits="userSpaceOnUse">
<stop offset="0.134615" stop-color="#83C7BA"/>
<stop offset="0.475962" stop-color="#D0E7E3"/>
</linearGradient>
<linearGradient id="paint121_linear_1969_15369" x1="541.285" y1="380.89" x2="531.337" y2="355.868" gradientUnits="userSpaceOnUse">
<stop offset="0.134615" stop-color="#83C7BA"/>
<stop offset="0.475962" stop-color="#D0E7E3"/>
</linearGradient>
<linearGradient id="paint122_linear_1969_15369" x1="566.537" y1="371.608" x2="556.72" y2="345.996" gradientUnits="userSpaceOnUse">
<stop offset="0.134615" stop-color="#83C7BA"/>
<stop offset="0.475962" stop-color="#D0E7E3"/>
</linearGradient>
<linearGradient id="paint123_linear_1969_15369" x1="553.567" y1="374.517" x2="545.513" y2="352.915" gradientUnits="userSpaceOnUse">
<stop offset="0.134615" stop-color="#83C7BA"/>
<stop offset="0.475962" stop-color="#D0E7E3"/>
</linearGradient>
<linearGradient id="paint124_linear_1969_15369" x1="533.445" y1="321.22" x2="541.373" y2="342.485" gradientUnits="userSpaceOnUse">
<stop offset="0.100962" stop-color="#DF6DB7"/>
<stop offset="1" stop-color="#B85172"/>
</linearGradient>
<linearGradient id="paint125_linear_1969_15369" x1="520.511" y1="322.911" x2="528.967" y2="347.205" gradientUnits="userSpaceOnUse">
<stop offset="0.100962" stop-color="#DF6DB7"/>
<stop offset="1" stop-color="#B85172"/>
</linearGradient>
<linearGradient id="paint126_linear_1969_15369" x1="544.141" y1="313.931" x2="553.066" y2="338.568" gradientUnits="userSpaceOnUse">
<stop offset="0.100962" stop-color="#DF6DB7"/>
<stop offset="1" stop-color="#B85172"/>
</linearGradient>
<linearGradient id="paint127_linear_1969_15369" x1="509.21" y1="361.208" x2="551.802" y2="363.258" gradientUnits="userSpaceOnUse">
<stop offset="0.225962" stop-color="#ABC67A"/>
<stop offset="0.625" stop-color="#699C53"/>
</linearGradient>
<linearGradient id="paint128_linear_1969_15369" x1="578.198" y1="335.215" x2="547.549" y2="364.827" gradientUnits="userSpaceOnUse">
<stop offset="0.225962" stop-color="#ABC67A"/>
<stop offset="0.625" stop-color="#699C53"/>
</linearGradient>
<linearGradient id="paint129_linear_1969_15369" x1="198.911" y1="158.722" x2="248.72" y2="197.228" gradientUnits="userSpaceOnUse">
<stop offset="0.225962" stop-color="#ABC67A"/>
<stop offset="0.625" stop-color="#699C53"/>
</linearGradient>
<linearGradient id="paint130_linear_1969_15369" x1="211.811" y1="155.539" x2="223.481" y2="113.589" gradientUnits="userSpaceOnUse">
<stop offset="0.225962" stop-color="#ABC67A"/>
<stop offset="0.625" stop-color="#699C53"/>
</linearGradient>
<linearGradient id="paint131_linear_1969_15369" x1="335.116" y1="139.172" x2="299.341" y2="187.69" gradientUnits="userSpaceOnUse">
<stop offset="0.225962" stop-color="#ABC67A"/>
<stop offset="0.625" stop-color="#699C53"/>
</linearGradient>
<linearGradient id="paint132_linear_1969_15369" x1="224.14" y1="99.4804" x2="274.654" y2="88.8453" gradientUnits="userSpaceOnUse">
<stop offset="0.225962" stop-color="#ABC67A"/>
<stop offset="0.625" stop-color="#699C53"/>
</linearGradient>
<linearGradient id="paint133_linear_1969_15369" x1="294.714" y1="87.0617" x2="245.27" y2="91.3254" gradientUnits="userSpaceOnUse">
<stop offset="0.225962" stop-color="#ABC67A"/>
<stop offset="0.625" stop-color="#699C53"/>
</linearGradient>
<linearGradient id="paint134_linear_1969_15369" x1="322.418" y1="139.632" x2="300.673" y2="104.06" gradientUnits="userSpaceOnUse">
<stop offset="0.225962" stop-color="#ABC67A"/>
<stop offset="0.625" stop-color="#699C53"/>
</linearGradient>
<linearGradient id="paint135_linear_1969_15369" x1="274.861" y1="200.431" x2="278.845" y2="228.974" gradientUnits="userSpaceOnUse">
<stop offset="0.427885" stop-color="#83C7BA"/>
<stop offset="0.889423" stop-color="#D0E7E3"/>
</linearGradient>
<linearGradient id="paint136_linear_1969_15369" x1="259.1" y1="89.0419" x2="255.116" y2="60.4983" gradientUnits="userSpaceOnUse">
<stop offset="0.427885" stop-color="#83C7BA"/>
<stop offset="0.889423" stop-color="#D0E7E3"/>
</linearGradient>
<linearGradient id="paint137_linear_1969_15369" x1="239.079" y1="199.487" x2="289.892" y2="196.128" gradientUnits="userSpaceOnUse">
<stop offset="0.225962" stop-color="#ABC67A"/>
<stop offset="0.625" stop-color="#699C53"/>
</linearGradient>
<linearGradient id="paint138_linear_1969_15369" x1="307.881" y1="191.181" x2="259.094" y2="198.724" gradientUnits="userSpaceOnUse">
<stop offset="0.225962" stop-color="#ABC67A"/>
<stop offset="0.625" stop-color="#699C53"/>
</linearGradient>
<linearGradient id="paint139_linear_1969_15369" x1="256.078" y1="197.043" x2="243.783" y2="165.115" gradientUnits="userSpaceOnUse">
<stop offset="0.100962" stop-color="#DF6DB7"/>
<stop offset="1" stop-color="#B85172"/>
</linearGradient>
<linearGradient id="paint140_linear_1969_15369" x1="293.099" y1="193.539" x2="295.958" y2="159.454" gradientUnits="userSpaceOnUse">
<stop offset="0.100962" stop-color="#DF6DB7"/>
<stop offset="1" stop-color="#B85172"/>
</linearGradient>
<linearGradient id="paint141_linear_1969_15369" x1="243.508" y1="99.706" x2="240.54" y2="132.5" gradientUnits="userSpaceOnUse">
<stop offset="0.100962" stop-color="#DF6DB7"/>
<stop offset="1" stop-color="#B85172"/>
</linearGradient>
<linearGradient id="paint142_linear_1969_15369" x1="278.918" y1="94.7712" x2="290.546" y2="125.568" gradientUnits="userSpaceOnUse">
<stop offset="0.100962" stop-color="#DF6DB7"/>
<stop offset="1" stop-color="#B85172"/>
</linearGradient>
<linearGradient id="paint143_linear_1969_15369" x1="264.412" y1="114.84" x2="264.412" y2="134.968" gradientUnits="userSpaceOnUse">
<stop offset="0.269231" stop-color="#D4BC65"/>
<stop offset="1" stop-color="#EEE1B1"/>
</linearGradient>
<linearGradient id="paint144_linear_1969_15369" x1="270.163" y1="156.028" x2="270.163" y2="176.156" gradientUnits="userSpaceOnUse">
<stop offset="0.269231" stop-color="#D4BC65"/>
<stop offset="1" stop-color="#EEE1B1"/>
</linearGradient>
<linearGradient id="paint145_linear_1969_15369" x1="636.375" y1="269.005" x2="633.623" y2="319.246" gradientUnits="userSpaceOnUse">
<stop offset="0.225962" stop-color="#ABC67A"/>
<stop offset="0.625" stop-color="#699C53"/>
</linearGradient>
<linearGradient id="paint146_linear_1969_15369" x1="644.321" y1="276.042" x2="677.221" y2="264.698" gradientUnits="userSpaceOnUse">
<stop offset="0.225962" stop-color="#ABC67A"/>
<stop offset="0.625" stop-color="#699C53"/>
</linearGradient>
<linearGradient id="paint147_linear_1969_15369" x1="711.012" y1="349.769" x2="662.859" y2="348.229" gradientUnits="userSpaceOnUse">
<stop offset="0.225962" stop-color="#ABC67A"/>
<stop offset="0.625" stop-color="#699C53"/>
</linearGradient>
<linearGradient id="paint148_linear_1969_15369" x1="686.805" y1="258.739" x2="716.712" y2="287.158" gradientUnits="userSpaceOnUse">
<stop offset="0.225962" stop-color="#ABC67A"/>
<stop offset="0.625" stop-color="#699C53"/>
</linearGradient>
<linearGradient id="paint149_linear_1969_15369" x1="726.992" y1="299.543" x2="701.764" y2="268.939" gradientUnits="userSpaceOnUse">
<stop offset="0.225962" stop-color="#ABC67A"/>
<stop offset="0.625" stop-color="#699C53"/>
</linearGradient>
<linearGradient id="paint150_linear_1969_15369" x1="704.955" y1="341.613" x2="718.503" y2="311.171" gradientUnits="userSpaceOnUse">
<stop offset="0.225962" stop-color="#ABC67A"/>
<stop offset="0.625" stop-color="#699C53"/>
</linearGradient>
<linearGradient id="paint151_linear_1969_15369" x1="643.378" y1="337.897" x2="626.401" y2="353.463" gradientUnits="userSpaceOnUse">
<stop offset="0.427885" stop-color="#83C7BA"/>
<stop offset="0.889423" stop-color="#D0E7E3"/>
</linearGradient>
<linearGradient id="paint152_linear_1969_15369" x1="709.541" y1="277.001" x2="726.518" y2="261.435" gradientUnits="userSpaceOnUse">
<stop offset="0.427885" stop-color="#83C7BA"/>
<stop offset="0.889423" stop-color="#D0E7E3"/>
</linearGradient>
<linearGradient id="paint153_linear_1969_15369" x1="627.777" y1="313.915" x2="653.031" y2="345.831" gradientUnits="userSpaceOnUse">
<stop offset="0.225962" stop-color="#ABC67A"/>
<stop offset="0.625" stop-color="#699C53"/>
</linearGradient>
<linearGradient id="paint154_linear_1969_15369" x1="664.443" y1="355.428" x2="637.354" y2="326.744" gradientUnits="userSpaceOnUse">
<stop offset="0.225962" stop-color="#ABC67A"/>
<stop offset="0.625" stop-color="#699C53"/>
</linearGradient>
<linearGradient id="paint155_linear_1969_15369" x1="637.088" y1="323.987" x2="652.523" y2="301.416" gradientUnits="userSpaceOnUse">
<stop offset="0.100962" stop-color="#DF6DB7"/>
<stop offset="1" stop-color="#B85172"/>
</linearGradient>
<linearGradient id="paint156_linear_1969_15369" x1="656.184" y1="346.776" x2="679.912" y2="333.2" gradientUnits="userSpaceOnUse">
<stop offset="0.100962" stop-color="#DF6DB7"/>
<stop offset="1" stop-color="#B85172"/>
</linearGradient>
<linearGradient id="paint157_linear_1969_15369" x1="695.446" y1="271.58" x2="672.519" y2="284.499" gradientUnits="userSpaceOnUse">
<stop offset="0.100962" stop-color="#DF6DB7"/>
<stop offset="1" stop-color="#B85172"/>
</linearGradient>
<linearGradient id="paint158_linear_1969_15369" x1="714.758" y1="292.65" x2="699.764" y2="314.268" gradientUnits="userSpaceOnUse">
<stop offset="0.100962" stop-color="#DF6DB7"/>
<stop offset="1" stop-color="#B85172"/>
</linearGradient>
<linearGradient id="paint159_linear_1969_15369" x1="688.585" y1="288.51" x2="688.585" y2="304.596" gradientUnits="userSpaceOnUse">
<stop offset="0.269231" stop-color="#D4BC65"/>
<stop offset="1" stop-color="#EEE1B1"/>
</linearGradient>
<linearGradient id="paint160_linear_1969_15369" x1="664.09" y1="310.967" x2="664.09" y2="327.053" gradientUnits="userSpaceOnUse">
<stop offset="0.269231" stop-color="#D4BC65"/>
<stop offset="1" stop-color="#EEE1B1"/>
</linearGradient>
</defs>
</svg>
