<svg width="1377" height="883" viewBox="0 0 1377 883" fill="none" xmlns="http://www.w3.org/2000/svg">
<ellipse cx="1229.75" cy="412.863" rx="37.701" ry="39.3197" fill="url(#paint0_linear_1360_41380)"/>
<ellipse cx="1232.45" cy="485.246" rx="36.8034" ry="38.4261" fill="url(#paint1_linear_1360_41380)"/>
<ellipse cx="1229.75" cy="340.471" rx="37.701" ry="38.4261" fill="url(#paint2_linear_1360_41380)"/>
<ellipse cx="53.1118" cy="51.5099" rx="53.1118" ry="51.5099" transform="matrix(0.968143 0.250399 -0.26748 0.963563 1248.36 605.027)" fill="#78BEB2"/>
<path d="M1137.48 666.703L972.253 662.276" stroke="#00611C" stroke-width="2.31232"/>
<g filter="url(#filter0_f_1360_41380)">
<path d="M901.377 665.352C946.851 847.02 1116.59 834.878 1116.59 834.878C1116.59 834.878 1099.51 658.34 979.16 662.028C858.809 665.716 901.377 665.352 901.377 665.352Z" fill="url(#paint3_linear_1360_41380)"/>
</g>
<path d="M1245.04 394.989C1275.75 394.989 1305.21 384.633 1326.92 366.198C1348.64 347.763 1360.84 322.761 1360.84 296.69C1360.84 270.619 1348.64 245.617 1326.92 227.182C1305.21 208.747 1275.75 198.391 1245.04 198.391L1245.04 296.69L1245.04 394.989Z" fill="url(#paint4_linear_1360_41380)"/>
<path d="M1109.5 179.623C1109.5 156.974 1112.96 134.546 1119.68 113.621C1126.4 92.6962 1136.25 73.6832 1148.67 57.6678C1161.09 41.6524 1175.84 28.9483 1192.06 20.2808C1208.29 11.6134 1225.68 7.1523 1243.25 7.15229C1260.81 7.15229 1278.2 11.6134 1294.43 20.2809C1310.66 28.9483 1325.4 41.6524 1337.82 57.6678C1350.24 73.6832 1360.09 92.6962 1366.82 113.621C1373.54 134.546 1377 156.974 1377 179.623L1243.25 179.623L1109.5 179.623Z" fill="url(#paint5_linear_1360_41380)"/>
<ellipse cx="913.761" cy="95.6185" rx="97.8432" ry="95.6185" fill="url(#paint6_linear_1360_41380)"/>
<path d="M917.172 341.217C1150.82 320.986 1107.51 36.8754 1107.51 36.8754C1107.51 36.8754 912.471 44.0741 914.595 224.416C916.718 404.757 917.172 341.217 917.172 341.217Z" fill="url(#paint7_linear_1360_41380)"/>
<path d="M917.658 341.17C663.291 304.009 722.852 40.5119 722.852 40.5119C722.852 40.5119 935.796 56.0467 925.701 225.275C915.606 394.504 917.658 341.17 917.658 341.17Z" fill="url(#paint8_linear_1360_41380)"/>
<ellipse cx="535.887" cy="223.409" rx="81.6856" ry="78.6395" fill="url(#paint9_linear_1360_41380)"/>
<ellipse cx="1171.11" cy="214.479" rx="35.0081" ry="33.958" fill="#78BEB2"/>
<path d="M540.702 425.64C739.147 391.856 693.937 173.251 693.937 173.251C693.937 173.251 528.001 193.884 535.088 334.597C542.176 475.31 540.702 425.64 540.702 425.64Z" fill="url(#paint10_linear_1360_41380)"/>
<path d="M538.735 429.168C316.516 376.777 369.937 177.718 369.937 177.718C369.937 177.718 556.047 209.486 546.358 339.936C536.669 470.385 538.735 429.168 538.735 429.168Z" fill="url(#paint11_linear_1360_41380)"/>
<path d="M1168.06 299.976C1078.59 286.001 1100.34 196.921 1100.34 196.921C1100.34 196.921 1175.24 203.214 1171.63 261.909C1174.71 254.809 1168.06 299.976 1168.06 299.976Z" fill="url(#paint12_linear_1360_41380)"/>
<path d="M1167.25 299.919C1255.42 288.174 1243.88 196.196 1243.88 196.196C1243.88 196.196 1170.64 200.485 1167.86 260.779C1165.65 253.409 1167.25 299.919 1167.25 299.919Z" fill="url(#paint13_linear_1360_41380)"/>
<g filter="url(#filter1_f_1360_41380)">
<path d="M267.988 391.82C319.511 250.107 149.966 196.771 149.966 196.771C149.966 196.771 101.572 312.387 202.377 361.021C303.182 409.655 267.988 391.82 267.988 391.82Z" fill="url(#paint14_linear_1360_41380)"/>
</g>
<ellipse cx="121.184" cy="310.984" rx="69.1186" ry="66.1287" fill="url(#paint15_linear_1360_41380)"/>
<path d="M268.668 390.875C173.394 511.59 41.1406 397.846 41.1406 397.846C41.1406 397.846 115.625 294.003 208.774 352.4C301.923 410.796 268.668 390.875 268.668 390.875Z" fill="url(#paint16_linear_1360_41380)"/>
<g filter="url(#filter2_f_1360_41380)">
<path d="M923.004 678.223C1205.1 665.188 1158.41 302.487 1158.41 302.487C1158.41 302.487 923.114 301.078 922.168 529.935C921.222 758.792 923.004 678.223 923.004 678.223Z" fill="url(#paint17_linear_1360_41380)"/>
</g>
<g filter="url(#filter3_f_1360_41380)">
<path d="M913.242 671.877C614.809 664.764 668.392 302.505 668.392 302.505C668.392 302.505 917.451 296.206 915.827 524.15C914.203 752.095 913.242 671.877 913.242 671.877Z" fill="url(#paint18_linear_1360_41380)"/>
</g>
<path d="M1245.04 523.673C1275.75 523.673 1305.21 513.316 1326.92 494.882C1348.64 476.447 1360.84 451.444 1360.84 425.374C1360.84 399.303 1348.64 374.3 1326.92 355.865C1305.21 337.431 1275.75 327.074 1245.04 327.074L1245.04 425.374L1245.04 523.673Z" fill="url(#paint19_linear_1360_41380)"/>
<path d="M917.312 337.797L919.108 546.906" stroke="#00611C" stroke-width="2.31232"/>
<path d="M538.439 671.106C254.443 657.336 293.996 352.642 293.996 352.642C293.996 352.642 530.622 353.795 536.249 546.353C541.877 738.91 538.439 671.106 538.439 671.106Z" fill="url(#paint20_linear_1360_41380)"/>
<path d="M341.546 478.053C307.026 587.007 151.598 555.475 151.598 555.475C151.598 555.475 187.184 421.967 268.533 439.673C349.881 457.379 341.546 478.053 341.546 478.053Z" fill="url(#paint21_linear_1360_41380)"/>
<path d="M183.847 551.788C62.7161 592.489 0.328016 452.191 0.328016 452.191C0.328016 452.191 138.05 409.678 174.169 489.894C210.288 570.11 183.847 551.788 183.847 551.788Z" fill="url(#paint22_linear_1360_41380)"/>
<path d="M534.903 423.586V677.377" stroke="#00611C" stroke-width="2.31232"/>
<path d="M308.358 447.138C431.206 411.558 480.335 553.316 480.335 553.316C480.335 553.316 340.829 594.191 308.356 512.536C275.884 430.88 308.358 447.138 308.358 447.138Z" fill="url(#paint23_linear_1360_41380)"/>
<g filter="url(#filter4_f_1360_41380)">
<path d="M167.513 678.399C306.838 723.249 356.491 568.006 356.491 568.006C356.491 568.006 242.73 525.621 196.661 618.173C150.593 710.724 167.513 678.399 167.513 678.399Z" fill="url(#paint24_linear_1360_41380)"/>
</g>
<path d="M1137.47 665.792C1280.82 701.047 1337.22 583.92 1337.22 583.92C1337.22 583.92 1203.38 535.122 1162.94 614.291C1122.51 693.459 1137.47 665.792 1137.47 665.792Z" fill="url(#paint25_linear_1360_41380)"/>
<path d="M1135.36 668.181C1208.2 794.159 1330.98 751.967 1330.98 751.967C1330.98 751.967 1280.22 624.247 1192.1 650.509C1103.99 676.771 1135.36 668.181 1135.36 668.181Z" fill="url(#paint26_linear_1360_41380)"/>
<path d="M736.109 580.815C708.282 446.949 581.768 501.698 581.686 504.604C581.604 507.509 582.887 711.98 822.374 688.219L821.752 580.815L736.109 580.815Z" fill="url(#paint27_linear_1360_41380)"/>
<path d="M892.896 580.095C898.888 464.913 1050.19 497.845 1050.32 500.694C1050.46 503.543 1053.1 704.266 817.569 686.89L816.132 581.457L892.896 580.095Z" fill="url(#paint28_linear_1360_41380)"/>
<path d="M669.082 760.365C678.64 644.773 919.965 677.823 920.181 680.682C920.397 683.542 924.605 884.979 548.934 867.541L546.642 761.733L669.082 760.365Z" fill="url(#paint29_linear_1360_41380)"/>
<path d="M429.89 759.736C416.56 642.181 171.854 679.786 171.723 682.702C171.592 685.617 173.577 890.817 555.57 866.91L554.61 759.124L429.89 759.736Z" fill="url(#paint30_linear_1360_41380)"/>
<path d="M666.044 763.175C666.044 740.423 653.088 718.602 630.025 702.514C606.962 686.425 575.683 677.387 543.067 677.387C510.451 677.387 479.172 686.425 456.109 702.514C433.046 718.602 420.09 740.423 420.09 763.175L543.067 763.175H666.044Z" fill="url(#paint31_linear_1360_41380)"/>
<path d="M527.657 668.547C808.975 663.324 793.951 354.56 793.951 354.56C793.951 354.56 560.369 348.496 539.645 542.69C518.922 736.883 527.657 668.547 527.657 668.547Z" fill="url(#paint32_linear_1360_41380)"/>
<path d="M895.772 580.857C895.772 558.578 887.261 537.212 872.11 521.459C856.959 505.706 836.411 496.855 814.984 496.855C793.558 496.855 773.009 505.706 757.859 521.459C742.708 537.212 734.196 558.578 734.196 580.857L814.984 580.857H895.772Z" fill="url(#paint33_linear_1360_41380)"/>
<defs>
<filter id="filter0_f_1360_41380" x="892.913" y="660.816" width="224.837" height="175.387" filterUnits="userSpaceOnUse" color-interpolation-filters="sRGB">
<feFlood flood-opacity="0" result="BackgroundImageFix"/>
<feBlend mode="normal" in="SourceGraphic" in2="BackgroundImageFix" result="shape"/>
<feGaussianBlur stdDeviation="0.57808" result="effect1_foregroundBlur_1360_41380"/>
</filter>
<filter id="filter1_f_1360_41380" x="137.198" y="195.615" width="141.691" height="200.553" filterUnits="userSpaceOnUse" color-interpolation-filters="sRGB">
<feFlood flood-opacity="0" result="BackgroundImageFix"/>
<feBlend mode="normal" in="SourceGraphic" in2="BackgroundImageFix" result="shape"/>
<feGaussianBlur stdDeviation="0.57808" result="effect1_foregroundBlur_1360_41380"/>
</filter>
<filter id="filter2_f_1360_41380" x="920.735" y="301.33" width="241.715" height="391.803" filterUnits="userSpaceOnUse" color-interpolation-filters="sRGB">
<feFlood flood-opacity="0" result="BackgroundImageFix"/>
<feBlend mode="normal" in="SourceGraphic" in2="BackgroundImageFix" result="shape"/>
<feGaussianBlur stdDeviation="0.57808" result="effect1_foregroundBlur_1360_41380"/>
</filter>
<filter id="filter3_f_1360_41380" x="663.495" y="301.332" width="253.496" height="385.39" filterUnits="userSpaceOnUse" color-interpolation-filters="sRGB">
<feFlood flood-opacity="0" result="BackgroundImageFix"/>
<feBlend mode="normal" in="SourceGraphic" in2="BackgroundImageFix" result="shape"/>
<feGaussianBlur stdDeviation="0.57808" result="effect1_foregroundBlur_1360_41380"/>
</filter>
<filter id="filter4_f_1360_41380" x="163.322" y="557.164" width="194.324" height="130.523" filterUnits="userSpaceOnUse" color-interpolation-filters="sRGB">
<feFlood flood-opacity="0" result="BackgroundImageFix"/>
<feBlend mode="normal" in="SourceGraphic" in2="BackgroundImageFix" result="shape"/>
<feGaussianBlur stdDeviation="0.57808" result="effect1_foregroundBlur_1360_41380"/>
</filter>
<linearGradient id="paint0_linear_1360_41380" x1="1229.75" y1="373.543" x2="1229.75" y2="452.182" gradientUnits="userSpaceOnUse">
<stop offset="0.197115" stop-color="#DB7AB9"/>
<stop offset="1" stop-color="#C4476F"/>
</linearGradient>
<linearGradient id="paint1_linear_1360_41380" x1="1232.45" y1="446.82" x2="1232.45" y2="523.673" gradientUnits="userSpaceOnUse">
<stop offset="0.197115" stop-color="#DB7AB9"/>
<stop offset="1" stop-color="#C4476F"/>
</linearGradient>
<linearGradient id="paint2_linear_1360_41380" x1="1229.75" y1="302.045" x2="1229.75" y2="378.897" gradientUnits="userSpaceOnUse">
<stop offset="0.197115" stop-color="#DB7AB9"/>
<stop offset="1" stop-color="#C4476F"/>
</linearGradient>
<linearGradient id="paint3_linear_1360_41380" x1="1090.37" y1="806.828" x2="926.066" y2="805.572" gradientUnits="userSpaceOnUse">
<stop offset="0.0913462" stop-color="#445C19"/>
<stop offset="0.653846" stop-color="#72A85A"/>
</linearGradient>
<linearGradient id="paint4_linear_1360_41380" x1="1360.84" y1="296.69" x2="1129.25" y2="296.69" gradientUnits="userSpaceOnUse">
<stop offset="0.288462" stop-color="#EADA9D"/>
<stop offset="1" stop-color="#DAC169"/>
</linearGradient>
<linearGradient id="paint5_linear_1360_41380" x1="1377" y1="224.438" x2="1102.58" y2="169.142" gradientUnits="userSpaceOnUse">
<stop stop-color="#62AC9F"/>
<stop offset="0.451923" stop-color="#84CEC1"/>
</linearGradient>
<linearGradient id="paint6_linear_1360_41380" x1="815.918" y1="70.773" x2="1011.02" y2="122.649" gradientUnits="userSpaceOnUse">
<stop stop-color="#62AC9F"/>
<stop offset="0.451923" stop-color="#84CEC1"/>
</linearGradient>
<linearGradient id="paint7_linear_1360_41380" x1="976.484" y1="69.1017" x2="1048.52" y2="313.224" gradientUnits="userSpaceOnUse">
<stop offset="0.197115" stop-color="#DB7AB9"/>
<stop offset="1" stop-color="#C4476F"/>
</linearGradient>
<linearGradient id="paint8_linear_1360_41380" x1="864.909" y1="79.05" x2="789.922" y2="307.19" gradientUnits="userSpaceOnUse">
<stop offset="0.197115" stop-color="#DB7AB9"/>
<stop offset="1" stop-color="#C4476F"/>
</linearGradient>
<linearGradient id="paint9_linear_1360_41380" x1="454.201" y1="202.975" x2="616.76" y2="246.851" gradientUnits="userSpaceOnUse">
<stop stop-color="#62AC9F"/>
<stop offset="0.451923" stop-color="#84CEC1"/>
</linearGradient>
<linearGradient id="paint10_linear_1360_41380" x1="583.264" y1="208.508" x2="650.892" y2="393.986" gradientUnits="userSpaceOnUse">
<stop offset="0.288462" stop-color="#EADA9D"/>
<stop offset="1" stop-color="#DAC169"/>
</linearGradient>
<linearGradient id="paint11_linear_1360_41380" x1="493.949" y1="220.785" x2="426.287" y2="390.594" gradientUnits="userSpaceOnUse">
<stop offset="0.288462" stop-color="#EADA9D"/>
<stop offset="1" stop-color="#DAC169"/>
</linearGradient>
<linearGradient id="paint12_linear_1360_41380" x1="1110.7" y1="212.808" x2="1124.24" y2="295.16" gradientUnits="userSpaceOnUse">
<stop offset="0.0913462" stop-color="#445C19"/>
<stop offset="0.653846" stop-color="#72A85A"/>
</linearGradient>
<linearGradient id="paint13_linear_1360_41380" x1="1232.15" y1="212.188" x2="1214.5" y2="297.137" gradientUnits="userSpaceOnUse">
<stop offset="0.0913462" stop-color="#445C19"/>
<stop offset="0.653846" stop-color="#72A85A"/>
</linearGradient>
<linearGradient id="paint14_linear_1360_41380" x1="181.781" y1="216.226" x2="302.525" y2="305.512" gradientUnits="userSpaceOnUse">
<stop offset="0.0913462" stop-color="#445C19"/>
<stop offset="0.653846" stop-color="#72A85A"/>
</linearGradient>
<linearGradient id="paint15_linear_1360_41380" x1="52.0654" y1="293.801" x2="189.499" y2="331.127" gradientUnits="userSpaceOnUse">
<stop stop-color="#62AC9F"/>
<stop offset="0.451923" stop-color="#84CEC1"/>
</linearGradient>
<linearGradient id="paint16_linear_1360_41380" x1="105.443" y1="336.779" x2="206.901" y2="453.07" gradientUnits="userSpaceOnUse">
<stop offset="0.197115" stop-color="#DB7AB9"/>
<stop offset="1" stop-color="#C4476F"/>
</linearGradient>
<linearGradient id="paint17_linear_1360_41380" x1="1151.14" y1="377.92" x2="1072.37" y2="669.516" gradientUnits="userSpaceOnUse">
<stop offset="0.0913462" stop-color="#445C19"/>
<stop offset="0.653846" stop-color="#72A85A"/>
</linearGradient>
<linearGradient id="paint18_linear_1360_41380" x1="675.215" y1="377.493" x2="754.166" y2="666.606" gradientUnits="userSpaceOnUse">
<stop offset="0.0913462" stop-color="#445C19"/>
<stop offset="0.653846" stop-color="#72A85A"/>
</linearGradient>
<linearGradient id="paint19_linear_1360_41380" x1="1360.84" y1="425.374" x2="1129.25" y2="425.374" gradientUnits="userSpaceOnUse">
<stop offset="0.288462" stop-color="#EADA9D"/>
<stop offset="1" stop-color="#DAC169"/>
</linearGradient>
<linearGradient id="paint20_linear_1360_41380" x1="302.843" y1="416.179" x2="357.747" y2="668.875" gradientUnits="userSpaceOnUse">
<stop offset="0.0913462" stop-color="#445C19"/>
<stop offset="0.653846" stop-color="#72A85A"/>
</linearGradient>
<linearGradient id="paint21_linear_1360_41380" x1="185.92" y1="478.565" x2="307.885" y2="544.609" gradientUnits="userSpaceOnUse">
<stop offset="0.288462" stop-color="#EADA9D"/>
<stop offset="1" stop-color="#DAC169"/>
</linearGradient>
<linearGradient id="paint22_linear_1360_41380" x1="88.9054" y1="436.608" x2="107.726" y2="565.494" gradientUnits="userSpaceOnUse">
<stop offset="0.288462" stop-color="#EADA9D"/>
<stop offset="1" stop-color="#DAC169"/>
</linearGradient>
<linearGradient id="paint23_linear_1360_41380" x1="391.929" y1="566.346" x2="378.608" y2="437.456" gradientUnits="userSpaceOnUse">
<stop offset="0.288462" stop-color="#EADA9D"/>
<stop offset="1" stop-color="#DAC169"/>
</linearGradient>
<linearGradient id="paint24_linear_1360_41380" x1="337.937" y1="597.276" x2="260.261" y2="713.823" gradientUnits="userSpaceOnUse">
<stop offset="0.0913462" stop-color="#445C19"/>
<stop offset="0.653846" stop-color="#72A85A"/>
</linearGradient>
<linearGradient id="paint25_linear_1360_41380" x1="1243.59" y1="567.354" x2="1233.46" y2="679.397" gradientUnits="userSpaceOnUse">
<stop offset="0.197115" stop-color="#DB7AB9"/>
<stop offset="1" stop-color="#C4476F"/>
</linearGradient>
<linearGradient id="paint26_linear_1360_41380" x1="1281.02" y1="674.675" x2="1192.5" y2="746.561" gradientUnits="userSpaceOnUse">
<stop offset="0.197115" stop-color="#DB7AB9"/>
<stop offset="1" stop-color="#C4476F"/>
</linearGradient>
<linearGradient id="paint27_linear_1360_41380" x1="821.654" y1="563.787" x2="588.74" y2="637.764" gradientUnits="userSpaceOnUse">
<stop stop-color="#62AC9F"/>
<stop offset="0.451923" stop-color="#84CEC1"/>
</linearGradient>
<linearGradient id="paint28_linear_1360_41380" x1="815.951" y1="568.164" x2="1044.51" y2="637.78" gradientUnits="userSpaceOnUse">
<stop stop-color="#62AC9F"/>
<stop offset="0.451923" stop-color="#84CEC1"/>
</linearGradient>
<linearGradient id="paint29_linear_1360_41380" x1="732.421" y1="675.343" x2="734.562" y2="867.093" gradientUnits="userSpaceOnUse">
<stop offset="0.197115" stop-color="#DB7AB9"/>
<stop offset="1" stop-color="#C4476F"/>
</linearGradient>
<linearGradient id="paint30_linear_1360_41380" x1="362.747" y1="674.191" x2="363.705" y2="869.506" gradientUnits="userSpaceOnUse">
<stop offset="0.197115" stop-color="#DB7AB9"/>
<stop offset="1" stop-color="#C4476F"/>
</linearGradient>
<linearGradient id="paint31_linear_1360_41380" x1="543.067" y1="677.387" x2="543.067" y2="848.964" gradientUnits="userSpaceOnUse">
<stop offset="0.197115" stop-color="#DB7AB9"/>
<stop offset="1" stop-color="#C4476F"/>
</linearGradient>
<linearGradient id="paint32_linear_1360_41380" x1="780.215" y1="418.424" x2="714.373" y2="673.939" gradientUnits="userSpaceOnUse">
<stop offset="0.0913462" stop-color="#445C19"/>
<stop offset="0.653846" stop-color="#72A85A"/>
</linearGradient>
<linearGradient id="paint33_linear_1360_41380" x1="734.196" y1="559.03" x2="896.543" y2="599.6" gradientUnits="userSpaceOnUse">
<stop stop-color="#62AC9F"/>
<stop offset="0.451923" stop-color="#84CEC1"/>
</linearGradient>
</defs>
</svg>
