<svg width="471" height="421" viewBox="0 0 471 421" fill="none" xmlns="http://www.w3.org/2000/svg">
<path d="M239.483 362.29C404.164 362.29 444.092 190.157 444.092 190.157C444.092 190.157 291.957 132.056 239.483 264.556L239.483 362.29Z" fill="url(#paint0_linear_1578_68)"/>
<path d="M241.851 362.548C70.1226 372.523 24.8626 204.764 24.8626 204.764C24.8626 204.764 182.285 138.107 239.793 265.924L241.851 362.548Z" fill="url(#paint1_linear_1578_68)"/>
<path d="M314.48 88.3177C314.48 66.5484 306.27 45.6707 291.656 30.2774C277.042 14.8842 257.221 6.23633 236.554 6.23633C215.887 6.23633 196.067 14.8842 181.453 30.2774C166.839 45.6706 158.629 66.5484 158.629 88.3177L236.554 88.3177H314.48Z" fill="url(#paint2_linear_1578_68)"/>
<path d="M238.973 182.178L239 421" stroke="#517B3F" stroke-width="3"/>
<path d="M310.342 84.655C316.159 -27.6681 463.043 4.44659 463.175 7.22519C463.307 10.0038 465.868 205.744 237.213 188.799L235.818 85.9835L310.342 84.655Z" fill="url(#paint3_linear_1578_68)"/>
<path d="M163.036 87.266C154.189 -24.6178 8.47819 12.658 8.422 15.4355C8.36583 18.2131 11.1108 213.64 238.834 188.593L237.441 85.9396L163.036 87.266Z" fill="url(#paint4_linear_1578_68)"/>
<defs>
<linearGradient id="paint0_linear_1578_68" x1="373.62" y1="171.364" x2="308.129" y2="354.463" gradientUnits="userSpaceOnUse">
<stop offset="0.0913462" stop-color="#445C19"/>
<stop offset="0.653846" stop-color="#72A85A"/>
</linearGradient>
<linearGradient id="paint1_linear_1578_68" x1="97.9543" y1="181.915" x2="168.972" y2="359.42" gradientUnits="userSpaceOnUse">
<stop offset="0.0913462" stop-color="#445C19"/>
<stop offset="0.653846" stop-color="#72A85A"/>
</linearGradient>
<linearGradient id="paint2_linear_1578_68" x1="236.554" y1="6.23633" x2="236.554" y2="170.399" gradientUnits="userSpaceOnUse">
<stop offset="0.100962" stop-color="#DF6DB7"/>
<stop offset="1" stop-color="#B85172"/>
</linearGradient>
<linearGradient id="paint3_linear_1578_68" x1="348.894" y1="2.03666" x2="352.215" y2="188.328" gradientUnits="userSpaceOnUse">
<stop offset="0.100962" stop-color="#DF6DB7"/>
<stop offset="1" stop-color="#B85172"/>
</linearGradient>
<linearGradient id="paint4_linear_1578_68" x1="122.326" y1="6.19058" x2="125.642" y2="192.187" gradientUnits="userSpaceOnUse">
<stop offset="0.100962" stop-color="#DF6DB7"/>
<stop offset="1" stop-color="#B85172"/>
</linearGradient>
</defs>
</svg>
