<svg width="63" height="71" viewBox="0 0 63 71" fill="none" xmlns="http://www.w3.org/2000/svg">
<path d="M1.73286 11.1016C3.70402 17.1441 5.71199 20.856 14.6258 29.3425L22.0059 21.7681L12.4348 13.4649C8.57963 14.3877 6.18088 13.6701 1.73286 11.1016Z" fill="#A43968"/>
<path d="M1.73286 11.1016C6.18088 13.6701 8.57963 14.3877 12.4348 13.4649C8.46245 10.7656 5.38529 10.2104 1.73286 11.1016Z" fill="#A43968"/>
<path d="M1.73286 11.1016C3.70402 17.1441 5.71199 20.856 14.6258 29.3425L22.0059 21.7681L12.4348 13.4649M1.73286 11.1016C6.18088 13.6701 8.57963 14.3877 12.4348 13.4649M1.73286 11.1016C5.38529 10.2104 8.46245 10.7656 12.4348 13.4649" stroke="#6D2F44"/>
<path d="M29.2714 47.0239L40.0336 36.3278L37.526 33.7142L26.7638 44.4102L29.2714 47.0239Z" fill="#111A2D"/>
<path d="M29.2714 47.0239L50.101 67.3188C55.0261 64.0909 57.4461 61.4852 60.8632 56.6227L40.0336 36.3278L29.2714 47.0239Z" fill="#B8B8B8"/>
<path d="M13.5101 29.3955L24.2577 39.6969L26.7638 44.4102L37.526 33.7142L32.4578 31.0476L22.1711 20.7978L13.5101 29.3955Z" fill="#13213F"/>
</svg>
