<svg width="688" height="628" viewBox="0 0 688 628" fill="none" xmlns="http://www.w3.org/2000/svg">
<path d="M558.115 572.023C560.83 572.023 562.793 573.142 564.004 575.378C564.941 577.106 565.41 579.475 565.41 582.482C565.41 585.334 564.985 587.692 564.136 589.558C562.905 592.233 560.894 593.571 558.101 593.571C555.581 593.571 553.706 592.478 552.476 590.29C551.45 588.464 550.938 586.013 550.938 582.937C550.938 580.554 551.245 578.508 551.86 576.799C553.013 573.615 555.098 572.023 558.115 572.023ZM558.086 591.169C559.453 591.169 560.542 590.563 561.353 589.353C562.163 588.142 562.568 585.886 562.568 582.585C562.568 580.202 562.275 578.244 561.689 576.711C561.104 575.168 559.966 574.396 558.276 574.396C556.724 574.396 555.586 575.129 554.863 576.594C554.15 578.049 553.794 580.197 553.794 583.039C553.794 585.178 554.023 586.896 554.482 588.195C555.186 590.178 556.387 591.169 558.086 591.169ZM574.814 572.023C577.529 572.023 579.492 573.142 580.703 575.378C581.641 577.106 582.109 579.475 582.109 582.482C582.109 585.334 581.685 587.692 580.835 589.558C579.604 592.233 577.593 593.571 574.8 593.571C572.28 593.571 570.405 592.478 569.175 590.29C568.149 588.464 567.637 586.013 567.637 582.937C567.637 580.554 567.944 578.508 568.56 576.799C569.712 573.615 571.797 572.023 574.814 572.023ZM574.785 591.169C576.152 591.169 577.241 590.563 578.052 589.353C578.862 588.142 579.268 585.886 579.268 582.585C579.268 580.202 578.975 578.244 578.389 576.711C577.803 575.168 576.665 574.396 574.976 574.396C573.423 574.396 572.285 575.129 571.562 576.594C570.85 578.049 570.493 580.197 570.493 583.039C570.493 585.178 570.723 586.896 571.182 588.195C571.885 590.178 573.086 591.169 574.785 591.169ZM586.724 577.517H589.785V580.71H586.724V577.517ZM586.724 589.807H589.785V593H586.724V589.807ZM599.863 572.023C602.578 572.023 604.541 573.142 605.752 575.378C606.689 577.106 607.158 579.475 607.158 582.482C607.158 585.334 606.733 587.692 605.884 589.558C604.653 592.233 602.642 593.571 599.849 593.571C597.329 593.571 595.454 592.478 594.224 590.29C593.198 588.464 592.686 586.013 592.686 582.937C592.686 580.554 592.993 578.508 593.608 576.799C594.761 573.615 596.846 572.023 599.863 572.023ZM599.834 591.169C601.201 591.169 602.29 590.563 603.101 589.353C603.911 588.142 604.316 585.886 604.316 582.585C604.316 580.202 604.023 578.244 603.438 576.711C602.852 575.168 601.714 574.396 600.024 574.396C598.472 574.396 597.334 575.129 596.611 576.594C595.898 578.049 595.542 580.197 595.542 583.039C595.542 585.178 595.771 586.896 596.23 588.195C596.934 590.178 598.135 591.169 599.834 591.169ZM612.153 587.653C612.329 589.157 613.027 590.197 614.248 590.773C614.873 591.066 615.596 591.213 616.416 591.213C617.979 591.213 619.136 590.715 619.888 589.719C620.64 588.723 621.016 587.619 621.016 586.408C621.016 584.943 620.566 583.811 619.668 583.01C618.779 582.209 617.71 581.809 616.46 581.809C615.552 581.809 614.771 581.984 614.116 582.336C613.472 582.688 612.92 583.176 612.461 583.801L610.176 583.669L611.772 572.375H622.671V574.924H613.75L612.856 580.754C613.345 580.383 613.809 580.104 614.248 579.919C615.029 579.597 615.933 579.436 616.958 579.436C618.882 579.436 620.513 580.056 621.851 581.296C623.188 582.536 623.857 584.108 623.857 586.013C623.857 587.995 623.242 589.743 622.012 591.257C620.791 592.771 618.838 593.527 616.152 593.527C614.443 593.527 612.93 593.049 611.611 592.092C610.303 591.125 609.57 589.646 609.414 587.653H612.153ZM628.472 577.517H631.533V580.71H628.472V577.517ZM628.472 589.807H631.533V593H628.472V589.807ZM636.367 578.146V576.125C638.271 575.939 639.6 575.632 640.352 575.202C641.104 574.763 641.665 573.732 642.036 572.111H644.116V593H641.304V578.146H636.367ZM658.97 571.936C661.313 571.936 662.944 572.546 663.862 573.767C664.79 574.978 665.254 576.228 665.254 577.517H662.646C662.49 576.687 662.241 576.037 661.899 575.568C661.265 574.689 660.303 574.25 659.014 574.25C657.539 574.25 656.367 574.934 655.498 576.301C654.629 577.658 654.146 579.606 654.048 582.146C654.653 581.257 655.415 580.593 656.333 580.153C657.173 579.763 658.11 579.567 659.146 579.567C660.903 579.567 662.437 580.129 663.745 581.252C665.054 582.375 665.708 584.05 665.708 586.276C665.708 588.181 665.088 589.87 663.848 591.345C662.607 592.81 660.84 593.542 658.545 593.542C656.582 593.542 654.888 592.8 653.462 591.315C652.036 589.821 651.323 587.312 651.323 583.786C651.323 581.179 651.641 578.967 652.275 577.15C653.496 573.674 655.728 571.936 658.97 571.936ZM658.779 591.198C660.166 591.198 661.201 590.734 661.885 589.807C662.578 588.869 662.925 587.766 662.925 586.496C662.925 585.422 662.617 584.401 662.002 583.435C661.387 582.458 660.269 581.97 658.647 581.97C657.515 581.97 656.519 582.346 655.659 583.098C654.81 583.85 654.385 584.982 654.385 586.496C654.385 587.824 654.771 588.942 655.542 589.851C656.323 590.749 657.402 591.198 658.779 591.198Z" fill="white"/>
<path d="M41.29 48.3398C42.6572 48.3398 43.7363 48.0664 44.5273 47.5195C45.3281 46.9727 45.7285 45.9863 45.7285 44.5605C45.7285 43.0273 45.1719 41.9824 44.0586 41.4258C43.4629 41.1328 42.667 40.9863 41.6709 40.9863H34.5518V48.3398H41.29ZM31.6367 38.4814H41.5977C43.2383 38.4814 44.5908 38.7207 45.6553 39.1992C47.6768 40.1172 48.6875 41.8115 48.6875 44.2822C48.6875 45.5713 48.4189 46.626 47.8818 47.4463C47.3545 48.2666 46.6123 48.9258 45.6553 49.4238C46.4951 49.7656 47.125 50.2148 47.5449 50.7715C47.9746 51.3281 48.2139 52.2314 48.2627 53.4814L48.3652 56.3672C48.3945 57.1875 48.4629 57.7979 48.5703 58.1982C48.7461 58.8818 49.0586 59.3213 49.5078 59.5166V60H45.9336C45.8359 59.8145 45.7578 59.5752 45.6992 59.2822C45.6406 58.9893 45.5918 58.4229 45.5527 57.583L45.377 53.9941C45.3086 52.5879 44.7861 51.6455 43.8096 51.167C43.2529 50.9033 42.3789 50.7715 41.1875 50.7715H34.5518V60H31.6367V38.4814ZM53.2432 38.4814H68.9316V41.1182H56.085V47.6514H67.9648V50.1416H56.085V57.4365H69.1514V60H53.2432V38.4814ZM82.042 37.8955C84.7666 37.8955 86.8809 38.6133 88.3848 40.0488C89.8887 41.4844 90.7236 43.1152 90.8896 44.9414H88.0479C87.7256 43.5547 87.0811 42.4561 86.1143 41.6455C85.1572 40.835 83.8096 40.4297 82.0713 40.4297C79.9521 40.4297 78.2383 41.1768 76.9297 42.6709C75.6309 44.1553 74.9814 46.4355 74.9814 49.5117C74.9814 52.0312 75.5674 54.0771 76.7393 55.6494C77.9209 57.2119 79.6787 57.9932 82.0127 57.9932C84.1611 57.9932 85.7969 57.168 86.9199 55.5176C87.5156 54.6484 87.96 53.5059 88.2529 52.0898H91.0947C90.8408 54.3555 90.001 56.2549 88.5752 57.7881C86.8662 59.6338 84.5615 60.5566 81.6611 60.5566C79.1611 60.5566 77.0615 59.7998 75.3623 58.2861C73.126 56.2842 72.0078 53.1934 72.0078 49.0137C72.0078 45.8398 72.8477 43.2373 74.5273 41.2061C76.3438 38.999 78.8486 37.8955 82.042 37.8955Z" fill="white"/>
<path d="M341 275V352.281" stroke="#C71919" stroke-width="12"/>
<path d="M298.578 318.055H382.634" stroke="#C71919" stroke-width="12"/>
<path d="M6 438.51V621.377H138.872" stroke="white" stroke-width="12"/>
<path d="M141.461 6L6.00216 5.99999L6.00215 185.376" stroke="white" stroke-width="12"/>
<path d="M680.711 188.869L680.711 6.00205L547.838 6.00203" stroke="white" stroke-width="12"/>
<path d="M546.543 620.066L682.002 620.066L682.002 440.691" stroke="white" stroke-width="12"/>
<path d="M430.805 438.943L474.772 438.943L474.772 380.461" stroke="white" stroke-width="3"/>
<path d="M474.77 254.77L474.77 195.414L431.449 195.414" stroke="white" stroke-width="3"/>
<path d="M251.055 195.414L207.087 195.414L207.087 253.897" stroke="white" stroke-width="3"/>
<path d="M207.734 376.973V436.328H251.055" stroke="white" stroke-width="3"/>
<rect x="27.5" y="557.5" width="67" height="44" stroke="#969696"/>
<path d="M32.5635 570.481H47.4902V573.118H35.4785V579.651H46.04V582.215H35.4785V592H32.5635V570.481ZM50.6982 570.481H53.6426V579.373H64.834V570.481H67.7783V592H64.834V581.937H53.6426V592H50.6982V570.481ZM80.5664 589.51C81.5527 589.51 82.3633 589.407 82.998 589.202C84.1309 588.821 85.0586 588.089 85.7812 587.005C86.3574 586.136 86.7725 585.022 87.0264 583.665C87.1729 582.854 87.2461 582.103 87.2461 581.409C87.2461 578.743 86.7139 576.673 85.6494 575.198C84.5947 573.724 82.8906 572.986 80.5371 572.986H75.3662V589.51H80.5664ZM72.4365 570.481H81.1523C84.1113 570.481 86.4062 571.531 88.0371 573.631C89.4922 575.525 90.2197 577.952 90.2197 580.911C90.2197 583.196 89.79 585.262 88.9307 587.107C87.417 590.369 84.8145 592 81.123 592H72.4365V570.481Z" fill="white"/>
<rect x="606.609" y="27.5" width="59.0718" height="26.6777" stroke="#939191" stroke-width="3"/>
<rect x="598.5" y="34.3516" width="6.75898" height="14.7117" stroke="#969696"/>
<rect x="616.105" y="30.3613" width="49.1402" height="22.6947" fill="white"/>
<circle cx="119.305" cy="47.8535" r="10.5" fill="#C71919"/>
</svg>
