<svg width="749" height="195" viewBox="0 0 749 195" fill="none" xmlns="http://www.w3.org/2000/svg">
<path d="M497.362 86.208C506.92 -29.3839 748.246 3.66592 748.462 6.52539C748.679 9.40688 752.865 210.821 377.214 193.384L377.208 193.145C1.85347 214.27 -0.127394 11.4644 0.00292969 8.54492C0.126088 5.81065 215.369 -27.4358 253.117 65.416C258.813 51.5337 269.492 38.749 284.39 28.3564C307.452 12.268 338.732 3.22949 371.348 3.22949C403.963 3.2295 435.243 12.268 458.306 28.3564C480.429 43.7894 493.25 64.4971 494.258 86.2422L497.362 86.208Z" fill="url(#paint0_linear_2272_130382)"/>
<defs>
<linearGradient id="paint0_linear_2272_130382" x1="371.347" y1="3.23047" x2="371.347" y2="174.808" gradientUnits="userSpaceOnUse">
<stop offset="0.197115" stop-color="#DB7AB9"/>
<stop offset="1" stop-color="#C4476F"/>
</linearGradient>
</defs>
</svg>
