<svg width="268" height="173" viewBox="0 0 268 173" fill="none" xmlns="http://www.w3.org/2000/svg">
<path d="M0.000136668 172.471C0.000134578 149.822 3.45967 127.394 10.1812 106.469C16.9027 85.5439 26.7546 66.5308 39.1743 50.5155C51.594 34.5001 66.3384 21.796 82.5656 13.1285C98.7927 4.46104 116.185 -4.85064e-05 133.749 -4.99607e-05C151.313 -5.1415e-05 168.705 4.46104 184.933 13.1285C201.16 21.796 215.904 34.5001 228.324 50.5154C240.744 66.5309 250.595 85.5439 257.317 106.469C264.039 127.394 267.498 149.822 267.498 172.471L133.749 172.471L0.000136668 172.471Z" fill="url(#paint0_linear_1360_41388)"/>
<defs>
<linearGradient id="paint0_linear_1360_41388" x1="267.498" y1="217.285" x2="-6.91825" y2="161.99" gradientUnits="userSpaceOnUse">
<stop stop-color="#62AC9F"/>
<stop offset="0.451923" stop-color="#84CEC1"/>
</linearGradient>
</defs>
</svg>
