<svg width="124" height="104" viewBox="0 0 124 104" fill="none" xmlns="http://www.w3.org/2000/svg">
<path d="M106.004 94.7836L111.504 102.784C120.278 101.275 125.033 100.299 123.004 90.2836C120.04 83.0062 112.634 77.1831 96.0036 65.7836C70.3264 40.0742 56.2595 25.3254 28.0036 2.28363C23.1111 -0.461001 20.7041 -0.219917 17.5036 4.28363L1.00358 24.2836C-0.0903509 26.3469 0.760816 25.8523 2.00358 25.2836L18.5036 9.78363C20.212 9.28465 20.725 9.69429 20.5036 11.7836L5.00358 28.7836C4.25303 30.7105 4.63356 30.8686 6.50358 29.7836L23.5036 13.7836C25.6496 13.4414 25.6631 14.2279 25.5036 15.7836L10.5036 32.2836C9.39826 34.0172 9.45899 34.4423 11.5036 33.2836L28.0036 17.7836C29.9476 17.3104 30.3931 17.669 30.0036 19.7836L15.0036 36.7836C14.1803 38.3172 14.1527 38.8101 16.0036 37.7836L32.5036 21.7836C34.5288 21.2636 34.8243 21.8662 34.5036 23.7836L20.0036 40.7836C19.1114 42.3852 18.9313 43.0164 21.0036 41.7836L37.0036 26.2836C39.0878 25.6022 39.6397 25.9188 39.0036 28.2836L24.5036 44.7836C23.594 46.5456 24.074 46.4894 25.5036 45.7836L42.0036 29.7836C43.9019 29.5023 44.422 29.9235 44.0036 31.7836L29.0036 48.7836C28.039 50.2795 28.224 50.5816 30.0036 49.7836L46.0036 34.2836C48.12 33.9042 48.4986 34.2552 48.0036 36.2836L33.5036 53.2836C32.8487 54.8102 33.2737 54.7791 34.5036 54.2836L50.0036 38.7836C52.209 38.2227 52.486 38.8085 52.0036 40.7836L38.0036 57.2836C36.9985 59.147 37.7931 58.7688 39.0036 58.2836L54.5036 42.7836C56.4186 42.2473 56.6646 42.9208 56.5036 44.7836L42.5036 61.2836C41.9456 62.5963 42.0357 62.9954 43.5036 62.2836L58.5036 46.7836C60.4733 46.6435 60.8803 47.1768 60.5036 48.7836L47.0036 65.2836C46.6177 66.719 46.8916 66.8466 48.0036 66.2836L63.0036 51.2836C65.1017 50.9601 65.7461 51.2269 65.0036 53.2836L51.0036 69.7836C49.4158 72.0091 49.8786 72.1254 52.0036 70.7836L67.0036 55.7836C68.9285 55.2501 69.4314 55.7914 69.0036 57.7836L55.5036 74.2836C54.4552 76.0773 54.9768 76.0438 56.5036 75.2836L67.5036 66.2836C74.0508 62.8214 78.5999 64.8325 88.5036 74.7836L106.004 94.7836Z" fill="#0C255A" stroke="black"/>
</svg>
