<svg width="558" height="325" viewBox="0 0 558 325" fill="none" xmlns="http://www.w3.org/2000/svg">
<path d="M557.611 161.926L548.611 161.926C548.611 161.814 548.611 161.703 548.611 161.591C548.611 117.604 543.158 78.1321 534.561 49.9551C530.245 35.811 525.289 25.02 520.199 17.9639C514.958 10.6993 510.82 9.00019 508.306 9.00002C505.792 9.00002 501.653 10.6989 496.412 17.9639C491.322 25.02 486.366 35.811 482.05 49.9551C473.453 78.1321 468 117.604 468 161.591C468 161.703 468.001 161.814 468.001 161.926L459.001 161.926C459.001 161.814 459 161.703 459 161.591L459.004 159.502C459.345 71.2206 481.288 2.10378e-05 508.306 2.22188e-05C535.536 0.000685561 557.611 72.3474 557.611 161.591L557.611 161.926Z" fill="#00611C"/>
<path d="M376.798 166.525L367.798 166.525C367.798 166.356 367.798 166.186 367.798 166.017C367.798 120.81 362.175 80.2355 353.3 51.2608C348.846 36.718 343.724 25.6048 338.452 18.3252C333.034 10.8423 328.692 9.00002 325.95 9.00002C323.207 9.00034 318.865 10.8428 313.447 18.3252C308.175 25.6048 303.054 36.7183 298.6 51.2608C289.725 80.2355 284.102 120.81 284.102 166.017C284.102 166.186 284.104 166.356 284.104 166.525L275.104 166.525C275.104 166.356 275.102 166.186 275.102 166.017C275.102 75.0453 297.513 1.16383 325.292 0.013694L325.95 2.21513e-05C354.032 2.33788e-05 376.798 74.3282 376.798 166.017C376.798 166.186 376.798 166.356 376.798 166.525Z" fill="#00611C"/>
<path d="M193.115 165.887L184.115 165.887C184.115 165.775 184.115 165.663 184.115 165.552C184.115 121.586 178.494 82.1415 169.636 53.9912C165.19 39.8632 160.085 29.0838 154.838 22.0313C149.467 14.8117 145.118 12.961 142.266 12.961C139.413 12.9612 135.065 14.8122 129.695 22.0313C124.448 29.0839 119.342 39.8632 114.896 53.9912C106.038 82.1415 100.418 121.586 100.418 165.552C100.418 165.663 100.419 165.775 100.419 165.887L91.4193 165.887C91.4192 165.775 91.4183 165.663 91.4183 165.552L91.4222 163.463C91.7713 75.8773 114.048 5.08515 141.609 3.97463L142.266 3.96096C170.349 3.96096 193.115 76.3079 193.115 165.552L193.115 165.887Z" fill="#00611C"/>
<path d="M367.558 151.208L376.558 151.163C376.559 151.323 376.56 151.484 376.561 151.645C376.849 195.634 382.541 235.08 391.294 263.216C395.688 277.341 400.7 288.108 405.819 295.14C411.093 302.384 415.22 304.045 417.697 304.033C420.223 304.02 424.473 302.243 429.873 294.867C435.099 287.729 440.225 276.855 444.693 262.664C453.596 234.387 459.298 194.85 459.01 150.939C459.01 150.877 459.009 150.814 459.008 150.752L468.008 150.707C468.009 150.769 468.01 150.832 468.01 150.894L468.019 152.983C468.222 240.574 445.05 311.768 418.391 313.016L417.756 313.032C390.618 313.167 368.145 240.932 367.561 151.69C367.56 151.529 367.559 151.368 367.558 151.208Z" fill="#00611C"/>
<path d="M183.871 162.547L192.871 162.503C192.871 162.58 192.872 162.657 192.872 162.734C193.16 206.733 198.784 246.249 207.489 274.451C211.859 288.609 216.851 299.405 221.963 306.455C227.227 313.713 231.36 315.386 233.867 315.373C236.448 315.36 240.732 313.558 246.154 306.19C251.407 299.052 256.557 288.179 261.047 273.991C269.994 245.718 275.725 206.186 275.438 162.278C275.438 162.216 275.436 162.153 275.436 162.091L284.436 162.046C284.436 162.109 284.438 162.171 284.438 162.234L284.447 164.322C284.647 251.913 261.357 323.108 234.564 324.356L233.925 324.373C206.652 324.509 184.456 252.021 183.872 162.779L183.871 162.547Z" fill="#00611C"/>
<path d="M1.62186e-05 162.742L8.99967 162.663C9.00054 162.741 9.00147 162.819 9.00237 162.898C9.50964 206.895 15.3311 246.388 24.1763 274.557C28.6167 288.698 33.6624 299.475 38.8102 306.506C44.1095 313.744 48.2506 315.401 50.757 315.379C53.3377 315.356 57.6134 313.538 62.999 306.149C68.2157 298.991 73.3124 288.098 77.7316 273.893C86.5376 245.586 92.0713 206.033 91.5651 162.127C91.5643 162.064 91.5627 162.001 91.5619 161.938L100.562 161.859C100.562 161.922 100.564 161.985 100.565 162.048L100.584 164.137C101.226 252.421 77.9206 324.14 50.8607 324.378C23.5879 324.617 1.03161 252.216 0.00271815 162.977C0.00181733 162.898 0.000883398 162.82 1.62186e-05 162.742Z" fill="#00611C"/>
</svg>
