<svg width="200" height="210" viewBox="0 0 200 210" fill="none" xmlns="http://www.w3.org/2000/svg">
<path d="M102.227 131.565C109.469 131.726 116.478 129.051 121.711 124.129C126.944 119.207 129.972 112.441 130.131 105.319C130.289 98.1975 127.563 91.3035 122.554 86.1539C117.545 81.0044 110.662 78.021 103.419 77.8601L102.823 104.713L102.227 131.565Z" fill="url(#paint0_linear_1127_855)"/>
<path d="M103.632 129.428C141.374 132.224 129.473 181.396 128.538 181.42C127.602 181.443 61.7349 180.842 69.1436 104.049L103.742 104.348L103.632 129.428Z" fill="url(#paint1_linear_1127_855)"/>
<path d="M103.86 79.8527C141.564 77.7123 130.113 28.4164 129.179 28.3767C128.245 28.3371 62.4824 27.8004 69.207 104.594L103.75 104.893L103.86 79.8527Z" fill="url(#paint2_linear_1127_855)"/>
<defs>
<linearGradient id="paint0_linear_1127_855" x1="130.131" y1="105.319" x2="75.5152" y2="104.106" gradientUnits="userSpaceOnUse">
<stop offset="0.100962" stop-color="#DF6DB7"/>
<stop offset="1" stop-color="#B85172"/>
</linearGradient>
<linearGradient id="paint1_linear_1127_855" x1="131.137" y1="143.014" x2="68.4429" y2="142.739" gradientUnits="userSpaceOnUse">
<stop offset="0.100962" stop-color="#DF6DB7"/>
<stop offset="1" stop-color="#B85172"/>
</linearGradient>
<linearGradient id="paint2_linear_1127_855" x1="131.438" y1="66.7636" x2="68.8436" y2="66.4894" gradientUnits="userSpaceOnUse">
<stop offset="0.100962" stop-color="#DF6DB7"/>
<stop offset="1" stop-color="#B85172"/>
</linearGradient>
</defs>
</svg>
