<svg width="418" height="427" viewBox="0 0 418 427" fill="none" xmlns="http://www.w3.org/2000/svg">
<path fill-rule="evenodd" clip-rule="evenodd" d="M40.9564 284.465C21.6519 278.107 15.8267 274.293 18.9137 266.621C22.0486 263.825 25.5027 263.52 33.259 264.172C29.3356 246.076 27.9453 235.87 26.6112 217.637C10.4612 207.2 10.0223 202.029 14.0154 193.145C18.3551 188.818 21.3222 188.941 27.6608 194.895C28.2298 179.902 29.3415 171.103 35.3583 153.258C25.6446 132.119 23.2959 123.642 32.2093 122.819C37.9575 121.65 40.3353 123.845 43.7555 131.216L69.6469 92.0287C61.2384 73.6991 62.3495 68.721 72.7959 67.5368C75.9417 67.9937 77.3164 71.4528 79.4437 80.1327L106.735 56.6904C106.453 46.735 109.561 42.2423 122.479 36.747C125.671 36.1435 126.041 38.626 125.978 44.4445L156.768 31.8487C161.126 17.9733 166.958 14.6098 184.409 17.8533C188.738 21.2243 187.085 23.2829 184.409 26.9503C198.27 23.9356 205.836 24.6522 219.397 25.2009C238.335 12.2562 242.027 14.4177 247.388 19.9526C248.935 23.528 246.845 25.1574 240.04 27.6501L262.083 33.2482C282.327 27.4845 287.171 27.658 288.674 31.8487C290.158 37.1337 288.277 38.3999 284.826 40.5958L310.717 53.8914C330.667 46.4803 333.742 48.5877 335.92 54.941C337.892 59.5889 336.151 62.0419 327.861 66.1373C336.05 72.2981 340.387 75.8522 345.356 83.2816C371.28 80.2687 375.253 81.9578 375.796 87.1303C374.217 95.7235 368.888 97.202 358.301 99.0264C371.173 116.8 374.833 125.612 380.344 141.013C399.507 144.273 402.564 147.772 403.436 155.008C403.883 161.231 399.472 161.409 388.041 159.206L388.398 160.584C392.887 177.893 395.511 188.013 396.789 206.441C409.802 217.701 415.25 223.766 407.985 232.332C403.96 235.54 401.176 235.599 395.039 231.633L395.012 231.927C393.595 247.51 392.792 256.335 387.692 271.519C399.093 291.752 397.254 295.145 392.59 299.86C387.93 302.456 385.324 301.619 380.694 292.512C372.04 310.215 366.181 319.072 353.753 332.749C360.302 350.769 357.251 353.938 348.854 356.541C344.649 357.265 344.008 353.585 343.606 345.345C333.048 355.814 327.043 361.215 315.965 368.437L264.894 392.579C266.058 402.686 262.242 406.538 242.14 407.974C236.643 407.337 236.035 405.062 239.691 398.177C216.36 401.487 203.268 403.227 178.811 396.428L157.468 390.48C144.486 397.691 139.85 397.899 134.375 393.979C132.019 390.002 131.486 387.748 137.874 383.482L113.033 371.236C93.2368 374.882 85.6788 374.794 84.692 367.038C83.2298 361.535 86.9404 359.969 94.8386 357.591L76.9945 340.097C58.7631 344.275 48.6802 346.518 47.6042 337.997C45.0674 331.316 50.2777 328.792 63.6989 325.052C53.0854 309.988 48.4454 300.928 40.9564 284.465ZM45.8666 224.635C52.1332 229.365 53.3751 239.237 38.8689 257.874C43.9506 276.42 49.7559 285.85 60.2119 302.659C62.6305 293.575 64.2051 289.739 68.2592 290.063C73.6138 291.567 75.2137 295.701 70.3585 321.553L87.1529 342.196C86.263 328.317 87.4121 323.726 94.5005 325.052C99.595 326.356 100.157 333.047 98.3492 352.343C109.339 362.652 116.299 366.311 128.789 372.636C127.29 360.296 127.979 355.86 132.988 353.742C139.25 351.471 141.857 357.281 144.884 380.333L168.326 387.681C165.718 377.283 161.772 369.518 171.125 368.437C177.941 367.698 180.298 373.111 182.321 390.48C196.406 393.953 204.328 395.008 218.709 394.679C213.592 382.501 211.681 376.546 218.709 375.435C230.877 377.133 233.823 381.524 232.705 394.679C255.151 394.153 264.867 389.984 281.339 381.383C265.903 376.786 259.201 374.122 264.894 368.437C275.453 360.71 281.503 357.388 295.684 375.435L323.325 355.841C311.803 354.487 308.776 352.881 310.029 348.144C311.667 340.375 317.447 340.072 335.571 346.045L358.663 316.654C346.009 321.801 342.342 321.584 340.819 316.654C340.389 308.021 341.923 303.329 371.609 297.411C382.339 272.301 384.339 264.244 387.004 251.226C372.448 262.16 369.859 261.2 367.06 257.174C360.755 248.63 362.617 243.691 390.153 234.082C390.971 215.399 390.435 204.787 389.103 185.798C384.812 199.694 382.142 203.428 376.857 200.143C371.568 198.018 370.254 183.252 384.204 167.254C379.312 150.134 375.55 140.527 363.211 123.518C363.22 131.66 361.89 134.656 355.864 135.764C348.68 131.249 345.732 127.267 353.415 103.225C347.265 94.0969 343.512 89.4479 335.92 82.232C335.879 94.7417 334.445 98.4484 329.623 99.0264C325.436 100.39 323.789 97.287 324.724 71.0357C311.518 60.0747 304.934 56.9171 293.235 51.4422C295.357 62.598 296.351 68.8088 290.086 71.0357C283.699 73.2615 280.972 67.2518 277.49 44.7944C268.199 40.9048 262.972 39.2553 253.698 37.0969C258.455 46.5108 260.594 51.5999 251.948 56.3405C245.254 55.4536 242.077 50.559 241.452 33.948C224.881 30.3687 216.13 30.0175 200.515 29.3995C210.684 39.833 213.462 44.4828 206.463 47.9433C193.068 52.1172 190.889 46.0086 190.019 30.4491C168.802 32.4216 157.706 34.8415 140.324 43.0449C155.556 45.6 164.872 48.1688 156.08 58.7897C147.702 64.9869 140.811 61.0001 127.39 50.0426L97.9993 68.5865C109.105 69.8834 114.954 70.7577 113.044 76.9837C109.419 83.5989 103.548 83.981 87.8527 80.1327C77.8282 90.3036 72.6229 96.4985 64.0606 108.473C75.0012 104.907 79.9798 103.806 82.2546 107.074C84.6571 113.462 74.4482 124.863 53.2142 126.317C48.535 133.378 46.2475 137.417 45.8666 145.561C38.8865 155.94 38.0386 163.631 34.3204 176.001C45.952 165.953 52.3384 160.705 57.0629 168.303C59.4725 179.404 56.3614 184.928 31.8712 191.746C31.1822 214.928 31.794 224.407 34.3204 236.531C39.2269 225.18 41.8174 222.752 45.8666 224.635Z" fill="url(#paint0_linear_1643_601)"/>
<path d="M160.556 17.8976C159.6 14.6001 157.762 11.7045 155.448 9.84789C153.133 7.99128 150.531 7.32575 148.214 7.99769C145.896 8.66963 144.054 10.624 143.092 13.4309C142.129 16.2377 142.126 19.6672 143.082 22.9648L151.819 20.4312L160.556 17.8976Z" fill="url(#paint1_linear_1643_601)"/>
<path d="M159.862 17.5298C155.672 0.648626 173.462 0.663794 173.596 1.07247C173.731 1.48114 182.452 30.4879 156.182 35.3758L151.595 20.1411L159.862 17.5298Z" fill="url(#paint2_linear_1643_601)"/>
<path d="M143.523 22.6899C137.714 6.34894 123.045 16.6081 123.158 17.0227C123.271 17.4373 132 46.3916 156.357 35.2933L151.777 20.0828L143.523 22.6899Z" fill="url(#paint3_linear_1643_601)"/>
<path d="M277.744 23.5682C278.813 20.3054 278.927 16.8779 278.062 14.0396C277.196 11.2013 275.422 9.18483 273.129 8.4337C270.836 7.68257 268.213 8.25834 265.836 10.0343C263.459 11.8104 261.523 14.6411 260.454 17.9039L269.099 20.736L277.744 23.5682Z" fill="url(#paint4_linear_1643_601)"/>
<path d="M277.376 22.873C283.429 6.56699 298.116 16.6075 297.997 17.0209C297.877 17.4342 288.731 46.3098 264.276 35.5393L269.075 20.3701L277.376 22.873Z" fill="url(#paint5_linear_1643_601)"/>
<path d="M260.97 17.9262C265.382 1.15383 247.483 1.35937 247.343 1.76576C247.203 2.17216 238.092 31.0083 264.466 35.5703L269.257 20.4252L260.97 17.9262Z" fill="url(#paint6_linear_1643_601)"/>
<path d="M352.106 72.3357C354.618 69.9953 356.374 67.0494 356.988 64.1463C357.601 61.2431 357.022 58.6204 355.377 56.8551C353.732 55.0899 351.157 54.3267 348.218 54.7334C345.279 55.1401 342.216 56.6834 339.704 59.0239L345.905 65.6798L352.106 72.3357Z" fill="url(#paint7_linear_1643_601)"/>
<path d="M352.119 71.5489C365.297 60.1962 373.305 76.0821 373.001 76.3864C372.697 76.6907 350.74 97.5551 334.531 76.3113L346.061 65.3477L352.119 71.5489Z" fill="url(#paint8_linear_1643_601)"/>
<path d="M340.144 59.291C352.109 46.7368 336.337 38.2699 336.019 38.5581C335.7 38.8463 313.792 59.6932 334.681 76.4285L346.192 65.4823L340.144 59.291Z" fill="url(#paint9_linear_1643_601)"/>
<path d="M402.85 181.16C406.279 180.975 409.515 179.84 411.847 178.005C414.179 176.17 415.415 173.786 415.285 171.377C415.154 168.968 413.667 166.731 411.151 165.159C408.634 163.586 405.295 162.807 401.866 162.993L402.358 172.077L402.85 181.16Z" fill="url(#paint10_linear_1643_601)"/>
<path d="M403.365 180.571C420.756 180.307 416.718 197.633 416.29 197.671C415.861 197.71 385.633 199.645 386.813 172.95L402.691 171.928L403.365 180.571Z" fill="url(#paint11_linear_1643_601)"/>
<path d="M402.034 163.481C419.265 161.517 412.59 144.908 412.16 144.924C411.731 144.941 381.552 146.895 386.855 173.131L402.707 172.11L402.034 163.481Z" fill="url(#paint12_linear_1643_601)"/>
<path d="M383.864 314.643C386.878 316.288 390.227 317.023 393.176 316.688C396.124 316.353 398.429 314.975 399.585 312.857C400.74 310.739 400.651 308.055 399.337 305.394C398.022 302.734 395.591 300.316 392.577 298.671L388.22 306.657L383.864 314.643Z" fill="url(#paint13_linear_1643_601)"/>
<path d="M384.611 314.415C399.545 323.332 387.002 335.948 386.617 335.756C386.232 335.563 359.5 321.32 374.537 299.231L388.581 306.708L384.611 314.415Z" fill="url(#paint14_linear_1643_601)"/>
<path d="M392.461 299.175C408.152 306.562 411.204 288.924 410.83 288.712C410.455 288.501 383.756 274.299 374.475 299.405L388.497 306.869L392.461 299.175Z" fill="url(#paint15_linear_1643_601)"/>
<path d="M304.588 390.406C306.428 393.305 309.001 395.572 311.743 396.708C314.484 397.844 317.168 397.756 319.205 396.464C321.243 395.171 322.466 392.78 322.606 389.816C322.745 386.852 321.79 383.558 319.951 380.659L312.27 385.533L304.588 390.406Z" fill="url(#paint16_linear_1643_601)"/>
<path d="M305.357 390.563C314.098 405.601 297.011 410.557 296.768 410.202C296.525 409.847 280.046 384.432 303.905 372.399L312.565 385.746L305.357 390.563Z" fill="url(#paint17_linear_1643_601)"/>
<path d="M319.609 381.04C329.753 395.106 340.971 381.157 340.746 380.791C340.522 380.425 324.051 355.062 303.765 372.523L312.412 385.849L319.609 381.04Z" fill="url(#paint18_linear_1643_601)"/>
<path d="M202.36 412.219C202.166 415.647 202.936 418.988 204.502 421.509C206.069 424.029 208.302 425.522 210.711 425.658C213.119 425.794 215.507 424.563 217.347 422.236C219.187 419.908 220.33 416.675 220.524 413.247L211.442 412.733L202.36 412.219Z" fill="url(#paint19_linear_1643_601)"/>
<path d="M202.891 412.796C201.234 430.11 184.459 424.184 184.468 423.754C184.477 423.324 185.891 393.067 212.293 397.187L211.556 413.081L202.891 412.796Z" fill="url(#paint20_linear_1643_601)"/>
<path d="M220.022 413.357C220.071 430.7 237.316 425.899 237.347 425.47C237.378 425.042 238.768 394.832 212.107 397.205L211.371 413.073L220.022 413.357Z" fill="url(#paint21_linear_1643_601)"/>
<path d="M91.8328 372.627C89.9843 375.521 89.0193 378.812 89.1499 381.776C89.2805 384.74 90.4961 387.136 92.5292 388.434C94.5624 389.733 97.2466 389.83 99.9913 388.702C102.736 387.575 105.316 385.316 107.165 382.423L99.4989 377.525L91.8328 372.627Z" fill="url(#paint22_linear_1643_601)"/>
<path d="M92.0114 373.389C82.084 387.672 70.364 374.287 70.5826 373.917C70.8011 373.546 86.8565 347.862 107.854 364.388L99.4257 377.882L92.0114 373.389Z" fill="url(#paint23_linear_1643_601)"/>
<path d="M106.673 382.272C98.2197 397.415 115.605 401.678 115.842 401.319C116.079 400.96 132.09 375.305 107.686 364.313L99.2706 377.786L106.673 382.272Z" fill="url(#paint24_linear_1643_601)"/>
<path d="M30.2933 291.811C27.363 293.601 25.0522 296.135 23.8693 298.856C22.6864 301.577 22.7282 304.263 23.9856 306.322C25.243 308.381 27.6129 309.645 30.574 309.836C33.5352 310.027 36.8449 309.129 39.7752 307.339L35.0342 299.575L30.2933 291.811Z" fill="url(#paint25_linear_1643_601)"/>
<path d="M30.1201 292.573C14.934 301.053 10.2725 283.884 10.6315 283.647C10.9905 283.41 36.6849 267.371 48.3059 291.433L34.8124 299.862L30.1201 292.573Z" fill="url(#paint26_linear_1643_601)"/>
<path d="M39.3982 306.987C25.159 316.888 38.9131 328.344 39.2833 328.126C39.6535 327.908 65.2955 311.876 48.1854 291.293L34.7134 299.709L39.3982 306.987Z" fill="url(#paint27_linear_1643_601)"/>
<path d="M17.8757 169.735C14.4858 169.19 11.0827 169.614 8.41491 170.913C5.74717 172.213 4.03337 174.281 3.65053 176.663C3.26769 179.045 4.24717 181.546 6.37349 183.616C8.49982 185.685 11.5988 187.154 14.9887 187.699L16.4322 178.717L17.8757 169.735Z" fill="url(#paint28_linear_1643_601)"/>
<path d="M17.2498 170.204C0.196944 166.778 7.8139 150.701 8.24083 150.754C8.66777 150.807 38.6194 155.319 31.811 181.158L16.0775 178.794L17.2498 170.204Z" fill="url(#paint29_linear_1643_601)"/>
<path d="M14.9302 187.191C-2.32621 185.46 0.679651 203.106 1.10296 203.181C1.52626 203.256 31.4334 207.739 31.8092 180.976L16.1006 178.615L14.9302 187.191Z" fill="url(#paint30_linear_1643_601)"/>
<path d="M73.9117 68.8206C71.4509 66.4262 68.4226 64.8167 65.4929 64.3463C62.5631 63.8759 59.972 64.5831 58.2894 66.3122C56.6068 68.0414 55.9707 70.6509 56.521 73.5667C57.0712 76.4825 58.7628 79.4657 61.2235 81.8602L67.5676 75.3404L73.9117 68.8206Z" fill="url(#paint31_linear_1643_601)"/>
<path d="M73.1334 68.8446C61.1487 56.2389 76.6231 47.4615 76.9419 47.7504C77.2608 48.0392 99.1759 68.9482 78.7518 86.1782L67.2365 75.1996L73.1334 68.8446Z" fill="url(#paint32_linear_1643_601)"/>
<path d="M61.4711 81.4095C48.3458 70.0735 40.6619 86.241 40.9653 86.5454C41.2688 86.8499 63.1641 107.71 78.8557 86.0259L67.3587 75.0646L61.4711 81.4095Z" fill="url(#paint33_linear_1643_601)"/>
<defs>
<linearGradient id="paint0_linear_1643_601" x1="379.824" y1="111.157" x2="200.807" y2="429.739" gradientUnits="userSpaceOnUse">
<stop offset="0.0913462" stop-color="#445C19"/>
<stop offset="0.653846" stop-color="#72A85A"/>
</linearGradient>
<linearGradient id="paint1_linear_1643_601" x1="148.214" y1="7.99769" x2="155.425" y2="32.8647" gradientUnits="userSpaceOnUse">
<stop offset="0.288462" stop-color="#EADA9D"/>
<stop offset="1" stop-color="#DAC169"/>
</linearGradient>
<linearGradient id="paint2_linear_1643_601" x1="160.608" y1="4.00291" x2="169.291" y2="31.4913" gradientUnits="userSpaceOnUse">
<stop offset="0.288462" stop-color="#EADA9D"/>
<stop offset="1" stop-color="#DAC169"/>
</linearGradient>
<linearGradient id="paint3_linear_1643_601" x1="135.482" y1="11.9595" x2="144.151" y2="39.4043" gradientUnits="userSpaceOnUse">
<stop offset="0.288462" stop-color="#EADA9D"/>
<stop offset="1" stop-color="#DAC169"/>
</linearGradient>
<linearGradient id="paint4_linear_1643_601" x1="273.129" y1="8.4337" x2="265.069" y2="33.0384" gradientUnits="userSpaceOnUse">
<stop offset="0.288462" stop-color="#EADA9D"/>
<stop offset="1" stop-color="#DAC169"/>
</linearGradient>
<linearGradient id="paint5_linear_1643_601" x1="285.616" y1="12.1202" x2="277.294" y2="39.7197" gradientUnits="userSpaceOnUse">
<stop offset="0.288462" stop-color="#EADA9D"/>
<stop offset="1" stop-color="#DAC169"/>
</linearGradient>
<linearGradient id="paint6_linear_1643_601" x1="260.377" y1="4.53044" x2="252.067" y2="32.0862" gradientUnits="userSpaceOnUse">
<stop offset="0.288462" stop-color="#EADA9D"/>
<stop offset="1" stop-color="#DAC169"/>
</linearGradient>
<linearGradient id="paint7_linear_1643_601" x1="355.377" y1="56.8551" x2="336.433" y2="74.5045" gradientUnits="userSpaceOnUse">
<stop offset="0.288462" stop-color="#EADA9D"/>
<stop offset="1" stop-color="#DAC169"/>
</linearGradient>
<linearGradient id="paint8_linear_1643_601" x1="364.529" y1="66.1148" x2="343.909" y2="86.2599" gradientUnits="userSpaceOnUse">
<stop offset="0.288462" stop-color="#EADA9D"/>
<stop offset="1" stop-color="#DAC169"/>
</linearGradient>
<linearGradient id="paint9_linear_1643_601" x1="346.095" y1="47.2752" x2="325.508" y2="67.3884" gradientUnits="userSpaceOnUse">
<stop offset="0.288462" stop-color="#EADA9D"/>
<stop offset="1" stop-color="#DAC169"/>
</linearGradient>
<linearGradient id="paint10_linear_1643_601" x1="415.285" y1="171.377" x2="389.431" y2="172.777" gradientUnits="userSpaceOnUse">
<stop offset="0.288462" stop-color="#EADA9D"/>
<stop offset="1" stop-color="#DAC169"/>
</linearGradient>
<linearGradient id="paint11_linear_1643_601" x1="416.373" y1="184.357" x2="387.633" y2="186.598" gradientUnits="userSpaceOnUse">
<stop offset="0.288462" stop-color="#EADA9D"/>
<stop offset="1" stop-color="#DAC169"/>
</linearGradient>
<linearGradient id="paint12_linear_1643_601" x1="414.305" y1="158.075" x2="385.611" y2="160.312" gradientUnits="userSpaceOnUse">
<stop offset="0.288462" stop-color="#EADA9D"/>
<stop offset="1" stop-color="#DAC169"/>
</linearGradient>
<linearGradient id="paint13_linear_1643_601" x1="399.585" y1="312.857" x2="376.856" y2="300.458" gradientUnits="userSpaceOnUse">
<stop offset="0.288462" stop-color="#EADA9D"/>
<stop offset="1" stop-color="#DAC169"/>
</linearGradient>
<linearGradient id="paint14_linear_1643_601" x1="393.686" y1="324.473" x2="368.06" y2="311.272" gradientUnits="userSpaceOnUse">
<stop offset="0.288462" stop-color="#EADA9D"/>
<stop offset="1" stop-color="#DAC169"/>
</linearGradient>
<linearGradient id="paint15_linear_1643_601" x1="405.741" y1="301.026" x2="380.155" y2="287.846" gradientUnits="userSpaceOnUse">
<stop offset="0.288462" stop-color="#EADA9D"/>
<stop offset="1" stop-color="#DAC169"/>
</linearGradient>
<linearGradient id="paint16_linear_1643_601" x1="319.205" y1="396.464" x2="305.334" y2="374.602" gradientUnits="userSpaceOnUse">
<stop offset="0.288462" stop-color="#EADA9D"/>
<stop offset="1" stop-color="#DAC169"/>
</linearGradient>
<linearGradient id="paint17_linear_1643_601" x1="308.421" y1="403.76" x2="292.403" y2="379.792" gradientUnits="userSpaceOnUse">
<stop offset="0.288462" stop-color="#EADA9D"/>
<stop offset="1" stop-color="#DAC169"/>
</linearGradient>
<linearGradient id="paint18_linear_1643_601" x1="330.328" y1="389.096" x2="314.336" y2="365.166" gradientUnits="userSpaceOnUse">
<stop offset="0.288462" stop-color="#EADA9D"/>
<stop offset="1" stop-color="#DAC169"/>
</linearGradient>
<linearGradient id="paint19_linear_1643_601" x1="210.711" y1="425.658" x2="212.173" y2="399.808" gradientUnits="userSpaceOnUse">
<stop offset="0.288462" stop-color="#EADA9D"/>
<stop offset="1" stop-color="#DAC169"/>
</linearGradient>
<linearGradient id="paint20_linear_1643_601" x1="197.692" y1="425.306" x2="198.638" y2="396.495" gradientUnits="userSpaceOnUse">
<stop offset="0.288462" stop-color="#EADA9D"/>
<stop offset="1" stop-color="#DAC169"/>
</linearGradient>
<linearGradient id="paint21_linear_1643_601" x1="224.04" y1="426.15" x2="224.985" y2="397.384" gradientUnits="userSpaceOnUse">
<stop offset="0.288462" stop-color="#EADA9D"/>
<stop offset="1" stop-color="#DAC169"/>
</linearGradient>
<linearGradient id="paint22_linear_1643_601" x1="92.5292" y1="388.434" x2="106.469" y2="366.616" gradientUnits="userSpaceOnUse">
<stop offset="0.288462" stop-color="#EADA9D"/>
<stop offset="1" stop-color="#DAC169"/>
</linearGradient>
<linearGradient id="paint23_linear_1643_601" x1="81.3505" y1="381.749" x2="96.2898" y2="357.095" gradientUnits="userSpaceOnUse">
<stop offset="0.288462" stop-color="#EADA9D"/>
<stop offset="1" stop-color="#DAC169"/>
</linearGradient>
<linearGradient id="paint24_linear_1643_601" x1="103.909" y1="395.393" x2="118.825" y2="370.778" gradientUnits="userSpaceOnUse">
<stop offset="0.288462" stop-color="#EADA9D"/>
<stop offset="1" stop-color="#DAC169"/>
</linearGradient>
<linearGradient id="paint25_linear_1643_601" x1="23.9856" y1="306.322" x2="46.0829" y2="292.829" gradientUnits="userSpaceOnUse">
<stop offset="0.288462" stop-color="#EADA9D"/>
<stop offset="1" stop-color="#DAC169"/>
</linearGradient>
<linearGradient id="paint26_linear_1643_601" x1="16.8728" y1="295.409" x2="41.1124" y2="279.806" gradientUnits="userSpaceOnUse">
<stop offset="0.288462" stop-color="#EADA9D"/>
<stop offset="1" stop-color="#DAC169"/>
</linearGradient>
<linearGradient id="paint27_linear_1643_601" x1="31.1587" y1="317.566" x2="55.3599" y2="301.988" gradientUnits="userSpaceOnUse">
<stop offset="0.288462" stop-color="#EADA9D"/>
<stop offset="1" stop-color="#DAC169"/>
</linearGradient>
<linearGradient id="paint28_linear_1643_601" x1="3.65053" y1="176.663" x2="29.2139" y2="180.771" gradientUnits="userSpaceOnUse">
<stop offset="0.288462" stop-color="#EADA9D"/>
<stop offset="1" stop-color="#DAC169"/>
</linearGradient>
<linearGradient id="paint29_linear_1643_601" x1="5.33919" y1="163.749" x2="33.9015" y2="167.647" gradientUnits="userSpaceOnUse">
<stop offset="0.288462" stop-color="#EADA9D"/>
<stop offset="1" stop-color="#DAC169"/>
</linearGradient>
<linearGradient id="paint30_linear_1643_601" x1="1.79256" y1="189.875" x2="30.3096" y2="193.767" gradientUnits="userSpaceOnUse">
<stop offset="0.288462" stop-color="#EADA9D"/>
<stop offset="1" stop-color="#DAC169"/>
</linearGradient>
<linearGradient id="paint31_linear_1643_601" x1="58.2894" y1="66.3122" x2="76.8457" y2="84.3685" gradientUnits="userSpaceOnUse">
<stop offset="0.288462" stop-color="#EADA9D"/>
<stop offset="1" stop-color="#DAC169"/>
</linearGradient>
<linearGradient id="paint32_linear_1643_601" x1="67.0978" y1="56.7159" x2="88.229" y2="76.3239" gradientUnits="userSpaceOnUse">
<stop offset="0.288462" stop-color="#EADA9D"/>
<stop offset="1" stop-color="#DAC169"/>
</linearGradient>
<linearGradient id="paint33_linear_1643_601" x1="49.1782" y1="76.0538" x2="70.2759" y2="95.6307" gradientUnits="userSpaceOnUse">
<stop offset="0.288462" stop-color="#EADA9D"/>
<stop offset="1" stop-color="#DAC169"/>
</linearGradient>
</defs>
</svg>
